G04*
G04 #@! TF.GenerationSoftware,Altium Limited,Altium Designer,24.3.1 (35)*
G04*
G04 Layer_Color=32896*
%FSLAX44Y44*%
%MOMM*%
G71*
G04*
G04 #@! TF.SameCoordinates,7C1B9C0E-2346-4955-A66A-820B0877C6A1*
G04*
G04*
G04 #@! TF.FilePolarity,Positive*
G04*
G01*
G75*
%ADD10C,0.5080*%
%ADD11C,0.2540*%
%ADD13C,0.1524*%
%ADD16C,0.1000*%
%ADD84C,0.1500*%
G36*
X411270Y560240D02*
X404071Y560139D01*
X407671Y562739D01*
X411270Y560240D01*
D02*
G37*
G36*
X412920Y607270D02*
X412819Y614469D01*
X415419Y610869D01*
X412920Y607270D01*
D02*
G37*
G36*
X415120Y647490D02*
X415221Y640291D01*
X412621Y643891D01*
X415120Y647490D01*
D02*
G37*
G36*
X416390Y684320D02*
X416491Y677121D01*
X413891Y680721D01*
X416390Y684320D01*
D02*
G37*
G36*
X414190Y713950D02*
X414089Y721149D01*
X416689Y717549D01*
X414190Y713950D01*
D02*
G37*
D10*
X914070Y516095D02*
G03*
X914070Y516095I-3810J0D01*
G01*
X791461Y783590D02*
G03*
X791461Y783590I-3810J0D01*
G01*
X965962Y717815D02*
G03*
X965962Y717815I-3810J0D01*
G01*
X645922D02*
G03*
X645922Y717815I-3810J0D01*
G01*
D11*
X399721Y539636D02*
X415721D01*
X415670Y508631D02*
Y521131D01*
X399670Y508631D02*
Y521131D01*
X415721Y527137D02*
Y539636D01*
X399721Y527137D02*
Y539636D01*
X399670Y508631D02*
X415670D01*
X447930Y726700D02*
X463930D01*
X463879Y695694D02*
Y708193D01*
X447879Y695694D02*
Y708193D01*
X463930Y714199D02*
Y726700D01*
X447930Y714199D02*
Y726700D01*
X447879Y695694D02*
X463879D01*
X450470Y632340D02*
X466470D01*
X466419Y601335D02*
Y613834D01*
X450419Y601335D02*
Y613834D01*
X466470Y619840D02*
Y632340D01*
X450470Y619840D02*
Y632340D01*
X450419Y601335D02*
X466419D01*
X449200Y675900D02*
X465200D01*
X465149Y644894D02*
Y657393D01*
X449149Y644894D02*
Y657393D01*
X465200Y663399D02*
Y675900D01*
X449200Y663399D02*
Y675900D01*
X449149Y644894D02*
X465149D01*
D13*
X399034Y589030D02*
Y600456D01*
X406651D01*
X418078Y589030D02*
X410460D01*
Y600456D01*
X418078D01*
X410460Y594743D02*
X414269D01*
X421887Y589030D02*
Y600456D01*
X427600D01*
X429504Y598552D01*
Y590934D01*
X427600Y589030D01*
X421887D01*
X433313Y600456D02*
X437122D01*
X435217D01*
Y589030D01*
X433313Y590934D01*
X396494Y620780D02*
Y632206D01*
X404112D01*
X415538Y620780D02*
X407920D01*
Y632206D01*
X415538D01*
X407920Y626493D02*
X411729D01*
X419347Y620780D02*
Y632206D01*
X425060D01*
X426964Y630302D01*
Y622684D01*
X425060Y620780D01*
X419347D01*
X438391Y632206D02*
X430773D01*
X438391Y624589D01*
Y622684D01*
X436486Y620780D01*
X432677D01*
X430773Y622684D01*
X439166Y668270D02*
Y656844D01*
X431549D01*
X420122Y668270D02*
X427740D01*
Y656844D01*
X420122D01*
X427740Y662557D02*
X423931D01*
X416313Y668270D02*
Y656844D01*
X410600D01*
X408696Y658748D01*
Y666366D01*
X410600Y668270D01*
X416313D01*
X404887Y666366D02*
X402983Y668270D01*
X399174D01*
X397270Y666366D01*
Y664462D01*
X399174Y662557D01*
X401078D01*
X399174D01*
X397270Y660653D01*
Y658748D01*
X399174Y656844D01*
X402983D01*
X404887Y658748D01*
X437896Y703830D02*
Y692404D01*
X430279D01*
X418852Y703830D02*
X426470D01*
Y692404D01*
X418852D01*
X426470Y698117D02*
X422661D01*
X415043Y703830D02*
Y692404D01*
X409330D01*
X407426Y694308D01*
Y701926D01*
X409330Y703830D01*
X415043D01*
X397904Y692404D02*
Y703830D01*
X403617Y698117D01*
X395999D01*
X432050Y534924D02*
X420624D01*
Y542542D01*
X432050Y553968D02*
Y546350D01*
X420624D01*
Y553968D01*
X426337Y546350D02*
Y550159D01*
X432050Y557777D02*
X420624D01*
Y563490D01*
X422528Y565394D01*
X430146D01*
X432050Y563490D01*
Y557777D01*
Y576820D02*
Y569203D01*
X426337D01*
X428242Y573012D01*
Y574916D01*
X426337Y576820D01*
X422528D01*
X420624Y574916D01*
Y571107D01*
X422528Y569203D01*
D16*
X462550Y634730D02*
Y639728D01*
X460051D01*
X459218Y638895D01*
Y637229D01*
X460051Y636396D01*
X462550D01*
X460884D02*
X459218Y634730D01*
X457552Y639728D02*
X454219D01*
Y638895D01*
X457552Y635563D01*
Y634730D01*
X458740Y730870D02*
Y735869D01*
X456241D01*
X455408Y735036D01*
Y733370D01*
X456241Y732536D01*
X458740D01*
X457074D02*
X455408Y730870D01*
X450409D02*
X453742D01*
X450409Y734202D01*
Y735036D01*
X451242Y735869D01*
X452909D01*
X453742Y735036D01*
X462550Y680450D02*
Y685448D01*
X460051D01*
X459218Y684615D01*
Y682949D01*
X460051Y682116D01*
X462550D01*
X460884D02*
X459218Y680450D01*
X457552D02*
X455886D01*
X456719D01*
Y685448D01*
X457552Y684615D01*
X450887Y680450D02*
Y685448D01*
X453386Y682949D01*
X450054D01*
X404860Y502810D02*
Y497812D01*
X407359D01*
X408192Y498645D01*
Y500311D01*
X407359Y501144D01*
X404860D01*
X406526D02*
X408192Y502810D01*
X413191Y497812D02*
X409858D01*
Y500311D01*
X411525Y499478D01*
X412357D01*
X413191Y500311D01*
Y501977D01*
X412357Y502810D01*
X410691D01*
X409858Y501977D01*
D84*
X417720Y603570D02*
X429220D01*
Y618070D01*
X417220D02*
X429220D01*
X398620Y618170D02*
X411020D01*
X398620Y603670D02*
Y618170D01*
Y603670D02*
X411020D01*
X429220Y603570D02*
X429520D01*
X431520Y605570D01*
Y615770D01*
X431220Y616070D02*
X431520Y615770D01*
X429220Y618070D02*
X431220Y616070D01*
X398820Y651190D02*
X410320D01*
X398820Y636690D02*
Y651190D01*
Y636690D02*
X410820D01*
X417020Y636590D02*
X429420D01*
Y651090D01*
X417020D02*
X429420D01*
X398520Y651190D02*
X398820D01*
X396520Y649190D02*
X398520Y651190D01*
X396520Y638990D02*
Y649190D01*
Y638990D02*
X396820Y638690D01*
X398820Y636690D01*
X400090Y688020D02*
X411590D01*
X400090Y673520D02*
Y688020D01*
Y673520D02*
X412090D01*
X418290Y673420D02*
X430690D01*
Y687920D01*
X418290D02*
X430690D01*
X399790Y688020D02*
X400090D01*
X397790Y686020D02*
X399790Y688020D01*
X397790Y675820D02*
Y686020D01*
Y675820D02*
X398090Y675520D01*
X400090Y673520D01*
X418990Y710250D02*
X430490D01*
Y724750D01*
X418490D02*
X430490D01*
X399890Y724850D02*
X412290D01*
X399890Y710350D02*
Y724850D01*
Y710350D02*
X412290D01*
X430490Y710250D02*
X430790D01*
X432790Y712250D01*
Y722450D01*
X432490Y722750D02*
X432790Y722450D01*
X430490Y724750D02*
X432490Y722750D01*
X414970Y565040D02*
Y576540D01*
X400470D02*
X414970D01*
X400470Y564540D02*
Y576540D01*
X400370Y545940D02*
Y558340D01*
Y545940D02*
X414870D01*
Y558340D01*
X414970Y576540D02*
Y576840D01*
X412970Y578840D02*
X414970Y576840D01*
X402770Y578840D02*
X412970D01*
X402470Y578540D02*
X402770Y578840D01*
X400470Y576540D02*
X402470Y578540D01*
M02*
