M48
;Layer_Color=9474304
;FILE_FORMAT=4:4
METRIC,LZ
;TYPE=PLATED
T01F00S00C0.2540
T04F00S00C0.7620
T05F00S00C0.8000
T06F00S00C0.8890
T07F00S00C0.9906
T08F00S00C2.3114
;TYPE=NON_PLATED
T09F00S00C0.6096
T10F00S00C0.6604
T11F00S00C2.0320
T12F00S00C2.5400
%
T01
X008Y00425
Y00475
X00825
X0082042Y0048895
X00825Y005
X008
X0085Y00475
X00875
Y0045
Y00425
X0085Y0045
X0088646Y0054102
X00886806Y00569306
X0088646Y0057912
X0089662Y0058039
X0092329Y0064897
X0091313Y0067183
X0088773Y0069977
X0086741Y00702056
X00875Y0075
X0085
Y00775
X00875
X009
Y0075
X00825Y00725
X008
X00775
Y0075
Y00775
X0072517Y0077343
X0071501
Y0076581
X0076886Y0068326
X0077724
X00645058Y00680618
X0065151Y0063754
X0065278Y0062738
X006604Y0062611
X0065913Y00617474
X0067056Y0061722
X00670814Y00624904
X0067056Y0060706
X0066929Y0058547
X00663722Y00590575
X0068453Y0058547
X00684565Y00572933
X0068326Y0056388
X0067437Y00555671
X00665345Y00530625
X0069215Y0053848
X0069723Y0050419
X00675Y0045
Y00425
X007
X00725
Y0045
X0075Y00475
X00775
Y005
Y00425
X0065
Y0045
X006
Y00425
X00614015Y00531465
X0062865Y00527685
X0062103Y0055499
X0061468Y0056769
X0062103Y0057912
X0061087Y0059055
X0060198Y0057658
Y0055626
X0063246Y0056515
X00620849Y006148
X0061722Y0062357
X00606684Y00610365
X0055Y0065
Y00675
X00525
Y0065
X005
Y00675
Y007
Y00725
X00475
X0045Y0075
X00425
Y00775
X0045
X00525
X0055
X00575
X0056896Y0069723
X0055626Y00695202
X004445Y0068326
X00476762Y0064389
X00471682Y00635
X0050113Y00603488
X0056642Y0054737
X00575Y008
Y00825
X0055
Y008
X00525
X005
Y00825
X00525
X00475
Y008
X0045
X00425
X0045Y00825
X007
X00725
X0070993Y0079502
X0085Y008
X00875
X009
T04
X0053467Y006096
Y0062738
T05
X0084074Y0042291
X0047752Y0042164
T06
X0091026Y0053872
Y0058872
T07
X009065Y00422679
X009525
Y0048768
X009065
T08
X0081187Y00753815
X0094327
X0062323
X0049183
T09
X0065614Y00791153
X0076854
Y00799027
X0076854Y00829121
Y00841059
X0065614
Y00829121
X0065614Y00799027
T10
X00933831Y0052872
X00940689
Y0059872
X00933831
T11
X005715Y0042164
X00572276Y00421112
X0075692Y0042418
T12
X0042164Y0082931
M30
