G04*
G04 #@! TF.GenerationSoftware,Altium Limited,Altium Designer,24.3.1 (35)*
G04*
G04 Layer_Color=16711935*
%FSLAX44Y44*%
%MOMM*%
G71*
G04*
G04 #@! TF.SameCoordinates,1B42CCB5-0E70-4529-B8D2-504AEFABFE78*
G04*
G04*
G04 #@! TF.FilePolarity,Negative*
G04*
G01*
G75*
%ADD39R,1.3032X1.2032*%
%ADD54O,1.1176X1.9050*%
%ADD55O,1.9558X1.2700*%
%ADD56C,1.3970*%
%ADD57C,2.7432*%
%ADD58C,2.2352*%
%ADD59O,1.1176X2.3114*%
%ADD60C,1.4986*%
%ADD61R,4.2032X2.2032*%
%ADD62C,0.7112*%
%ADD63C,1.4732*%
%ADD82R,1.1031X1.2032*%
%ADD83R,1.2032X1.1031*%
D39*
X407670Y516131D02*
D03*
Y532130D02*
D03*
X455930Y703200D02*
D03*
Y719199D02*
D03*
X458470Y608841D02*
D03*
Y624840D02*
D03*
X457200Y652400D02*
D03*
Y668399D02*
D03*
D54*
X656140Y795090D02*
D03*
X768540D02*
D03*
D55*
X937260Y598720D02*
D03*
Y528720D02*
D03*
D56*
X910260Y588720D02*
D03*
Y538720D02*
D03*
D57*
X421640Y829310D02*
D03*
D58*
X572276Y421112D02*
D03*
X571500Y421640D02*
D03*
X756920Y424180D02*
D03*
D59*
X768540Y835090D02*
D03*
X656140D02*
D03*
D60*
X952500Y422679D02*
D03*
X906500D02*
D03*
Y487680D02*
D03*
X952500D02*
D03*
D61*
X477520Y421640D02*
D03*
X840740Y422910D02*
D03*
D62*
X621030Y579120D02*
D03*
X614680Y567690D02*
D03*
X632460Y565150D02*
D03*
X610870Y590550D02*
D03*
X444500Y683260D02*
D03*
X697230Y504190D02*
D03*
X777240Y683260D02*
D03*
X768860D02*
D03*
X684530Y585470D02*
D03*
X620849Y614800D02*
D03*
X659130Y617474D02*
D03*
X601980Y576580D02*
D03*
X617220Y623570D02*
D03*
X670814Y624904D02*
D03*
X683260Y563880D02*
D03*
X674370Y555671D02*
D03*
X606684Y610365D02*
D03*
X660400Y626110D02*
D03*
X663722Y590575D02*
D03*
X651510Y637540D02*
D03*
X621030Y554990D02*
D03*
X652780Y627380D02*
D03*
X670560Y617220D02*
D03*
Y607060D02*
D03*
X684565Y572933D02*
D03*
X669290Y585470D02*
D03*
X601980Y556260D02*
D03*
X501130Y603488D02*
D03*
X471682Y635000D02*
D03*
X476762Y643890D02*
D03*
X887730Y699770D02*
D03*
X867410Y702056D02*
D03*
X886460Y579120D02*
D03*
X896620Y580390D02*
D03*
X556260Y695202D02*
D03*
X628650Y527685D02*
D03*
X725170Y773430D02*
D03*
X715010Y765810D02*
D03*
X467360Y689610D02*
D03*
X614015Y531465D02*
D03*
X566420Y547370D02*
D03*
X886806Y569306D02*
D03*
X715010Y773430D02*
D03*
X886460Y541020D02*
D03*
X665345Y530625D02*
D03*
X692150Y538480D02*
D03*
X923290Y648970D02*
D03*
X913130Y671830D02*
D03*
X645058Y680618D02*
D03*
X709930Y795020D02*
D03*
X820420Y488950D02*
D03*
X568960Y697230D02*
D03*
D63*
X534670Y627380D02*
D03*
Y609600D02*
D03*
D82*
X422519Y610870D02*
D03*
X405519D02*
D03*
X405521Y643890D02*
D03*
X422521D02*
D03*
X406791Y680720D02*
D03*
X423791D02*
D03*
X423789Y717550D02*
D03*
X406789D02*
D03*
D83*
X407670Y569839D02*
D03*
Y552839D02*
D03*
M02*
