G04*
G04 #@! TF.GenerationSoftware,Altium Limited,Altium Designer,24.3.1 (35)*
G04*
G04 Layer_Physical_Order=2*
G04 Layer_Color=16711680*
%FSLAX44Y44*%
%MOMM*%
G71*
G04*
G04 #@! TF.SameCoordinates,1B42CCB5-0E70-4529-B8D2-504AEFABFE78*
G04*
G04*
G04 #@! TF.FilePolarity,Positive*
G04*
G01*
G75*
%ADD10C,0.5080*%
%ADD11C,0.2540*%
%ADD22R,1.1000X1.0000*%
%ADD54O,1.1176X1.9050*%
%ADD55O,1.9558X1.2700*%
%ADD56C,1.3970*%
%ADD59O,1.1176X2.3114*%
%ADD60C,1.4986*%
%ADD66C,0.6350*%
%ADD70C,0.6096*%
%ADD71C,0.6604*%
%ADD72C,2.5400*%
%ADD73C,2.0320*%
%ADD74C,2.8194*%
%ADD75R,4.0000X2.0000*%
%ADD76C,0.5080*%
%ADD77C,1.2700*%
%ADD78C,0.6604*%
%ADD79C,0.6096*%
%ADD80R,0.8999X1.0000*%
%ADD81R,1.0000X0.8999*%
G36*
X445350Y709119D02*
Y693450D01*
X444906Y692185D01*
X444342Y690998D01*
X441527Y690438D01*
X439006Y688754D01*
X437322Y686233D01*
X437247Y685854D01*
X434559Y684504D01*
X433506Y685062D01*
X433371Y685268D01*
Y690800D01*
X430265D01*
Y707470D01*
X433369D01*
Y718616D01*
X445350D01*
Y709119D01*
D02*
G37*
G36*
X427020Y670516D02*
X429428D01*
X443503Y656441D01*
X442531Y654094D01*
X425751D01*
X425125Y653970D01*
X397474D01*
Y670640D01*
X426395D01*
X427020Y670516D01*
D02*
G37*
G36*
X463484Y637460D02*
X462515Y634920D01*
X447890D01*
Y623916D01*
X434639Y610665D01*
X432099Y611717D01*
Y620950D01*
X428995D01*
Y633810D01*
X432100D01*
Y641146D01*
X451920D01*
X454397Y641638D01*
X455418Y642320D01*
X458624D01*
X463484Y637460D01*
D02*
G37*
G36*
X648764Y852048D02*
X649627Y849508D01*
X648531Y848668D01*
X646822Y846439D01*
X645747Y843844D01*
X645380Y841059D01*
Y829121D01*
X645747Y826336D01*
X646822Y823741D01*
X648531Y821513D01*
X650760Y819802D01*
X653355Y818728D01*
X656140Y818361D01*
X658925Y818728D01*
X661520Y819802D01*
X663748Y821513D01*
X665459Y823741D01*
X666533Y826336D01*
X666900Y829121D01*
Y841059D01*
X666533Y843844D01*
X665459Y846439D01*
X663748Y848668D01*
X662654Y849508D01*
X663516Y852048D01*
X761162Y852046D01*
X762024Y849506D01*
X760931Y848668D01*
X759221Y846439D01*
X758147Y843844D01*
X757780Y841059D01*
Y829121D01*
X758147Y826336D01*
X759221Y823741D01*
X760931Y821513D01*
X763160Y819802D01*
X765755Y818728D01*
X768540Y818361D01*
X771325Y818728D01*
X773920Y819802D01*
X776149Y821513D01*
X777859Y823741D01*
X778933Y826336D01*
X779300Y829121D01*
Y841059D01*
X778933Y843844D01*
X777859Y846439D01*
X776149Y848668D01*
X775056Y849506D01*
X775918Y852046D01*
X964178Y852043D01*
Y847129D01*
Y492341D01*
X961638Y491836D01*
X961494Y492184D01*
X959284Y489974D01*
X954794Y494464D01*
X957004Y496674D01*
X954496Y497713D01*
X950504D01*
X947996Y496674D01*
X950206Y494464D01*
X945716Y489974D01*
X943506Y492184D01*
X942467Y489676D01*
Y485684D01*
X943506Y483176D01*
X945716Y485386D01*
X950206Y480896D01*
X947996Y478686D01*
X950504Y477647D01*
X954496D01*
X957004Y478686D01*
X954794Y480896D01*
X959284Y485386D01*
X961494Y483176D01*
X961638Y483524D01*
X964178Y483019D01*
Y432374D01*
X961638Y431321D01*
X960220Y432740D01*
X957353Y434395D01*
X954155Y435252D01*
X950845D01*
X947647Y434395D01*
X944780Y432740D01*
X942439Y430399D01*
X940784Y427532D01*
X939927Y424334D01*
Y421024D01*
X940784Y417826D01*
X942204Y415365D01*
X941365Y412825D01*
X914427D01*
X913375Y415365D01*
X915006Y416996D01*
X916533Y420683D01*
Y424674D01*
X915494Y427183D01*
X913284Y424973D01*
X908794Y429463D01*
X911004Y431673D01*
X908496Y432712D01*
X904504D01*
X901996Y431673D01*
X904206Y429463D01*
X899716Y424973D01*
X897506Y427183D01*
X896467Y424674D01*
Y420683D01*
X897994Y416996D01*
X899625Y415365D01*
X898572Y412825D01*
X863280D01*
Y419735D01*
X860371D01*
Y426085D01*
X863280D01*
Y435450D01*
X843915D01*
Y432542D01*
X837565D01*
Y435450D01*
X818200D01*
Y426085D01*
X821109D01*
Y419735D01*
X818200D01*
Y412825D01*
X767118D01*
X766066Y415365D01*
X767083Y416382D01*
X768755Y419278D01*
X769620Y422508D01*
Y425852D01*
X768755Y429082D01*
X767083Y431978D01*
X764718Y434342D01*
X761822Y436015D01*
X758592Y436880D01*
X755248D01*
X752018Y436015D01*
X749122Y434342D01*
X746758Y431978D01*
X745086Y429082D01*
X744220Y425852D01*
Y422508D01*
X745086Y419278D01*
X746758Y416382D01*
X747774Y415365D01*
X746722Y412825D01*
X585089D01*
X583623Y415365D01*
X584110Y416210D01*
X584976Y419440D01*
Y422784D01*
X584110Y426014D01*
X582438Y428910D01*
X580074Y431275D01*
X579487Y431613D01*
X579298Y431802D01*
X576402Y433475D01*
X573172Y434340D01*
X569828D01*
X566598Y433475D01*
X563702Y431802D01*
X561338Y429438D01*
X559665Y426542D01*
X558800Y423312D01*
Y419968D01*
X559665Y416738D01*
X560458Y415365D01*
X558992Y412825D01*
X502600D01*
Y436720D01*
X452440D01*
Y412825D01*
X397474D01*
Y506051D01*
X418250D01*
Y509657D01*
X535181D01*
X537659Y510149D01*
X539759Y511553D01*
X567971Y539765D01*
X570736Y540910D01*
X572880Y543054D01*
X574040Y545854D01*
Y548886D01*
X572880Y551686D01*
X570736Y553830D01*
X567936Y554990D01*
X564904D01*
X562104Y553830D01*
X559960Y551686D01*
X558815Y548921D01*
X532499Y522606D01*
X418250D01*
Y542210D01*
X418250D01*
X417750Y543260D01*
Y562419D01*
X417592D01*
X415210Y562799D01*
X415210Y564959D01*
Y576879D01*
X410845D01*
Y573970D01*
X404495D01*
Y576879D01*
X400130D01*
X400130Y566039D01*
X397590Y564818D01*
X397474Y564911D01*
Y600790D01*
X405942D01*
X407981Y598752D01*
X410081Y597348D01*
X412559Y596856D01*
X436460D01*
X438938Y597348D01*
X441038Y598752D01*
X445543Y603257D01*
X447890Y602285D01*
Y598761D01*
X461575D01*
X462200Y598637D01*
X495204D01*
X496813Y597028D01*
X499614Y595868D01*
X502645D01*
X505446Y597028D01*
X507589Y599171D01*
X508750Y601972D01*
Y605003D01*
X507589Y607804D01*
X505446Y609947D01*
X502645Y611107D01*
X501222D01*
X498819Y611586D01*
X469050D01*
Y626634D01*
X470166Y627380D01*
X473198D01*
X475998Y628540D01*
X478142Y630684D01*
X479302Y633484D01*
Y636516D01*
X479239Y636668D01*
X481078Y637430D01*
X483222Y639574D01*
X484382Y642374D01*
Y645406D01*
X483237Y648171D01*
Y662929D01*
X482744Y665407D01*
X481340Y667507D01*
X466857Y681990D01*
X467910Y684530D01*
X468371D01*
X470238Y685303D01*
X471369Y686435D01*
X467360D01*
Y692785D01*
X471369D01*
X470238Y693917D01*
X468371Y694690D01*
X466510D01*
Y709119D01*
Y729279D01*
X454506D01*
X454117Y729668D01*
X452017Y731072D01*
X449539Y731564D01*
X413829D01*
X411351Y731072D01*
X409251Y729668D01*
X407212Y727630D01*
X397474D01*
Y760168D01*
Y796130D01*
Y852046D01*
X512802D01*
X512825Y852050D01*
X648764Y852048D01*
D02*
G37*
%LPC*%
G36*
X423646Y844550D02*
X419634D01*
X415758Y843511D01*
X412282Y841505D01*
X409445Y838668D01*
X407439Y835192D01*
X406400Y831316D01*
Y827304D01*
X407439Y823428D01*
X409445Y819952D01*
X412282Y817115D01*
X415758Y815109D01*
X419634Y814070D01*
X423646D01*
X427522Y815109D01*
X430998Y817115D01*
X433835Y819952D01*
X435841Y823428D01*
X436880Y827304D01*
Y831316D01*
X435841Y835192D01*
X433835Y838668D01*
X430998Y841505D01*
X427522Y843511D01*
X423646Y844550D01*
D02*
G37*
G36*
X768540Y809787D02*
X765755Y809420D01*
X763160Y808345D01*
X760931Y806636D01*
X759221Y804407D01*
X758147Y801812D01*
X757780Y799027D01*
Y791153D01*
X758147Y788368D01*
X759221Y785773D01*
X760931Y783544D01*
X763160Y781834D01*
X765755Y780760D01*
X768540Y780393D01*
X771325Y780760D01*
X773920Y781834D01*
X776149Y783544D01*
X777859Y785773D01*
X778933Y788368D01*
X779300Y791153D01*
Y799027D01*
X778933Y801812D01*
X777859Y804407D01*
X776149Y806636D01*
X773920Y808345D01*
X771325Y809420D01*
X768540Y809787D01*
D02*
G37*
G36*
X656140D02*
X653355Y809420D01*
X650760Y808345D01*
X648531Y806636D01*
X646822Y804407D01*
X645747Y801812D01*
X645380Y799027D01*
Y791153D01*
X645747Y788368D01*
X646822Y785773D01*
X648531Y783544D01*
X650760Y781834D01*
X653355Y780760D01*
X656140Y780393D01*
X658925Y780760D01*
X661520Y781834D01*
X663748Y783544D01*
X665459Y785773D01*
X666533Y788368D01*
X666900Y791153D01*
Y799027D01*
X666533Y801812D01*
X665459Y804407D01*
X663748Y806636D01*
X661520Y808345D01*
X658925Y809420D01*
X656140Y809787D01*
D02*
G37*
G36*
X945460Y770452D02*
X941080D01*
X936848Y769318D01*
X933938Y767638D01*
X936063Y765512D01*
X931573Y761022D01*
X929447Y763148D01*
X927767Y760237D01*
X926633Y756005D01*
Y751625D01*
X927767Y747393D01*
X929447Y744483D01*
X931573Y746609D01*
X936063Y742118D01*
X933938Y739993D01*
X936848Y738312D01*
X941080Y737178D01*
X945460D01*
X949692Y738312D01*
X952602Y739993D01*
X950477Y742118D01*
X954967Y746609D01*
X957093Y744483D01*
X958773Y747393D01*
X959907Y751625D01*
Y756005D01*
X958773Y760237D01*
X957093Y763148D01*
X954967Y761022D01*
X950477Y765512D01*
X952602Y767638D01*
X949692Y769318D01*
X945460Y770452D01*
D02*
G37*
G36*
X814060D02*
X809680D01*
X805448Y769318D01*
X802538Y767638D01*
X804663Y765512D01*
X800173Y761022D01*
X798047Y763148D01*
X796367Y760237D01*
X795233Y756005D01*
Y751625D01*
X796367Y747393D01*
X798047Y744483D01*
X800173Y746609D01*
X804663Y742118D01*
X802538Y739993D01*
X805448Y738312D01*
X809680Y737178D01*
X814060D01*
X818292Y738312D01*
X821202Y739993D01*
X819077Y742118D01*
X823567Y746609D01*
X825693Y744483D01*
X827373Y747393D01*
X828507Y751625D01*
Y756005D01*
X827373Y760237D01*
X825693Y763148D01*
X823567Y761022D01*
X819077Y765512D01*
X821202Y767638D01*
X818292Y769318D01*
X814060Y770452D01*
D02*
G37*
G36*
X625420D02*
X621040D01*
X616808Y769318D01*
X613898Y767638D01*
X616023Y765512D01*
X611533Y761022D01*
X609407Y763148D01*
X607727Y760237D01*
X606593Y756005D01*
Y751625D01*
X607727Y747393D01*
X609407Y744483D01*
X611533Y746609D01*
X616023Y742118D01*
X613898Y739993D01*
X616808Y738312D01*
X621040Y737178D01*
X625420D01*
X629652Y738312D01*
X632562Y739993D01*
X630437Y742118D01*
X634927Y746609D01*
X637053Y744483D01*
X638733Y747393D01*
X639867Y751625D01*
Y756005D01*
X638733Y760237D01*
X637053Y763148D01*
X634927Y761022D01*
X630437Y765512D01*
X632562Y767638D01*
X629652Y769318D01*
X625420Y770452D01*
D02*
G37*
G36*
X494020D02*
X489640D01*
X485408Y769318D01*
X482497Y767638D01*
X484623Y765512D01*
X480133Y761022D01*
X478007Y763148D01*
X476327Y760237D01*
X475193Y756005D01*
Y751625D01*
X476327Y747393D01*
X478007Y744483D01*
X480133Y746609D01*
X484623Y742118D01*
X482497Y739993D01*
X485408Y738312D01*
X489640Y737178D01*
X494020D01*
X498252Y738312D01*
X501162Y739993D01*
X499037Y742118D01*
X503527Y746609D01*
X505653Y744483D01*
X507333Y747393D01*
X508467Y751625D01*
Y756005D01*
X507333Y760237D01*
X505653Y763148D01*
X503527Y761022D01*
X499037Y765512D01*
X501162Y767638D01*
X498252Y769318D01*
X494020Y770452D01*
D02*
G37*
G36*
X711446Y802640D02*
X708414D01*
X705614Y801480D01*
X703470Y799336D01*
X702325Y796571D01*
X676142Y770388D01*
X674738Y768288D01*
X674246Y765810D01*
Y658002D01*
X660524Y644281D01*
X657984Y645333D01*
Y674167D01*
X657492Y676645D01*
X656088Y678745D01*
X652664Y682169D01*
X651518Y684935D01*
X649375Y687078D01*
X646574Y688238D01*
X643543D01*
X640742Y687078D01*
X638599Y684935D01*
X637438Y682134D01*
Y679103D01*
X638599Y676302D01*
X640742Y674158D01*
X643508Y673013D01*
X645036Y671485D01*
Y641821D01*
X643890Y639056D01*
Y636024D01*
X644580Y634358D01*
X642427Y632919D01*
X576566Y698781D01*
X575420Y701546D01*
X573276Y703690D01*
X570476Y704850D01*
X567444D01*
X564644Y703690D01*
X562500Y701546D01*
X559913Y701937D01*
X557776Y702822D01*
X554744D01*
X551944Y701662D01*
X549800Y699518D01*
X548640Y696718D01*
Y693686D01*
X549800Y690886D01*
X551944Y688742D01*
X554709Y687597D01*
X612590Y629716D01*
X610760Y627886D01*
X609600Y625086D01*
Y622054D01*
X609903Y621322D01*
X608206Y618782D01*
X606684D01*
X603463Y618141D01*
X600733Y616316D01*
X598908Y613586D01*
X598267Y610365D01*
X598908Y607144D01*
X600733Y604413D01*
X603463Y602589D01*
X606684Y601948D01*
X611699D01*
X636108Y577539D01*
Y571887D01*
X635635Y571570D01*
Y565150D01*
Y558730D01*
X636108Y558413D01*
Y554313D01*
X631373Y549578D01*
X626394D01*
X625461Y551815D01*
X617021D01*
X618152Y550683D01*
X618387Y550586D01*
X618669Y547720D01*
X617759Y547112D01*
X608093Y537447D01*
X606269Y534716D01*
X605628Y531495D01*
X606269Y528274D01*
X608093Y525544D01*
X610824Y523719D01*
X614045Y523078D01*
X617266Y523719D01*
X618856Y524781D01*
X621646Y524180D01*
X621963Y523918D01*
X622190Y523369D01*
X624334Y521225D01*
X627099Y520079D01*
X662807Y484372D01*
X664907Y482968D01*
X667385Y482476D01*
X816139D01*
X818904Y481330D01*
X821936D01*
X824736Y482490D01*
X826880Y484634D01*
X827101Y485167D01*
X827973Y486472D01*
X828466Y488950D01*
X827973Y491428D01*
X827101Y492733D01*
X826880Y493266D01*
X824736Y495410D01*
X821936Y496570D01*
X818904D01*
X816139Y495424D01*
X670067D01*
X636255Y529236D01*
X635798Y530341D01*
X637217Y533213D01*
X638080Y533385D01*
X640811Y535209D01*
X650477Y544875D01*
X652301Y547606D01*
X652678Y549502D01*
X655431Y550341D01*
X664840Y540933D01*
X665060Y540785D01*
X664290Y538245D01*
X663829D01*
X661029Y537085D01*
X658885Y534941D01*
X657725Y532141D01*
Y529109D01*
X658885Y526309D01*
X661029Y524165D01*
X663829Y523005D01*
X666861D01*
X669626Y524151D01*
X876065D01*
X878543Y524644D01*
X880643Y526047D01*
X888011Y533414D01*
X890776Y534560D01*
X892920Y536704D01*
X894080Y539504D01*
Y542536D01*
X892920Y545336D01*
X890776Y547480D01*
X887976Y548640D01*
X886072D01*
X885020Y551180D01*
X901198Y567358D01*
X902602Y569458D01*
X903094Y571936D01*
Y576109D01*
X904240Y578874D01*
X906780Y579852D01*
X908365Y579195D01*
X912155D01*
X914375Y580115D01*
X912154Y582336D01*
X916644Y586826D01*
X918865Y584605D01*
X919785Y586825D01*
Y590615D01*
X918865Y592835D01*
X916644Y590614D01*
X912154Y595104D01*
X914375Y597325D01*
X912155Y598245D01*
X908365D01*
X906145Y597325D01*
X908366Y595104D01*
X903876Y590614D01*
X901655Y592835D01*
X900735Y590615D01*
Y589219D01*
X898623Y587808D01*
X898136Y588010D01*
X895104D01*
X892304Y586850D01*
X890905Y585451D01*
X890776Y585580D01*
X887976Y586740D01*
X884944D01*
X882144Y585580D01*
X880000Y583436D01*
X878855Y580671D01*
X853979Y555795D01*
X694834D01*
X693862Y558142D01*
X781818Y646098D01*
X783222Y648198D01*
X783714Y650676D01*
Y678979D01*
X784860Y681744D01*
Y682030D01*
X893774D01*
X905525Y670279D01*
X906670Y667514D01*
X908814Y665370D01*
X911614Y664210D01*
X914646D01*
X914704Y664234D01*
X916816Y662823D01*
Y653251D01*
X915670Y650486D01*
Y647454D01*
X916830Y644654D01*
X918974Y642510D01*
X921774Y641350D01*
X924806D01*
X927606Y642510D01*
X929750Y644654D01*
X930910Y647454D01*
Y650486D01*
X929764Y653251D01*
Y668854D01*
X929272Y671332D01*
X927868Y673432D01*
X904408Y696892D01*
X902308Y698296D01*
X899830Y698788D01*
X895350D01*
Y701286D01*
X894190Y704086D01*
X892046Y706230D01*
X889246Y707390D01*
X886214D01*
X883414Y706230D01*
X881270Y704086D01*
X881007Y703450D01*
X875030D01*
Y703572D01*
X873870Y706372D01*
X871726Y708516D01*
X868926Y709676D01*
X865894D01*
X863129Y708530D01*
X755396D01*
X752918Y708038D01*
X750818Y706634D01*
X733991Y689807D01*
X731644Y690779D01*
Y769149D01*
X732790Y771914D01*
Y774946D01*
X731630Y777746D01*
X729486Y779890D01*
X726686Y781050D01*
X723654D01*
X720854Y779890D01*
X720090Y779126D01*
X719326Y779890D01*
X716526Y781050D01*
X713494D01*
X710694Y779890D01*
X708550Y777746D01*
X707404Y774981D01*
X689541Y757117D01*
X687194Y758089D01*
Y763128D01*
X711481Y787414D01*
X714246Y788560D01*
X716390Y790704D01*
X717550Y793504D01*
Y796536D01*
X716390Y799336D01*
X714246Y801480D01*
X711446Y802640D01*
D02*
G37*
G36*
X537845Y635687D02*
Y630555D01*
X542977D01*
X542207Y632416D01*
X539706Y634917D01*
X537845Y635687D01*
D02*
G37*
G36*
X531495D02*
X529634Y634917D01*
X527133Y632416D01*
X526363Y630555D01*
X531495D01*
Y635687D01*
D02*
G37*
G36*
X542977Y624205D02*
X526363D01*
X527133Y622344D01*
X528129Y621349D01*
X527797Y618830D01*
X527652Y618746D01*
X525524Y616618D01*
X524019Y614012D01*
X523240Y611105D01*
Y608095D01*
X524019Y605188D01*
X525524Y602582D01*
X527652Y600454D01*
X530258Y598949D01*
X533165Y598170D01*
X536175D01*
X539082Y598949D01*
X541688Y600454D01*
X543816Y602582D01*
X545321Y605188D01*
X546100Y608095D01*
Y611105D01*
X545321Y614012D01*
X543816Y616618D01*
X541688Y618746D01*
X541543Y618830D01*
X541211Y621349D01*
X542207Y622344D01*
X542977Y624205D01*
D02*
G37*
G36*
X614045Y594559D02*
Y593725D01*
X614879D01*
X614045Y594559D01*
D02*
G37*
G36*
X607695D02*
X606861Y593725D01*
X607695D01*
Y594559D01*
D02*
G37*
G36*
X940689Y610249D02*
X933831D01*
X930847Y609856D01*
X928067Y608704D01*
X925679Y606872D01*
X923847Y604484D01*
X922695Y601704D01*
X922302Y598720D01*
X922695Y595736D01*
X923847Y592956D01*
X925679Y590568D01*
X928067Y588736D01*
X930847Y587584D01*
X933831Y587191D01*
X940689D01*
X943673Y587584D01*
X946453Y588736D01*
X948841Y590568D01*
X950673Y592956D01*
X951825Y595736D01*
X952218Y598720D01*
X951825Y601704D01*
X950673Y604484D01*
X948841Y606872D01*
X946453Y608704D01*
X943673Y609856D01*
X940689Y610249D01*
D02*
G37*
G36*
X614879Y587375D02*
X614045D01*
Y586541D01*
X614879Y587375D01*
D02*
G37*
G36*
X607695D02*
X606861D01*
X607695Y586541D01*
Y587375D01*
D02*
G37*
G36*
X624205Y583129D02*
Y582295D01*
X625039D01*
X624205Y583129D01*
D02*
G37*
G36*
X617855D02*
X617021Y582295D01*
X617855D01*
Y583129D01*
D02*
G37*
G36*
X605155Y580589D02*
Y579755D01*
X605989D01*
X605155Y580589D01*
D02*
G37*
G36*
X598805D02*
X597971Y579755D01*
X598805D01*
Y580589D01*
D02*
G37*
G36*
X625039Y575945D02*
X624205D01*
Y575111D01*
X625039Y575945D01*
D02*
G37*
G36*
X617855D02*
X617021D01*
X617855Y575111D01*
Y575945D01*
D02*
G37*
G36*
X605989Y573405D02*
X605155D01*
Y572571D01*
X605989Y573405D01*
D02*
G37*
G36*
X598805D02*
X597971D01*
X598805Y572571D01*
Y573405D01*
D02*
G37*
G36*
X617855Y571699D02*
Y570865D01*
X618689D01*
X617855Y571699D01*
D02*
G37*
G36*
X611505D02*
X610671Y570865D01*
X611505D01*
Y571699D01*
D02*
G37*
G36*
X629285Y569159D02*
X628451Y568325D01*
X629285D01*
Y569159D01*
D02*
G37*
G36*
X618689Y564515D02*
X617855D01*
Y563681D01*
X618689Y564515D01*
D02*
G37*
G36*
X611505D02*
X610671D01*
X611505Y563681D01*
Y564515D01*
D02*
G37*
G36*
X629285Y561975D02*
X628451D01*
X629285Y561141D01*
Y561975D01*
D02*
G37*
G36*
X605155Y560269D02*
Y559435D01*
X605989D01*
X605155Y560269D01*
D02*
G37*
G36*
X598805D02*
X597971Y559435D01*
X598805D01*
Y560269D01*
D02*
G37*
G36*
X624205Y558999D02*
Y558165D01*
X625039D01*
X624205Y558999D01*
D02*
G37*
G36*
X617855D02*
X617021Y558165D01*
X617855D01*
Y558999D01*
D02*
G37*
G36*
X605989Y553085D02*
X605155D01*
Y552251D01*
X605989Y553085D01*
D02*
G37*
G36*
X598805D02*
X597971D01*
X598805Y552251D01*
Y553085D01*
D02*
G37*
G36*
X912155Y548245D02*
X908365D01*
X906145Y547325D01*
X908366Y545104D01*
X903876Y540614D01*
X901655Y542835D01*
X900735Y540615D01*
Y536825D01*
X901655Y534605D01*
X903876Y536826D01*
X908366Y532336D01*
X906145Y530115D01*
X908365Y529195D01*
X912155D01*
X914375Y530115D01*
X912154Y532336D01*
X916644Y536826D01*
X918865Y534605D01*
X919785Y536825D01*
Y540615D01*
X918865Y542835D01*
X916644Y540614D01*
X912154Y545104D01*
X914375Y547325D01*
X912155Y548245D01*
D02*
G37*
G36*
X940689Y540249D02*
X933831D01*
X930847Y539856D01*
X928067Y538704D01*
X925679Y536872D01*
X923847Y534484D01*
X922695Y531704D01*
X922302Y528720D01*
X922695Y525736D01*
X923847Y522956D01*
X925679Y520568D01*
X928067Y518736D01*
X930847Y517584D01*
X933831Y517191D01*
X940689D01*
X943673Y517584D01*
X946453Y518736D01*
X948841Y520568D01*
X950673Y522956D01*
X951825Y525736D01*
X952218Y528720D01*
X951825Y531704D01*
X950673Y534484D01*
X948841Y536872D01*
X946453Y538704D01*
X943673Y539856D01*
X940689Y540249D01*
D02*
G37*
G36*
X700405Y508199D02*
Y507365D01*
X701239D01*
X700405Y508199D01*
D02*
G37*
G36*
X694055D02*
X693221Y507365D01*
X694055D01*
Y508199D01*
D02*
G37*
G36*
X701239Y501015D02*
X700405D01*
Y500181D01*
X701239Y501015D01*
D02*
G37*
G36*
X694055D02*
X693221D01*
X694055Y500181D01*
Y501015D01*
D02*
G37*
G36*
X908155Y500253D02*
X904845D01*
X901647Y499396D01*
X898780Y497741D01*
X896439Y495400D01*
X894784Y492533D01*
X893927Y489335D01*
Y486025D01*
X894784Y482827D01*
X896439Y479960D01*
X898780Y477619D01*
X901647Y475964D01*
X904845Y475107D01*
X908155D01*
X911353Y475964D01*
X914220Y477619D01*
X916561Y479960D01*
X918216Y482827D01*
X919073Y486025D01*
Y489335D01*
X918216Y492533D01*
X916561Y495400D01*
X914220Y497741D01*
X911353Y499396D01*
X908155Y500253D01*
D02*
G37*
%LPD*%
G36*
X708536Y754481D02*
Y681516D01*
X695828Y668808D01*
X693482Y669780D01*
Y742745D01*
X706189Y755453D01*
X708536Y754481D01*
D02*
G37*
G36*
X762385Y672005D02*
Y652161D01*
X733917Y623693D01*
X731570Y624665D01*
Y644508D01*
X760039Y672977D01*
X762385Y672005D01*
D02*
G37*
G36*
X718621Y633629D02*
Y616145D01*
X693544Y591068D01*
X691004Y592120D01*
Y609331D01*
X716274Y634601D01*
X718621Y633629D01*
D02*
G37*
G36*
X678141Y580877D02*
X679622Y578766D01*
X678105Y577249D01*
X676945Y574449D01*
Y571417D01*
X677846Y569242D01*
X676800Y568196D01*
X675640Y565396D01*
Y563291D01*
X672854D01*
X670054Y562131D01*
X668698Y560775D01*
X660524Y568948D01*
Y580141D01*
X661973Y580777D01*
X663064Y580919D01*
X664974Y579010D01*
X667774Y577850D01*
X670806D01*
X673606Y579010D01*
X675446Y580850D01*
X676910Y581020D01*
X678141Y580877D01*
D02*
G37*
D10*
X444500Y680599D02*
X456700Y668399D01*
X444500Y680599D02*
Y683260D01*
X456700Y668399D02*
X457200D01*
D11*
X884936Y696976D02*
X887730Y699770D01*
X760476Y696976D02*
X884936D01*
X777240Y650676D02*
Y683260D01*
X768860Y649480D02*
Y683260D01*
X681990Y555426D02*
X777240Y650676D01*
X683260Y563880D02*
X768860Y649480D01*
X684530Y585470D02*
Y612012D01*
X674615Y555426D02*
X681990D01*
X622953Y619880D02*
X654050Y588783D01*
Y566267D02*
Y588783D01*
X645058Y680618D02*
X651510Y674167D01*
Y637540D02*
Y674167D01*
X617907Y623570D02*
X621597Y619880D01*
X674370Y555671D02*
X674615Y555426D01*
X652780Y627380D02*
X680720Y655320D01*
X617220Y623570D02*
X617907D01*
X620849Y614800D02*
X650240Y585409D01*
X654050Y566267D02*
X670996Y549321D01*
X660886Y630098D02*
X687007Y656219D01*
X670560Y607060D02*
X760476Y696976D01*
X568960Y697230D02*
X669290Y596900D01*
X670814Y624904D02*
X725170Y679260D01*
X650240Y564688D02*
Y585409D01*
X660886Y626596D02*
Y630098D01*
X621597Y619880D02*
X622953D01*
X669290Y585470D02*
Y596900D01*
X670560Y617220D02*
X755396Y702056D01*
X660400Y626110D02*
X660886Y626596D01*
X684565Y572933D02*
X725096Y613463D01*
X659130Y617474D02*
X665734Y624078D01*
X498819Y605111D02*
X500442Y603488D01*
X501130D01*
X455930Y683761D02*
X476762Y662929D01*
Y643890D02*
Y662929D01*
X455930Y683761D02*
Y703200D01*
X471196Y635486D02*
Y638904D01*
Y635486D02*
X471682Y635000D01*
X457200Y652400D02*
X457700D01*
X451920Y647620D02*
X454160Y649860D01*
X457700Y652400D02*
X471196Y638904D01*
X432110Y676990D02*
X456700Y652400D01*
X535181Y516131D02*
X566420Y547370D01*
X669418Y545511D02*
X863011D01*
X684530Y612012D02*
X764832Y692314D01*
X899830D01*
X923290Y648970D02*
Y668854D01*
X896456Y688504D02*
X913130Y671830D01*
X725096Y613463D02*
Y647190D01*
X670996Y549321D02*
X856661D01*
X863164Y538480D02*
X896620Y571936D01*
X692150Y538480D02*
X863164D01*
X635695Y618237D02*
X661670Y592262D01*
X633226Y618237D02*
X635695D01*
X628650Y527685D02*
X667385Y488950D01*
X680720Y655320D02*
Y765810D01*
X665734Y624078D02*
Y629558D01*
X687007Y656219D02*
Y745427D01*
X667385Y488950D02*
X821992D01*
X650240Y564688D02*
X669418Y545511D01*
X863011D02*
X886806Y569306D01*
X856661Y549321D02*
X886460Y579120D01*
X665345Y530625D02*
X876065D01*
X715010Y678834D02*
Y765810D01*
X680720Y765810D02*
X709930Y795020D01*
X687007Y745427D02*
X715010Y773430D01*
X462200Y605111D02*
X498819D01*
X896620Y571936D02*
Y580390D01*
X725096Y647190D02*
X766410Y688504D01*
X899830Y692314D02*
X923290Y668854D01*
X755396Y702056D02*
X867410D01*
X665734Y629558D02*
X715010Y678834D01*
X725170Y679260D02*
Y773430D01*
X876065Y530625D02*
X886460Y541020D01*
X556260Y695202D02*
X633226Y618237D01*
X766410Y688504D02*
X896456D01*
X458470Y608841D02*
X462200Y605111D01*
X407670Y516131D02*
X535181D01*
X407670Y532130D02*
Y552839D01*
X422521Y644390D02*
X425751Y647620D01*
X457970Y624840D02*
X458470D01*
X405519Y610370D02*
Y643888D01*
Y610370D02*
X412559Y603330D01*
X436460D01*
X427020Y676990D02*
X432110D01*
X422519Y610870D02*
X422521Y610872D01*
Y644390D01*
X454160Y649860D02*
X456700D01*
X423791Y680220D02*
X427020Y676990D01*
X456700Y649860D02*
Y652400D01*
X423791Y680220D02*
Y717548D01*
X406791Y680720D02*
Y717548D01*
X406789Y717550D02*
X406791Y717548D01*
X413829Y725090D02*
X449539D01*
X455430Y719199D01*
X455930D01*
X406789Y718050D02*
X413829Y725090D01*
X406789Y717550D02*
Y718050D01*
X423789Y717550D02*
X423791Y717548D01*
X425751Y647620D02*
X451920D01*
X436460Y603330D02*
X457970Y624840D01*
X405519Y643888D02*
X405521Y643890D01*
D22*
X407670Y516131D02*
D03*
Y532130D02*
D03*
X455930Y703200D02*
D03*
Y719199D02*
D03*
X458470Y608841D02*
D03*
Y624840D02*
D03*
X457200Y652400D02*
D03*
Y668399D02*
D03*
D54*
X656140Y795090D02*
D03*
X768540D02*
D03*
D55*
X937260Y598720D02*
D03*
Y528720D02*
D03*
D56*
X910260Y588720D02*
D03*
Y538720D02*
D03*
D59*
X768540Y835090D02*
D03*
X656140D02*
D03*
D60*
X952500Y422679D02*
D03*
X906500D02*
D03*
Y487680D02*
D03*
X952500D02*
D03*
D66*
X644525Y550827D02*
Y581025D01*
X606684Y610365D02*
X615185D01*
X644525Y581025D01*
X623711Y541161D02*
X634859D01*
X644525Y550827D01*
X614045Y531495D02*
X623711Y541161D01*
D70*
X656140Y791153D02*
D03*
Y799027D02*
D03*
X768540Y791153D02*
D03*
Y799027D02*
D03*
X768540Y829121D02*
D03*
Y841059D02*
D03*
X656140Y829121D02*
D03*
Y841059D02*
D03*
D71*
X940689Y598720D02*
D03*
X933831D02*
D03*
X940689Y528720D02*
D03*
X933831D02*
D03*
D72*
X421640Y829310D02*
D03*
D73*
X572276Y421112D02*
D03*
X571500Y421640D02*
D03*
X756920Y424180D02*
D03*
D74*
X811870Y753815D02*
D03*
X943270D02*
D03*
X491830D02*
D03*
X623230D02*
D03*
D75*
X477520Y421640D02*
D03*
X840740Y422910D02*
D03*
D76*
X621030Y579120D02*
D03*
X614680Y567690D02*
D03*
X632460Y565150D02*
D03*
X610870Y590550D02*
D03*
X444500Y683260D02*
D03*
X697230Y504190D02*
D03*
X777240Y683260D02*
D03*
X768860D02*
D03*
X684530Y585470D02*
D03*
X620849Y614800D02*
D03*
X659130Y617474D02*
D03*
X601980Y576580D02*
D03*
X617220Y623570D02*
D03*
X670814Y624904D02*
D03*
X683260Y563880D02*
D03*
X674370Y555671D02*
D03*
X606684Y610365D02*
D03*
X660400Y626110D02*
D03*
X663722Y590575D02*
D03*
X651510Y637540D02*
D03*
X621030Y554990D02*
D03*
X652780Y627380D02*
D03*
X670560Y617220D02*
D03*
Y607060D02*
D03*
X684565Y572933D02*
D03*
X669290Y585470D02*
D03*
X601980Y556260D02*
D03*
X501130Y603488D02*
D03*
X471682Y635000D02*
D03*
X476762Y643890D02*
D03*
X887730Y699770D02*
D03*
X867410Y702056D02*
D03*
X886460Y579120D02*
D03*
X896620Y580390D02*
D03*
X556260Y695202D02*
D03*
X628650Y527685D02*
D03*
X725170Y773430D02*
D03*
X715010Y765810D02*
D03*
X467360Y689610D02*
D03*
X614015Y531465D02*
D03*
X566420Y547370D02*
D03*
X886806Y569306D02*
D03*
X715010Y773430D02*
D03*
X886460Y541020D02*
D03*
X665345Y530625D02*
D03*
X692150Y538480D02*
D03*
X923290Y648970D02*
D03*
X913130Y671830D02*
D03*
X645058Y680618D02*
D03*
X709930Y795020D02*
D03*
X820420Y488950D02*
D03*
X568960Y697230D02*
D03*
D77*
X534670Y627380D02*
D03*
Y609600D02*
D03*
D78*
X933831Y598720D02*
X940689D01*
X933831Y528720D02*
X940689D01*
D79*
X768540Y791153D02*
Y799027D01*
X656140Y791153D02*
Y799027D01*
X768540Y829121D02*
Y841059D01*
X656140Y829121D02*
Y841059D01*
D80*
X422519Y610870D02*
D03*
X405519D02*
D03*
X405521Y643890D02*
D03*
X422521D02*
D03*
X406791Y680720D02*
D03*
X423791D02*
D03*
X423789Y717550D02*
D03*
X406789D02*
D03*
D81*
X407670Y569839D02*
D03*
Y552839D02*
D03*
M02*
