G04*
G04 #@! TF.GenerationSoftware,Altium Limited,Altium Designer,24.3.1 (35)*
G04*
G04 Layer_Physical_Order=1*
G04 Layer_Color=255*
%FSLAX44Y44*%
%MOMM*%
G71*
G04*
G04 #@! TF.SameCoordinates,1B42CCB5-0E70-4529-B8D2-504AEFABFE78*
G04*
G04*
G04 #@! TF.FilePolarity,Positive*
G04*
G01*
G75*
%ADD10C,0.5080*%
%ADD11C,0.2540*%
%ADD18R,0.7000X1.2500*%
%ADD19R,1.9558X1.5494*%
%ADD20R,1.3970X0.4572*%
%ADD21R,1.0000X1.5500*%
%ADD22R,1.1000X1.0000*%
%ADD23R,3.2004X2.4994*%
%ADD24O,0.2800X0.8000*%
%ADD25O,0.8000X0.2800*%
%ADD26R,4.5000X4.5000*%
G04:AMPARAMS|DCode=27|XSize=1mm|YSize=1.55mm|CornerRadius=0mm|HoleSize=0mm|Usage=FLASHONLY|Rotation=315.000|XOffset=0mm|YOffset=0mm|HoleType=Round|Shape=Rectangle|*
%AMROTATEDRECTD27*
4,1,4,-0.9016,-0.1945,0.1945,0.9016,0.9016,0.1945,-0.1945,-0.9016,-0.9016,-0.1945,0.0*
%
%ADD27ROTATEDRECTD27*%

%ADD28R,1.0000X1.1000*%
%ADD29R,0.6096X1.0922*%
%ADD30R,0.3048X1.0922*%
%ADD31R,1.1176X2.8702*%
%ADD32R,1.9000X1.2000*%
%ADD33R,1.5500X1.0000*%
%ADD34R,1.2500X0.7000*%
%ADD35R,0.8000X2.5000*%
%ADD54O,1.1176X1.9050*%
%ADD55O,1.9558X1.2700*%
%ADD56C,1.3970*%
%ADD59O,1.1176X2.3114*%
%ADD60C,1.4986*%
%ADD64C,2.5400*%
%ADD65C,1.0160*%
%ADD66C,0.6350*%
%ADD67C,2.0320*%
%ADD68C,0.4064*%
%ADD69C,0.3810*%
%ADD70C,0.6096*%
%ADD71C,0.6604*%
%ADD72C,2.5400*%
%ADD73C,2.0320*%
%ADD74C,2.8194*%
%ADD75R,4.0000X2.0000*%
%ADD76C,0.5080*%
%ADD77C,1.2700*%
%ADD78C,0.6604*%
%ADD79C,0.6096*%
G36*
X648764Y852048D02*
X649627Y849508D01*
X648531Y848668D01*
X646822Y846439D01*
X645747Y843844D01*
X645380Y841059D01*
Y829121D01*
X645747Y826336D01*
X646822Y823741D01*
X648531Y821513D01*
X650760Y819802D01*
X653355Y818728D01*
X656140Y818361D01*
X658925Y818728D01*
X661520Y819802D01*
X663748Y821513D01*
X665459Y823741D01*
X666533Y826336D01*
X666900Y829121D01*
Y841059D01*
X666533Y843844D01*
X665459Y846439D01*
X663748Y848668D01*
X662654Y849508D01*
X663516Y852048D01*
X761162Y852046D01*
X762024Y849506D01*
X760931Y848668D01*
X759221Y846439D01*
X758147Y843844D01*
X757780Y841059D01*
Y829121D01*
X758147Y826336D01*
X759221Y823741D01*
X760931Y821513D01*
X763160Y819802D01*
X765755Y818728D01*
X768540Y818361D01*
X771325Y818728D01*
X773920Y819802D01*
X776149Y821513D01*
X777859Y823741D01*
X778933Y826336D01*
X779300Y829121D01*
Y841059D01*
X778933Y843844D01*
X777859Y846439D01*
X776149Y848668D01*
X775056Y849506D01*
X775918Y852046D01*
X964524Y852043D01*
X964525Y661344D01*
X964525Y491349D01*
X961985Y490998D01*
X961494Y492184D01*
X959284Y489974D01*
X954794Y494464D01*
X957004Y496674D01*
X954496Y497713D01*
X950504D01*
X947996Y496674D01*
X950206Y494464D01*
X945716Y489974D01*
X943506Y492184D01*
X942467Y489676D01*
Y485684D01*
X943506Y483176D01*
X945716Y485386D01*
X950206Y480896D01*
X947996Y478686D01*
X950504Y477647D01*
X954496D01*
X957004Y478686D01*
X954794Y480896D01*
X959284Y485386D01*
X961494Y483176D01*
X961985Y484362D01*
X964525Y483857D01*
X964526Y431849D01*
X964379Y431741D01*
X961986Y430974D01*
X960220Y432740D01*
X957353Y434395D01*
X954155Y435252D01*
X950845D01*
X947647Y434395D01*
X944780Y432740D01*
X942439Y430399D01*
X940784Y427532D01*
X939927Y424334D01*
Y421024D01*
X940784Y417826D01*
X942204Y415365D01*
X941365Y412825D01*
X914427D01*
X913375Y415365D01*
X915006Y416996D01*
X916533Y420683D01*
Y424674D01*
X915494Y427183D01*
X913284Y424973D01*
X908794Y429463D01*
X911004Y431673D01*
X908496Y432712D01*
X904504D01*
X901996Y431673D01*
X904206Y429463D01*
X899716Y424973D01*
X897506Y427183D01*
X896467Y424674D01*
Y420683D01*
X897994Y416996D01*
X899625Y415365D01*
X898572Y412825D01*
X863280D01*
Y419735D01*
X860371D01*
Y426085D01*
X863280D01*
Y435450D01*
X843915D01*
Y432542D01*
X837565D01*
Y435450D01*
X818200D01*
Y426085D01*
X821109D01*
Y419735D01*
X818200D01*
Y412825D01*
X767118D01*
X766066Y415365D01*
X767083Y416382D01*
X768755Y419278D01*
X769620Y422508D01*
Y425852D01*
X768755Y429082D01*
X767083Y431978D01*
X764718Y434342D01*
X761822Y436015D01*
X758592Y436880D01*
X755248D01*
X752018Y436015D01*
X749122Y434342D01*
X746758Y431978D01*
X745086Y429082D01*
X744220Y425852D01*
Y422508D01*
X745086Y419278D01*
X746758Y416382D01*
X747774Y415365D01*
X746722Y412825D01*
X630110D01*
Y419735D01*
X627201D01*
Y426085D01*
X630110D01*
Y437950D01*
X626745D01*
Y435041D01*
X620395D01*
Y437950D01*
X617030D01*
Y426085D01*
X619939D01*
Y419735D01*
X617030D01*
Y412825D01*
X585089D01*
X583623Y415365D01*
X584110Y416210D01*
X584976Y419440D01*
Y422784D01*
X584110Y426014D01*
X582438Y428910D01*
X580074Y431275D01*
X579487Y431613D01*
X579298Y431802D01*
X576402Y433475D01*
X573172Y434340D01*
X569828D01*
X566598Y433475D01*
X563702Y431802D01*
X561338Y429438D01*
X559665Y426542D01*
X558800Y423312D01*
Y419968D01*
X559665Y416738D01*
X560458Y415365D01*
X558992Y412825D01*
X528419D01*
Y418152D01*
X529510Y420240D01*
X530960Y420240D01*
X533875D01*
Y423148D01*
X540225D01*
Y420240D01*
X544590D01*
Y427355D01*
X541681D01*
Y433705D01*
X544590D01*
Y440820D01*
X540225D01*
Y437911D01*
X533875D01*
Y440820D01*
X530960D01*
X529510Y440820D01*
X528419Y442908D01*
Y447362D01*
X529510Y449450D01*
X530960Y449450D01*
X533875D01*
Y452359D01*
X540225D01*
Y449450D01*
X544590D01*
Y456565D01*
X541681D01*
Y462915D01*
X544590D01*
Y470030D01*
X540225D01*
Y467122D01*
X533875D01*
Y470030D01*
X530960D01*
X529510Y470030D01*
X528419Y472118D01*
Y477198D01*
Y488316D01*
X528348Y488675D01*
X528352Y488695D01*
X528340Y488756D01*
X528352Y488844D01*
X528343Y488998D01*
X528273Y489267D01*
X528252Y489623D01*
X528193Y489847D01*
X528183Y489898D01*
X528124Y490041D01*
X528115Y490196D01*
X528010Y490412D01*
X527957Y490677D01*
X527898Y490819D01*
X527849Y490894D01*
X527833Y490954D01*
X527800Y490998D01*
X527789Y491051D01*
X527755Y491103D01*
X527732Y491190D01*
X527665Y491329D01*
X527502Y491544D01*
X527410Y491766D01*
X527300Y491875D01*
X527233Y492014D01*
X527202Y492056D01*
X527072Y492249D01*
X526821Y492501D01*
X526667Y492732D01*
X526558Y492841D01*
X526483Y492891D01*
X526445Y492940D01*
X526428Y492950D01*
X526207Y493243D01*
X504407Y512621D01*
X503967Y512879D01*
X503585Y513218D01*
X502945Y513593D01*
X502131Y513876D01*
X501335Y514205D01*
X500607Y514350D01*
X500097D01*
X499596Y514450D01*
X450364D01*
X449863Y514350D01*
X449353D01*
X448629Y514206D01*
X446762Y513433D01*
X446762Y513433D01*
X446148Y513023D01*
X445788Y512662D01*
X445364Y512379D01*
X443377Y510392D01*
X443377Y510392D01*
X438932Y505947D01*
X438932Y505947D01*
X434487Y501502D01*
X426152Y493166D01*
X425868Y492742D01*
X425507Y492382D01*
X425097Y491768D01*
X425097Y491768D01*
X424324Y489901D01*
X424180Y489177D01*
Y488667D01*
X424081Y488167D01*
Y475110D01*
X422830D01*
Y472956D01*
X420450Y472570D01*
X420290Y472570D01*
X416085D01*
Y469661D01*
X409735D01*
Y472570D01*
X405370D01*
Y465455D01*
X408279D01*
Y459105D01*
X405370D01*
Y451990D01*
X409735D01*
Y454898D01*
X416085D01*
Y451990D01*
X420290D01*
X420450Y451990D01*
X422830Y451604D01*
Y449450D01*
X424081D01*
Y444630D01*
X422830D01*
Y442476D01*
X420450Y442090D01*
X420290Y442090D01*
X416085D01*
Y439182D01*
X409735D01*
Y442090D01*
X405370D01*
Y434975D01*
X408279D01*
Y428625D01*
X405370D01*
Y421510D01*
X409735D01*
Y424418D01*
X416085D01*
Y421510D01*
X420290D01*
X420450Y421510D01*
X422830Y421124D01*
Y418970D01*
X424081D01*
Y412825D01*
X397474D01*
Y526351D01*
Y760168D01*
Y796130D01*
Y852046D01*
X512802D01*
X512825Y852050D01*
X648764Y852048D01*
D02*
G37*
G36*
X500325Y509125D02*
X500966Y508750D01*
X522766Y489371D01*
X522895Y489178D01*
X523004Y489069D01*
X523071Y488930D01*
X523103Y488889D01*
X523113Y488837D01*
X523172Y488695D01*
X523181Y488541D01*
X523240Y488316D01*
Y477198D01*
Y470030D01*
X520225D01*
Y467122D01*
X513875D01*
Y470030D01*
X509510D01*
Y462915D01*
X512419D01*
Y456565D01*
X509510D01*
Y449450D01*
X513875D01*
Y452359D01*
X520225D01*
Y449450D01*
X523240D01*
Y440820D01*
X520225D01*
Y437911D01*
X513875D01*
Y440820D01*
X509510D01*
Y433705D01*
X512419D01*
Y427355D01*
X509510D01*
Y420240D01*
X513875D01*
Y423148D01*
X520225D01*
Y420240D01*
X523240D01*
Y412825D01*
X500060D01*
Y418465D01*
X497151D01*
Y424815D01*
X500060D01*
Y434180D01*
X480695D01*
Y431272D01*
X474345D01*
Y434180D01*
X454980D01*
Y424815D01*
X457889D01*
Y418465D01*
X454980D01*
Y412825D01*
X429260D01*
Y421510D01*
X429735D01*
Y424418D01*
X436085D01*
Y421510D01*
X440450D01*
Y428625D01*
X437541D01*
Y434975D01*
X440450D01*
Y442090D01*
X436085D01*
Y439182D01*
X429735D01*
Y442090D01*
X429260D01*
Y451990D01*
X429735D01*
Y454898D01*
X436085D01*
Y451990D01*
X440450D01*
Y459105D01*
X437541D01*
Y465455D01*
X440450D01*
Y472570D01*
X436085D01*
Y469661D01*
X429735D01*
Y472570D01*
X429260D01*
Y488167D01*
X429404Y488890D01*
X429814Y489504D01*
X438150Y497840D01*
X442595Y502285D01*
X447040Y506730D01*
X447040Y506730D01*
X449026Y508716D01*
X449640Y509126D01*
X450364Y509270D01*
X499596D01*
X500325Y509125D01*
D02*
G37*
%LPC*%
G36*
X423646Y844550D02*
X419634D01*
X415758Y843511D01*
X412282Y841505D01*
X409445Y838668D01*
X407439Y835192D01*
X406400Y831316D01*
Y827304D01*
X407439Y823428D01*
X409445Y819952D01*
X412282Y817115D01*
X415758Y815109D01*
X419634Y814070D01*
X423646D01*
X427522Y815109D01*
X430998Y817115D01*
X433835Y819952D01*
X435841Y823428D01*
X436880Y827304D01*
Y831316D01*
X435841Y835192D01*
X433835Y838668D01*
X430998Y841505D01*
X427522Y843511D01*
X423646Y844550D01*
D02*
G37*
G36*
X768540Y809787D02*
X765755Y809420D01*
X763160Y808345D01*
X760931Y806636D01*
X759221Y804407D01*
X758147Y801812D01*
X757780Y799027D01*
Y791153D01*
X758147Y788368D01*
X759221Y785773D01*
X760931Y783544D01*
X763160Y781834D01*
X765755Y780760D01*
X768540Y780393D01*
X771325Y780760D01*
X773920Y781834D01*
X776149Y783544D01*
X777859Y785773D01*
X778933Y788368D01*
X779300Y791153D01*
Y799027D01*
X778933Y801812D01*
X777859Y804407D01*
X776149Y806636D01*
X773920Y808345D01*
X771325Y809420D01*
X768540Y809787D01*
D02*
G37*
G36*
X656140D02*
X653355Y809420D01*
X650760Y808345D01*
X648531Y806636D01*
X646822Y804407D01*
X645747Y801812D01*
X645380Y799027D01*
Y791153D01*
X645747Y788368D01*
X646822Y785773D01*
X648531Y783544D01*
X650760Y781834D01*
X653355Y780760D01*
X656140Y780393D01*
X658925Y780760D01*
X661520Y781834D01*
X663748Y783544D01*
X665459Y785773D01*
X666533Y788368D01*
X666900Y791153D01*
Y799027D01*
X666533Y801812D01*
X665459Y804407D01*
X663748Y806636D01*
X661520Y808345D01*
X658925Y809420D01*
X656140Y809787D01*
D02*
G37*
G36*
X945460Y770452D02*
X941080D01*
X936848Y769318D01*
X933938Y767638D01*
X936063Y765512D01*
X931573Y761022D01*
X929447Y763148D01*
X927767Y760237D01*
X926633Y756005D01*
Y751625D01*
X927767Y747393D01*
X929447Y744483D01*
X931573Y746609D01*
X936063Y742118D01*
X933938Y739993D01*
X936848Y738312D01*
X941080Y737178D01*
X945460D01*
X949692Y738312D01*
X952602Y739993D01*
X950477Y742118D01*
X954967Y746609D01*
X957093Y744483D01*
X958773Y747393D01*
X959907Y751625D01*
Y756005D01*
X958773Y760237D01*
X957093Y763148D01*
X954967Y761022D01*
X950477Y765512D01*
X952602Y767638D01*
X949692Y769318D01*
X945460Y770452D01*
D02*
G37*
G36*
X814060D02*
X809680D01*
X805448Y769318D01*
X802538Y767638D01*
X804663Y765512D01*
X800173Y761022D01*
X798047Y763148D01*
X796367Y760237D01*
X795233Y756005D01*
Y751625D01*
X796367Y747393D01*
X798047Y744483D01*
X800173Y746609D01*
X804663Y742118D01*
X802538Y739993D01*
X805448Y738312D01*
X809680Y737178D01*
X814060D01*
X818292Y738312D01*
X821202Y739993D01*
X819077Y742118D01*
X823567Y746609D01*
X825693Y744483D01*
X827373Y747393D01*
X828507Y751625D01*
Y756005D01*
X827373Y760237D01*
X825693Y763148D01*
X823567Y761022D01*
X819077Y765512D01*
X821202Y767638D01*
X818292Y769318D01*
X814060Y770452D01*
D02*
G37*
G36*
X625420D02*
X621040D01*
X616808Y769318D01*
X613898Y767638D01*
X616023Y765512D01*
X611533Y761022D01*
X609407Y763148D01*
X607727Y760237D01*
X606593Y756005D01*
Y751625D01*
X607727Y747393D01*
X609407Y744483D01*
X611533Y746609D01*
X616023Y742118D01*
X613898Y739993D01*
X616808Y738312D01*
X621040Y737178D01*
X625420D01*
X629652Y738312D01*
X632562Y739993D01*
X630437Y742118D01*
X634927Y746609D01*
X637053Y744483D01*
X638733Y747393D01*
X639867Y751625D01*
Y756005D01*
X638733Y760237D01*
X637053Y763148D01*
X634927Y761022D01*
X630437Y765512D01*
X632562Y767638D01*
X629652Y769318D01*
X625420Y770452D01*
D02*
G37*
G36*
X494020D02*
X489640D01*
X485408Y769318D01*
X482497Y767638D01*
X484623Y765512D01*
X480133Y761022D01*
X478007Y763148D01*
X476327Y760237D01*
X475193Y756005D01*
Y751625D01*
X476327Y747393D01*
X478007Y744483D01*
X480133Y746609D01*
X484623Y742118D01*
X482497Y739993D01*
X485408Y738312D01*
X489640Y737178D01*
X494020D01*
X498252Y738312D01*
X501162Y739993D01*
X499037Y742118D01*
X503527Y746609D01*
X505653Y744483D01*
X507333Y747393D01*
X508467Y751625D01*
Y756005D01*
X507333Y760237D01*
X505653Y763148D01*
X503527Y761022D01*
X499037Y765512D01*
X501162Y767638D01*
X498252Y769318D01*
X494020Y770452D01*
D02*
G37*
G36*
X850698Y734706D02*
X845745D01*
Y731798D01*
X839395D01*
Y734706D01*
X834442D01*
Y720990D01*
X837350D01*
Y714640D01*
X834442D01*
Y700924D01*
X839395D01*
Y703833D01*
X845745D01*
Y700924D01*
X850698D01*
Y714640D01*
X847790D01*
Y720990D01*
X850698D01*
Y734706D01*
D02*
G37*
G36*
X530658D02*
X525705D01*
Y731798D01*
X519355D01*
Y734706D01*
X514402D01*
Y720990D01*
X517310D01*
Y714640D01*
X514402D01*
Y700924D01*
X519355D01*
Y703833D01*
X525705D01*
Y700924D01*
X530658D01*
Y714640D01*
X527749D01*
Y720990D01*
X530658D01*
Y734706D01*
D02*
G37*
G36*
X470535Y693619D02*
Y692785D01*
X471369D01*
X470535Y693619D01*
D02*
G37*
G36*
X464185D02*
X463351Y692785D01*
X464185D01*
Y693619D01*
D02*
G37*
G36*
X447675Y687269D02*
Y686435D01*
X448509D01*
X447675Y687269D01*
D02*
G37*
G36*
X441325D02*
X440491Y686435D01*
X441325D01*
Y687269D01*
D02*
G37*
G36*
X471369Y686435D02*
X470535D01*
Y685601D01*
X471369Y686435D01*
D02*
G37*
G36*
X464185D02*
X463351D01*
X464185Y685601D01*
Y686435D01*
D02*
G37*
G36*
X448509Y680085D02*
X447675D01*
Y679251D01*
X448509Y680085D01*
D02*
G37*
G36*
X441325D02*
X440491D01*
X441325Y679251D01*
Y680085D01*
D02*
G37*
G36*
X711446Y802640D02*
X708414D01*
X705614Y801480D01*
X703470Y799336D01*
X702325Y796571D01*
X700516Y794762D01*
X700094Y794131D01*
X680212D01*
Y791591D01*
X674752D01*
Y786765D01*
X677661D01*
Y780415D01*
X674752D01*
Y775709D01*
X672266Y772470D01*
X670475Y768145D01*
X669864Y763503D01*
Y717890D01*
X670475Y713248D01*
X672266Y708923D01*
X675116Y705209D01*
X675372Y704953D01*
X675029Y702809D01*
X674894Y702413D01*
X671530D01*
Y679753D01*
X676730D01*
X677701Y677406D01*
X669685Y669389D01*
X644190D01*
Y672998D01*
X646574D01*
X649375Y674158D01*
X651518Y676302D01*
X652678Y679103D01*
Y682134D01*
X651518Y684935D01*
X649375Y687078D01*
X646574Y688238D01*
X644190D01*
Y691847D01*
X634544D01*
Y699196D01*
X633933Y703837D01*
X632141Y708163D01*
X629291Y711877D01*
X629291Y711877D01*
X610672Y730496D01*
X606958Y733346D01*
X603198Y734903D01*
Y737246D01*
X581862D01*
Y733411D01*
X580738Y732651D01*
X578198Y733999D01*
Y737246D01*
X536862D01*
Y698384D01*
X546581D01*
X548640Y696718D01*
Y693686D01*
X549800Y690886D01*
X551944Y688742D01*
X554744Y687582D01*
X557776D01*
X560576Y688742D01*
X562720Y690886D01*
X565308Y690495D01*
X567444Y689610D01*
X570476D01*
X573276Y690770D01*
X575420Y692914D01*
X576580Y695714D01*
Y698384D01*
X578198D01*
Y701631D01*
X580738Y702980D01*
X581862Y702219D01*
Y698384D01*
X592060D01*
X598677Y691768D01*
Y686410D01*
X599288Y681768D01*
X601080Y677443D01*
X602528Y675555D01*
X592584Y665610D01*
X581580D01*
Y663456D01*
X579200Y663070D01*
Y663070D01*
X574835D01*
Y660162D01*
X568485D01*
Y663070D01*
X564120D01*
Y655955D01*
X567029D01*
Y649605D01*
X563975D01*
X564120Y648877D01*
Y642490D01*
X568213D01*
X572781Y637922D01*
Y625475D01*
X575919D01*
Y619125D01*
X573010D01*
Y612213D01*
X570477Y611992D01*
X568110Y612328D01*
Y619300D01*
X565570D01*
Y622044D01*
X562662D01*
Y628394D01*
X565570D01*
Y632759D01*
X560705D01*
Y629851D01*
X554355D01*
Y632759D01*
X549490D01*
Y628394D01*
X552398D01*
Y622044D01*
X549490D01*
Y619659D01*
X543114D01*
X542062Y622199D01*
X542207Y622344D01*
X542977Y624205D01*
X526363D01*
X527133Y622344D01*
X528129Y621349D01*
X527797Y618830D01*
X527652Y618746D01*
X525524Y616618D01*
X524019Y614012D01*
X523240Y611105D01*
Y608095D01*
X523420Y607421D01*
X521874Y605406D01*
X508583D01*
X507589Y607804D01*
X505446Y609947D01*
X502645Y611107D01*
X499614D01*
X496813Y609947D01*
X496727Y609862D01*
X483237Y623353D01*
Y639609D01*
X484382Y642374D01*
Y645406D01*
X483222Y648206D01*
X481078Y650350D01*
X478278Y651510D01*
X475246D01*
X472446Y650350D01*
X470302Y648206D01*
X469142Y645406D01*
Y642374D01*
X469205Y642222D01*
X467366Y641460D01*
X465222Y639316D01*
X464062Y636516D01*
Y633484D01*
X465208Y630719D01*
Y620363D01*
X465701Y617885D01*
X467104Y615784D01*
X486536Y596352D01*
X485564Y594005D01*
X471170D01*
X468461Y593649D01*
X450088D01*
Y558495D01*
X468461D01*
X471170Y558139D01*
X524480D01*
Y541870D01*
X538356D01*
X539328Y539523D01*
X537314Y537509D01*
X525310D01*
Y517349D01*
X527850D01*
Y514605D01*
X530759D01*
Y508255D01*
X527850D01*
Y503890D01*
X532715D01*
Y506799D01*
X539065D01*
Y503890D01*
X543930D01*
Y508255D01*
X541022D01*
Y514605D01*
X543930D01*
Y517349D01*
X546470D01*
Y528353D01*
X553623Y535506D01*
X577155D01*
X577522Y533008D01*
X573814Y531472D01*
X573186Y530990D01*
X571420D01*
Y529635D01*
X571169Y529442D01*
X569040Y528450D01*
X564675D01*
Y525541D01*
X558325D01*
Y528450D01*
X553960D01*
Y521335D01*
X556869D01*
Y514985D01*
X553960D01*
Y507870D01*
X554366D01*
Y495935D01*
X558139D01*
Y489585D01*
X555230D01*
Y482470D01*
X559595D01*
Y485378D01*
X565945D01*
Y482470D01*
X570310D01*
X571590Y481874D01*
X572103Y479410D01*
X570000Y476670D01*
X568215D01*
Y473761D01*
X561865D01*
Y476670D01*
X557500D01*
Y471805D01*
X560409D01*
Y465455D01*
X557500D01*
Y460590D01*
X561865D01*
Y463498D01*
X568215D01*
Y460590D01*
X570000D01*
X572171Y457761D01*
X575354Y455318D01*
X579062Y453782D01*
X583040Y453259D01*
X586740D01*
X590718Y453782D01*
X594426Y455318D01*
X597609Y457761D01*
X605248Y465400D01*
X612159Y458489D01*
X612159Y458489D01*
X614490Y456701D01*
Y444700D01*
X632650D01*
Y453237D01*
X696449D01*
X701090Y453848D01*
X705415Y455639D01*
X709129Y458489D01*
X761981Y511340D01*
X764831Y515055D01*
X766622Y519380D01*
X767233Y524021D01*
X767233Y524022D01*
Y538446D01*
X768739Y539506D01*
X769685Y539830D01*
X774065D01*
Y542738D01*
X780415D01*
Y539830D01*
X785280D01*
Y544195D01*
X782372D01*
Y550545D01*
X785280D01*
Y552750D01*
X785280Y554910D01*
X787663Y555290D01*
X787820D01*
Y572215D01*
X793420Y577815D01*
X793624Y577611D01*
X795147Y579134D01*
X797103Y577724D01*
X797216Y577611D01*
X800190Y574638D01*
X802246Y576694D01*
X806737Y572204D01*
X804680Y570148D01*
X807766Y567061D01*
X812798Y572092D01*
X810741Y574149D01*
X815231Y578639D01*
X817288Y576582D01*
X822319Y581614D01*
X819232Y584700D01*
X817176Y582643D01*
X812685Y587133D01*
X814742Y589190D01*
X811769Y592164D01*
X811656Y592277D01*
X810757Y593524D01*
X812033Y595887D01*
X813876Y596800D01*
X831550D01*
Y596797D01*
X834502D01*
X835754Y594257D01*
X834099Y592100D01*
X832308Y587775D01*
X831697Y583133D01*
X832308Y578492D01*
X834099Y574166D01*
X836949Y570452D01*
X858006Y549396D01*
X874833Y532569D01*
X878547Y529719D01*
X882872Y527927D01*
X887514Y527316D01*
X892155Y527927D01*
X896480Y529719D01*
X899871Y532320D01*
X900402Y532551D01*
X903199Y532311D01*
X904865Y530645D01*
X908365Y529195D01*
X912155D01*
X914375Y530115D01*
X912154Y532336D01*
X916644Y536826D01*
X918865Y534605D01*
X919785Y536825D01*
Y540615D01*
X919525Y541242D01*
X920936Y543354D01*
X922325D01*
Y549854D01*
Y556354D01*
Y568951D01*
X924941D01*
Y563433D01*
Y556895D01*
X927850D01*
Y550545D01*
X924941D01*
Y543433D01*
X934085D01*
Y546342D01*
X940435D01*
Y543433D01*
X949579D01*
Y550545D01*
X946671D01*
Y556895D01*
X949579D01*
Y563433D01*
Y570545D01*
X946671D01*
Y576895D01*
X949579D01*
Y584007D01*
X940435D01*
Y581099D01*
X934085D01*
Y584489D01*
X921103D01*
X919692Y586601D01*
X919785Y586825D01*
Y590615D01*
X918865Y592835D01*
X916644Y590614D01*
X912154Y595104D01*
X914375Y597325D01*
X912155Y598245D01*
X908365D01*
X906145Y597325D01*
X908366Y595104D01*
X903876Y590614D01*
X901655Y592835D01*
X900735Y590615D01*
Y589219D01*
X898623Y587808D01*
X898171Y587995D01*
X878441Y607725D01*
X876341Y609128D01*
X873863Y609621D01*
X867710D01*
Y619457D01*
X850550D01*
X848459Y620543D01*
Y632855D01*
X853045Y637440D01*
X894840D01*
X895340Y637540D01*
X895850D01*
X896298Y637629D01*
X896769Y637824D01*
X897269Y637924D01*
X897694Y638207D01*
X898165Y638402D01*
X898526Y638763D01*
X898950Y639047D01*
X899233Y639471D01*
X899594Y639831D01*
X899789Y640303D01*
X900072Y640727D01*
X900135Y640878D01*
X900135Y640878D01*
X900235Y641378D01*
X900367Y641699D01*
X902798Y641603D01*
X902867Y641591D01*
Y638940D01*
X902867Y638510D01*
X901830Y636400D01*
X900510D01*
Y629285D01*
X903419D01*
Y622935D01*
X900510D01*
Y615820D01*
X904875D01*
Y618728D01*
X911225D01*
Y615820D01*
X915430D01*
X915590Y615820D01*
X917970Y615434D01*
Y613280D01*
X938130D01*
Y638940D01*
X934844D01*
Y654667D01*
X934352Y657144D01*
X932948Y659245D01*
X928857Y663336D01*
X930452Y667188D01*
X931063Y671830D01*
Y715010D01*
X930452Y719651D01*
X928661Y723977D01*
X925811Y727691D01*
X923238Y729665D01*
Y737246D01*
X901902D01*
Y730027D01*
X900778Y729147D01*
X898238Y730384D01*
Y737246D01*
X856902D01*
Y698384D01*
X859096D01*
X859795Y697329D01*
X858430Y694790D01*
X784256D01*
X783509Y694641D01*
X782752Y694566D01*
X782677Y694544D01*
X782634Y694521D01*
X782586Y694515D01*
X782426Y694426D01*
X782274Y694395D01*
X781776Y694063D01*
X781745Y694045D01*
X781025Y693661D01*
X758343Y716343D01*
X759315Y718690D01*
X766840D01*
Y725805D01*
X763931D01*
Y732155D01*
X766840D01*
Y739270D01*
X762475D01*
Y736361D01*
X756125D01*
Y739270D01*
X751760D01*
Y739270D01*
X749380Y739656D01*
Y741810D01*
X745661D01*
X744771Y744189D01*
X750919Y749544D01*
X754017Y753053D01*
X756102Y757245D01*
X757031Y761833D01*
X756741Y766506D01*
X755251Y770944D01*
X752663Y774845D01*
X749928Y777260D01*
Y780415D01*
X747020D01*
Y786765D01*
X749928D01*
Y791591D01*
X744468D01*
Y794131D01*
X719706D01*
X719164Y794942D01*
X717535Y796571D01*
X716390Y799336D01*
X714246Y801480D01*
X711446Y802640D01*
D02*
G37*
G36*
X537845Y635687D02*
Y630555D01*
X542977D01*
X542207Y632416D01*
X539706Y634917D01*
X537845Y635687D01*
D02*
G37*
G36*
X531495D02*
X529634Y634917D01*
X527133Y632416D01*
X526363Y630555D01*
X531495D01*
Y635687D01*
D02*
G37*
G36*
X940689Y610249D02*
X933831D01*
X930847Y609856D01*
X928067Y608704D01*
X925679Y606872D01*
X923847Y604484D01*
X922695Y601704D01*
X922302Y598720D01*
X922695Y595736D01*
X923847Y592956D01*
X925679Y590568D01*
X928067Y588736D01*
X930847Y587584D01*
X933831Y587191D01*
X940689D01*
X943673Y587584D01*
X946453Y588736D01*
X948841Y590568D01*
X950673Y592956D01*
X951825Y595736D01*
X952218Y598720D01*
X951825Y601704D01*
X950673Y604484D01*
X948841Y606872D01*
X946453Y608704D01*
X943673Y609856D01*
X940689Y610249D01*
D02*
G37*
G36*
Y540249D02*
X933831D01*
X930847Y539856D01*
X928067Y538704D01*
X925679Y536872D01*
X923847Y534484D01*
X922695Y531704D01*
X922302Y528720D01*
X922695Y525736D01*
X923847Y522956D01*
X925679Y520568D01*
X928067Y518736D01*
X930847Y517584D01*
X933831Y517191D01*
X940689D01*
X943673Y517584D01*
X946453Y518736D01*
X948841Y520568D01*
X950673Y522956D01*
X951825Y525736D01*
X952218Y528720D01*
X951825Y531704D01*
X950673Y534484D01*
X948841Y536872D01*
X946453Y538704D01*
X943673Y539856D01*
X940689Y540249D01*
D02*
G37*
G36*
X866440Y500800D02*
X830281D01*
Y495424D01*
X824701D01*
X821936Y496570D01*
X818904D01*
X816104Y495410D01*
X813960Y493266D01*
X812800Y490466D01*
Y487434D01*
X813960Y484634D01*
X816104Y482490D01*
X818904Y481330D01*
X821936D01*
X824701Y482476D01*
X830281D01*
Y479640D01*
X866440D01*
Y481206D01*
X895720D01*
X896439Y479960D01*
X898780Y477619D01*
X901647Y475964D01*
X904845Y475107D01*
X908155D01*
X911353Y475964D01*
X914220Y477619D01*
X916561Y479960D01*
X918216Y482827D01*
X919073Y486025D01*
Y489335D01*
X918216Y492533D01*
X916561Y495400D01*
X914220Y497741D01*
X911353Y499396D01*
X908155Y500253D01*
X904845D01*
X901647Y499396D01*
X898780Y497741D01*
X896439Y495400D01*
X895720Y494154D01*
X866440D01*
Y500800D01*
D02*
G37*
%LPD*%
G36*
X728980Y689610D02*
X733640D01*
Y688595D01*
X736548D01*
Y682245D01*
X733640D01*
Y677880D01*
X738505D01*
Y680789D01*
X744855D01*
Y677880D01*
X749720D01*
Y682245D01*
X746812D01*
Y688595D01*
X749720D01*
Y689610D01*
X753643D01*
X761240Y682013D01*
Y681744D01*
X762400Y678944D01*
X764543Y676800D01*
X767344Y675640D01*
X770375D01*
X773050Y676748D01*
X775724Y675640D01*
X778756D01*
X781556Y676800D01*
X783700Y678944D01*
X784860Y681744D01*
Y684776D01*
X783700Y687576D01*
X783558Y687718D01*
X783612Y689103D01*
X784181Y689587D01*
X784256Y689610D01*
X875030D01*
X895350Y669290D01*
Y662630D01*
X892378D01*
Y659722D01*
X886028D01*
Y662630D01*
X880413D01*
Y650550D01*
X886028D01*
Y653458D01*
X892378D01*
Y650550D01*
X895350D01*
Y642860D01*
X895287Y642709D01*
X894840Y642620D01*
X850900D01*
X843280Y635000D01*
Y620543D01*
Y616917D01*
X834090D01*
Y611302D01*
X836999D01*
Y604952D01*
X834090D01*
Y601980D01*
X810260D01*
X806106Y597826D01*
X805090Y598842D01*
X803034Y596786D01*
X798543Y601276D01*
X800600Y603332D01*
X797514Y606419D01*
X792482Y601388D01*
X794539Y599331D01*
X790049Y594841D01*
X787992Y596898D01*
X782961Y591866D01*
X786048Y588780D01*
X788104Y590837D01*
X792595Y586347D01*
X790538Y584290D01*
X791554Y583274D01*
X781190Y572910D01*
X780415D01*
Y570001D01*
X774065D01*
Y572910D01*
X769200D01*
Y568545D01*
X772109D01*
Y562195D01*
X769200D01*
Y561340D01*
X761727D01*
X761340Y562450D01*
X761340Y562610D01*
Y567815D01*
X758431D01*
Y574165D01*
X761340D01*
Y579530D01*
X752475D01*
Y576621D01*
X746125D01*
Y579530D01*
X737260D01*
Y574165D01*
X740169D01*
Y567815D01*
X737260D01*
Y562610D01*
X737260Y562450D01*
X736873Y561340D01*
X735330D01*
X724420Y550430D01*
X724271Y550423D01*
X723073Y550879D01*
X722682Y552847D01*
X721278Y554948D01*
X716700Y559526D01*
Y565450D01*
X711835D01*
Y562541D01*
X705485D01*
Y565450D01*
X700620D01*
Y561085D01*
X703529D01*
Y554735D01*
X700620D01*
Y551991D01*
X698080D01*
Y551989D01*
X696907Y551503D01*
X690880Y557530D01*
Y568471D01*
X691025Y568617D01*
X692185Y571417D01*
Y574449D01*
X691025Y577249D01*
X690880Y577394D01*
Y581044D01*
X690990Y581154D01*
X692150Y583954D01*
Y586986D01*
X690990Y589786D01*
X690880Y589896D01*
Y590550D01*
X688340Y593090D01*
X685729Y638787D01*
X678359Y639088D01*
X675328Y642118D01*
X673228Y643522D01*
X670750Y644014D01*
X655791D01*
X653026Y645160D01*
X649994D01*
X647194Y644000D01*
X645050Y641856D01*
X644476Y640471D01*
X623570Y641324D01*
Y646733D01*
X632150D01*
Y652348D01*
X629241D01*
Y658698D01*
X632150D01*
Y664210D01*
X671830D01*
X687373Y679753D01*
X688690D01*
Y681070D01*
X691896Y684276D01*
X693070Y683790D01*
Y682293D01*
X705150D01*
Y687908D01*
X702241D01*
Y694258D01*
X705150D01*
Y694945D01*
X723645D01*
X728980Y689610D01*
D02*
G37*
%LPC*%
G36*
X489712Y505257D02*
X474345D01*
Y502348D01*
X467995D01*
Y505257D01*
X452628D01*
Y493395D01*
X455536D01*
Y487045D01*
X452628D01*
Y475183D01*
X467995D01*
Y478092D01*
X474345D01*
Y475183D01*
X489712D01*
Y487045D01*
X486804D01*
Y493395D01*
X489712D01*
Y505257D01*
D02*
G37*
%LPD*%
D10*
X697230Y502246D02*
Y504190D01*
X679450Y499270D02*
X694254D01*
X697230Y502246D01*
X566928Y576072D02*
X570337Y579481D01*
X562135Y493395D02*
Y517525D01*
X561500Y518160D02*
X562135Y517525D01*
Y493395D02*
X562770Y492760D01*
X571660Y650030D02*
X580550Y641140D01*
Y622300D02*
Y641140D01*
X571660Y650030D02*
Y652780D01*
X655820Y499770D02*
X678950D01*
X679450Y499270D01*
X655320Y500270D02*
X655820Y499770D01*
X633730Y499000D02*
X634365Y499635D01*
X654685D01*
X655320Y500270D01*
X613681Y531799D02*
X614015Y531465D01*
X910260Y576720D02*
X934260D01*
X937260Y573720D01*
X910260Y570220D02*
Y576720D01*
X566928Y569722D02*
X576580Y560070D01*
X578521Y564479D02*
X591391D01*
X566928Y569722D02*
Y576072D01*
X578521Y564479D01*
X910006Y550466D02*
X910260Y550720D01*
X900064Y548274D02*
X902256Y550466D01*
X687797Y763503D02*
X688340Y764046D01*
X902256Y550466D02*
X910006D01*
X608891Y526341D02*
Y541980D01*
X607060Y524510D02*
X608891Y526341D01*
X604652Y527680D02*
Y540520D01*
X688340Y764046D02*
Y783590D01*
X736340Y770630D02*
Y783590D01*
X613681Y531799D02*
Y540520D01*
X534560Y552450D02*
Y567292D01*
X525780Y576072D02*
X534560Y567292D01*
X579039Y569481D02*
X591391D01*
X574040Y574479D02*
X591391D01*
X574040D02*
X579039Y569481D01*
D11*
X621030Y572770D02*
Y579120D01*
X632460Y565150D02*
Y566420D01*
X628221Y565150D02*
X632460D01*
X626110Y572770D02*
X632460Y566420D01*
X621391Y571980D02*
X628221Y565150D01*
X638891Y554479D01*
X741680Y701419D02*
X750990D01*
X740743Y724787D02*
X776754Y688776D01*
Y683746D02*
Y688776D01*
X750990Y701419D02*
X768860Y683549D01*
Y683260D02*
Y683549D01*
X687696Y701419D02*
X741680D01*
X776754Y683746D02*
X777240Y683260D01*
X675894Y607527D02*
Y627008D01*
X675640Y607273D02*
X675894Y607527D01*
X679704Y605949D02*
Y628586D01*
X670442Y632460D02*
X675894Y627008D01*
X679450Y583058D02*
Y605695D01*
X670872Y574479D02*
X679450Y583058D01*
X675640Y584636D02*
Y607273D01*
X679450Y605695D02*
X679704Y605949D01*
X670750Y637540D02*
X679704Y628586D01*
X670124Y579120D02*
X675640Y584636D01*
X679443Y560751D02*
X682573Y563880D01*
X672266Y560751D02*
X679443D01*
X677303Y565671D02*
X684565Y572933D01*
X670606Y564479D02*
X671798Y565671D01*
X661670Y584200D02*
X662940Y585470D01*
X669290D01*
X668804Y604617D02*
X670560Y606373D01*
X668804Y614576D02*
Y614777D01*
X651391Y589481D02*
X661940D01*
X618891Y601980D02*
Y612155D01*
X673683Y555671D02*
X674370D01*
X656208Y601980D02*
X668804Y614576D01*
X659201Y594479D02*
X668804Y604083D01*
X651391Y559481D02*
X670996D01*
X609230Y632460D02*
X670442D01*
X658443Y617474D02*
X659130D01*
X655903Y614934D02*
X658443Y617474D01*
X672491Y554479D02*
X673683Y555671D01*
X613890Y601980D02*
Y619553D01*
X651391Y554479D02*
X672491D01*
X671798Y565671D02*
X677303D01*
X625081Y611991D02*
X640471Y627380D01*
X638891Y541980D02*
Y554479D01*
X653034Y618744D02*
X660400Y626110D01*
X620849Y614113D02*
Y614800D01*
X660374Y584200D02*
X661670D01*
X618891Y612155D02*
X620849Y614113D01*
X651391Y564479D02*
X670606D01*
X663035Y590575D02*
X663722D01*
X668804Y614777D02*
X670560Y616533D01*
X670996Y559481D02*
X672266Y560751D01*
X617220Y622883D02*
Y623570D01*
X670560Y606373D02*
Y607060D01*
X591660Y650030D02*
X609230Y632460D01*
X664210Y618300D02*
X670814Y624904D01*
X682573Y563880D02*
X683260D01*
X638801Y614934D02*
X655903D01*
X613890Y619553D02*
X617220Y622883D01*
X640471Y627380D02*
X652780D01*
X651510Y637540D02*
X670750D01*
X661940Y589481D02*
X663035Y590575D01*
X668804Y604083D02*
Y604617D01*
X670560Y616533D02*
Y617220D01*
X912766Y668320D02*
X913574Y667512D01*
X928370Y627540D02*
X931070Y624840D01*
X633890Y539310D02*
Y541980D01*
X651391Y549481D02*
X651476Y549396D01*
X664991Y538480D02*
X690977D01*
X693323D02*
X705229D01*
X651476Y549396D02*
X654075D01*
X471682Y620363D02*
Y635000D01*
X502311Y595122D02*
X574819D01*
X501130Y603488D02*
X505685Y598932D01*
X476762Y620671D02*
Y643890D01*
X505685Y598932D02*
X584338D01*
X557530Y609220D02*
X561260Y605490D01*
X583168D02*
X586678Y601980D01*
X573241Y591312D02*
X580073Y584479D01*
X591391D01*
X476762Y620671D02*
X502311Y595122D01*
X586678Y601980D02*
X598891D01*
X584338Y598932D02*
X588791Y594479D01*
X471682Y620363D02*
X500733Y591312D01*
X574819Y595122D02*
X580460Y589481D01*
X500733Y591312D02*
X573241D01*
X580460Y589481D02*
X591391D01*
X611667Y675537D02*
X614380D01*
X625081Y611547D02*
Y611991D01*
X623890Y610356D02*
X625081Y611547D01*
X623890Y601980D02*
Y610356D01*
X727185Y735460D02*
X735570D01*
X887570Y720355D02*
X887730Y720195D01*
Y699770D02*
Y720195D01*
X867410Y702056D02*
Y720195D01*
X886946Y577364D02*
Y578634D01*
X873863Y603147D02*
X896620Y580390D01*
X861360Y603147D02*
X873863D01*
X591660Y655530D02*
X611667Y675537D01*
X651391Y579481D02*
X661937D01*
X651391Y584479D02*
X660094D01*
X615039Y684838D02*
X616610Y686410D01*
X661937Y579481D02*
X662298Y579120D01*
X660094Y584479D02*
X660374Y584200D01*
X555774Y695688D02*
X556260Y695202D01*
X548090Y708492D02*
X555774Y700808D01*
Y695688D02*
Y700808D01*
X623890Y534621D02*
X628164Y530347D01*
Y528171D02*
Y530347D01*
Y528171D02*
X628650Y527685D01*
X628891Y610412D02*
X637223Y618744D01*
X664210Y615370D02*
Y618300D01*
X643890Y601980D02*
X656208D01*
X640379Y611124D02*
X659964D01*
X725005Y773595D02*
X725170Y773430D01*
X724840Y783590D02*
X725005Y783425D01*
Y773595D02*
Y783425D01*
X695094Y777759D02*
Y783311D01*
X566420Y547370D02*
X567107D01*
X717995Y744650D02*
X727185Y735460D01*
X535890Y527429D02*
X536390D01*
X550941Y541980D02*
X598891D01*
X536390Y527429D02*
X550941Y541980D01*
X709160Y557910D02*
X716700Y550370D01*
X628941Y534958D02*
Y541930D01*
X633730Y517000D02*
Y530169D01*
X635610Y680517D02*
X635711Y680618D01*
X690301Y509460D02*
X716700Y535859D01*
X622300Y514338D02*
X627178Y509460D01*
X708660Y557910D02*
X709160D01*
X716700Y535859D02*
Y550370D01*
X622300Y514338D02*
Y530823D01*
X627178Y509460D02*
X690301D01*
X618891Y534231D02*
X622300Y530823D01*
X618891Y534231D02*
Y541980D01*
X623890Y534621D02*
Y541980D01*
X680110Y691083D02*
Y693833D01*
X651391Y594479D02*
X659201D01*
X591660Y650030D02*
Y655530D01*
X615039Y676195D02*
Y684838D01*
X633890Y601980D02*
Y610023D01*
X638801Y614934D01*
X638891Y609636D02*
X640379Y611124D01*
X637223Y618744D02*
X653034D01*
X638891Y601980D02*
Y609636D01*
X628891Y601980D02*
Y610412D01*
X554590Y553971D02*
X591391Y554479D01*
X552560Y552450D02*
X554590Y554479D01*
X588791Y594479D02*
X591391D01*
X886946Y577364D02*
X900590Y563720D01*
X886806Y569306D02*
X898892Y557220D01*
X910260D01*
X886460Y579120D02*
X886946Y578634D01*
X651391Y574479D02*
X670872D01*
X614380Y675537D02*
X615039Y676195D01*
X662298Y579120D02*
X670124D01*
X684530Y582749D02*
Y585470D01*
X651391Y569481D02*
X671261D01*
X659964Y611124D02*
X664210Y615370D01*
X671261Y569481D02*
X684530Y582749D01*
X735570Y735460D02*
X740743Y730287D01*
Y724787D02*
Y730287D01*
X714423Y773430D02*
X715257D01*
X710094Y777759D02*
Y783336D01*
X715257Y773430D02*
X719586Y777759D01*
X710094Y777759D02*
X714423Y773430D01*
X719586Y777759D02*
Y783336D01*
X695094Y777759D02*
X707043Y765810D01*
X694827Y783577D02*
X695094Y783311D01*
X707043Y765810D02*
X715010D01*
X654075Y549396D02*
X664991Y538480D01*
X653990Y541980D02*
X676700Y519270D01*
X690977Y538480D02*
X692150Y539653D01*
X643890Y541980D02*
X653990D01*
X676700Y519270D02*
X679450D01*
X692150Y539653D02*
X693323Y538480D01*
X859130Y605377D02*
Y608127D01*
Y605377D02*
X861360Y603147D01*
X900590Y563720D02*
X910260D01*
X864870Y556260D02*
X870687Y562077D01*
X856360Y490220D02*
X858900Y487680D01*
X906500D01*
X705229Y538480D02*
X708660Y541911D01*
X680110Y693833D02*
X687696Y701419D01*
X719586Y783336D02*
X719840Y783590D01*
X709840D02*
X710094Y783336D01*
X915590Y648484D02*
X922804D01*
X914197Y647090D02*
X915590Y648484D01*
X922804D02*
X923290Y648970D01*
X916947Y666090D02*
X928370Y654667D01*
X912766Y668320D02*
Y670270D01*
X913574Y667512D02*
X915525D01*
X910024D02*
X914197D01*
X907266Y670270D02*
Y671830D01*
X914197Y665683D02*
Y667512D01*
X907266Y671830D02*
X913130D01*
X914197Y666090D02*
X916947D01*
X907266Y670270D02*
X910024Y667512D01*
X928370Y627540D02*
Y654667D01*
X635711Y680618D02*
X645058D01*
X714586Y783844D02*
Y790364D01*
X711778Y793171D02*
X714586Y790364D01*
Y783844D02*
X714840Y783590D01*
X705094Y790184D02*
X709930Y795020D01*
X705094Y783844D02*
Y790184D01*
X704840Y783590D02*
X705094Y783844D01*
X820420Y488950D02*
X839091D01*
X840361Y490220D01*
X567690Y699187D02*
Y728580D01*
Y699187D02*
X568960Y697917D01*
Y697230D02*
Y697917D01*
X567107Y547370D02*
X569218Y549481D01*
X591391D01*
X561260Y605490D02*
X583168D01*
X628941Y534958D02*
X633730Y530169D01*
X628891Y541980D02*
X628941Y541930D01*
X633890Y539310D02*
X634951Y538249D01*
X650700Y522000D02*
X651090D01*
X634951Y537748D02*
X650700Y522000D01*
X634951Y537748D02*
Y538249D01*
X651090Y522000D02*
X651510Y521580D01*
Y519540D02*
Y521580D01*
D18*
X680110Y691083D02*
D03*
X699110D02*
D03*
X689610Y716077D02*
D03*
X849630Y583133D02*
D03*
X840130Y608127D02*
D03*
X859130D02*
D03*
X626110Y655523D02*
D03*
X616610Y680517D02*
D03*
X635610D02*
D03*
D19*
X937260Y573720D02*
D03*
Y553720D02*
D03*
D20*
X910260Y576720D02*
D03*
Y570220D02*
D03*
Y563720D02*
D03*
Y557220D02*
D03*
Y550720D02*
D03*
D21*
X591660Y652780D02*
D03*
X571660D02*
D03*
X600550Y622300D02*
D03*
X580550D02*
D03*
X739300Y728980D02*
D03*
X759300D02*
D03*
X561500Y518160D02*
D03*
X581500D02*
D03*
X582770Y492760D02*
D03*
X562770D02*
D03*
X517050Y430530D02*
D03*
X537050D02*
D03*
X517050Y459740D02*
D03*
X537050D02*
D03*
X432910Y462280D02*
D03*
X412910D02*
D03*
X432910Y431800D02*
D03*
X412910D02*
D03*
X928050Y626110D02*
D03*
X908050D02*
D03*
D22*
X557530Y625219D02*
D03*
Y609220D02*
D03*
X777240Y547370D02*
D03*
Y565370D02*
D03*
X708660Y541911D02*
D03*
Y557910D02*
D03*
X655320Y500270D02*
D03*
Y518270D02*
D03*
X741680Y701419D02*
D03*
Y685420D02*
D03*
X535890Y527429D02*
D03*
Y511430D02*
D03*
X633730Y517000D02*
D03*
Y499000D02*
D03*
D23*
X471170Y576072D02*
D03*
Y490220D02*
D03*
D24*
X643890Y601980D02*
D03*
X638891D02*
D03*
X633890D02*
D03*
X628891D02*
D03*
X623890D02*
D03*
X618891D02*
D03*
X613890D02*
D03*
X608891D02*
D03*
X603890D02*
D03*
X598891D02*
D03*
Y541980D02*
D03*
X603890D02*
D03*
X608891D02*
D03*
X613890D02*
D03*
X618891D02*
D03*
X623890D02*
D03*
X628891D02*
D03*
X633890D02*
D03*
X638891D02*
D03*
X643890D02*
D03*
D25*
X591391Y594479D02*
D03*
Y589481D02*
D03*
Y584479D02*
D03*
Y579481D02*
D03*
Y574479D02*
D03*
Y569481D02*
D03*
Y564479D02*
D03*
Y559481D02*
D03*
Y554479D02*
D03*
Y549481D02*
D03*
X651391D02*
D03*
Y554479D02*
D03*
Y559481D02*
D03*
Y564479D02*
D03*
Y569481D02*
D03*
Y574479D02*
D03*
Y579481D02*
D03*
Y584479D02*
D03*
Y589481D02*
D03*
Y594479D02*
D03*
D26*
X621391Y571980D02*
D03*
D27*
X795569Y593811D02*
D03*
X809711Y579669D02*
D03*
D28*
X565040Y468630D02*
D03*
X583040D02*
D03*
X534560Y552450D02*
D03*
X552560D02*
D03*
X856360Y490220D02*
D03*
X840361D02*
D03*
D29*
X680340Y783590D02*
D03*
X736340D02*
D03*
X744340D02*
D03*
X688340D02*
D03*
D30*
X694840D02*
D03*
X699840D02*
D03*
X704840D02*
D03*
X714840D02*
D03*
X709840D02*
D03*
X719840D02*
D03*
X724840D02*
D03*
X729840D02*
D03*
D31*
X867570Y717815D02*
D03*
X887570D02*
D03*
X842570D02*
D03*
X912570D02*
D03*
X547530D02*
D03*
X567530D02*
D03*
X522530D02*
D03*
X592530D02*
D03*
D32*
X749300Y538989D02*
D03*
Y570990D02*
D03*
D33*
X679450Y499270D02*
D03*
Y519270D02*
D03*
D34*
X889203Y656590D02*
D03*
X914197Y666090D02*
D03*
Y647090D02*
D03*
D35*
X623570Y422910D02*
D03*
Y462280D02*
D03*
D54*
X656140Y795090D02*
D03*
X768540D02*
D03*
D55*
X937260Y598720D02*
D03*
Y528720D02*
D03*
D56*
X910260Y588720D02*
D03*
Y538720D02*
D03*
D59*
X768540Y835090D02*
D03*
X656140D02*
D03*
D60*
X952500Y422679D02*
D03*
X906500D02*
D03*
Y487680D02*
D03*
X952500D02*
D03*
D64*
X849630Y583133D02*
X870687Y562077D01*
X471170Y576072D02*
X525780D01*
X566928D01*
X592530Y717815D02*
X597991D01*
X616610Y699196D01*
X687797Y717890D02*
Y763503D01*
Y717890D02*
X688340Y717347D01*
X887514Y545249D02*
X887514D01*
X870687Y562077D02*
X887514Y545249D01*
X624840Y471170D02*
X696449D01*
X607060Y508000D02*
Y524510D01*
Y488950D02*
Y508000D01*
X696449Y471170D02*
X749300Y524021D01*
X607060Y488950D02*
X624840Y471170D01*
X749300Y524021D02*
Y538989D01*
X717995Y744650D02*
X739140Y763067D01*
X688340Y718820D02*
X717995Y744650D01*
X913130Y671830D02*
Y715010D01*
X616610Y686410D02*
Y699196D01*
D65*
X557450Y609300D02*
X557530Y609220D01*
X534970Y609300D02*
X557450D01*
X534670Y609600D02*
X534970Y609300D01*
X886460Y541020D02*
X893012Y548547D01*
X900064Y549036D01*
D66*
X602375Y617725D02*
X606684Y613416D01*
Y610365D02*
X607113Y609936D01*
Y601980D02*
Y609936D01*
X606684Y610365D02*
Y613416D01*
X600550Y622300D02*
X602375Y620475D01*
Y617725D02*
Y620475D01*
D67*
X582770Y492760D02*
X591820D01*
X586740Y468630D02*
X607060Y488950D01*
X581500Y518160D02*
X596900D01*
X591820Y492760D02*
X607060Y508000D01*
X583040Y468630D02*
X586740D01*
D68*
X578439Y559481D02*
X589423D01*
X576580Y561340D02*
X578439Y559481D01*
D69*
X570337Y577957D02*
X591391D01*
D70*
X656140Y791153D02*
D03*
Y799027D02*
D03*
X768540Y791153D02*
D03*
Y799027D02*
D03*
X768540Y829121D02*
D03*
Y841059D02*
D03*
X656140Y829121D02*
D03*
Y841059D02*
D03*
D71*
X940689Y598720D02*
D03*
X933831D02*
D03*
X940689Y528720D02*
D03*
X933831D02*
D03*
D72*
X421640Y829310D02*
D03*
D73*
X572276Y421112D02*
D03*
X571500Y421640D02*
D03*
X756920Y424180D02*
D03*
D74*
X811870Y753815D02*
D03*
X943270D02*
D03*
X491830D02*
D03*
X623230D02*
D03*
D75*
X477520Y421640D02*
D03*
X840740Y422910D02*
D03*
D76*
X621030Y579120D02*
D03*
X614680Y567690D02*
D03*
X632460Y565150D02*
D03*
X610870Y590550D02*
D03*
X444500Y683260D02*
D03*
X697230Y504190D02*
D03*
X777240Y683260D02*
D03*
X768860D02*
D03*
X684530Y585470D02*
D03*
X620849Y614800D02*
D03*
X659130Y617474D02*
D03*
X601980Y576580D02*
D03*
X617220Y623570D02*
D03*
X670814Y624904D02*
D03*
X683260Y563880D02*
D03*
X674370Y555671D02*
D03*
X606684Y610365D02*
D03*
X660400Y626110D02*
D03*
X663722Y590575D02*
D03*
X651510Y637540D02*
D03*
X621030Y554990D02*
D03*
X652780Y627380D02*
D03*
X670560Y617220D02*
D03*
Y607060D02*
D03*
X684565Y572933D02*
D03*
X669290Y585470D02*
D03*
X601980Y556260D02*
D03*
X501130Y603488D02*
D03*
X471682Y635000D02*
D03*
X476762Y643890D02*
D03*
X887730Y699770D02*
D03*
X867410Y702056D02*
D03*
X886460Y579120D02*
D03*
X896620Y580390D02*
D03*
X556260Y695202D02*
D03*
X628650Y527685D02*
D03*
X725170Y773430D02*
D03*
X715010Y765810D02*
D03*
X467360Y689610D02*
D03*
X614015Y531465D02*
D03*
X566420Y547370D02*
D03*
X886806Y569306D02*
D03*
X715010Y773430D02*
D03*
X886460Y541020D02*
D03*
X665345Y530625D02*
D03*
X692150Y538480D02*
D03*
X923290Y648970D02*
D03*
X913130Y671830D02*
D03*
X645058Y680618D02*
D03*
X709930Y795020D02*
D03*
X820420Y488950D02*
D03*
X568960Y697230D02*
D03*
D77*
X534670Y627380D02*
D03*
Y609600D02*
D03*
D78*
X933831Y598720D02*
X940689D01*
X933831Y528720D02*
X940689D01*
D79*
X768540Y791153D02*
Y799027D01*
X656140Y791153D02*
Y799027D01*
X768540Y829121D02*
Y841059D01*
X656140Y829121D02*
Y841059D01*
M02*
