G04*
G04 #@! TF.GenerationSoftware,Altium Limited,Altium Designer,24.3.1 (35)*
G04*
G04 Layer_Color=65535*
%FSLAX44Y44*%
%MOMM*%
G71*
G04*
G04 #@! TF.SameCoordinates,1B42CCB5-0E70-4529-B8D2-504AEFABFE78*
G04*
G04*
G04 #@! TF.FilePolarity,Positive*
G04*
G01*
G75*
%ADD10C,0.5080*%
%ADD11C,0.2540*%
%ADD12C,0.3000*%
%ADD13C,0.1524*%
%ADD14C,0.2000*%
%ADD15C,0.1000*%
%ADD16C,0.1007*%
%ADD17C,0.2032*%
G36*
X603250Y430530D02*
X618490D01*
Y419100D01*
X613410D01*
X603250Y429260D01*
Y430530D01*
D02*
G37*
G36*
X643890D02*
X628650D01*
Y419100D01*
X633730D01*
X643890Y429260D01*
Y430530D01*
D02*
G37*
G36*
X738661Y658950D02*
X739598D01*
Y658716D01*
X740301D01*
Y658482D01*
X740769D01*
Y658248D01*
X741238D01*
Y658013D01*
X741472D01*
Y657779D01*
X741706D01*
Y657545D01*
X741941D01*
Y657310D01*
X742175D01*
Y657076D01*
X742409D01*
Y656608D01*
X742644D01*
Y656373D01*
X742878D01*
Y655905D01*
X743112D01*
Y655436D01*
X743346D01*
Y655202D01*
X743581D01*
Y654733D01*
X743815D01*
Y654265D01*
X744049D01*
Y653796D01*
X744284D01*
Y653327D01*
X744518D01*
Y653093D01*
X744752D01*
Y652625D01*
X744986D01*
Y652156D01*
X745221D01*
Y651922D01*
X745455D01*
Y651453D01*
X745689D01*
Y650984D01*
X745924D01*
Y650516D01*
X746158D01*
Y650282D01*
X746392D01*
Y649813D01*
X746626D01*
Y649344D01*
X746861D01*
Y648876D01*
X747095D01*
Y648642D01*
X747329D01*
Y648173D01*
X747564D01*
Y647704D01*
X747798D01*
Y647470D01*
X748032D01*
Y647001D01*
X748267D01*
Y646533D01*
X748501D01*
Y646064D01*
X748735D01*
Y645830D01*
X748969D01*
Y645361D01*
X749204D01*
Y644893D01*
X749438D01*
Y644424D01*
X749672D01*
Y644190D01*
X749907D01*
Y643721D01*
X750141D01*
Y643253D01*
X750375D01*
Y643018D01*
X750609D01*
Y642550D01*
X750844D01*
Y642081D01*
X751078D01*
Y641613D01*
X751312D01*
Y641378D01*
X751547D01*
Y640910D01*
X751781D01*
Y640441D01*
X752015D01*
Y639973D01*
X752250D01*
Y639738D01*
X752484D01*
Y639270D01*
X752718D01*
Y638801D01*
X752952D01*
Y638333D01*
X753187D01*
Y638098D01*
X753421D01*
Y637630D01*
X753655D01*
Y637161D01*
X753889D01*
Y636693D01*
X754124D01*
Y636458D01*
X754358D01*
Y635990D01*
X754592D01*
Y635521D01*
X754827D01*
Y635287D01*
X755061D01*
Y634818D01*
X755295D01*
Y634350D01*
X755530D01*
Y633881D01*
X755764D01*
Y633647D01*
X755998D01*
Y633178D01*
X756233D01*
Y632710D01*
X756467D01*
Y632475D01*
X756701D01*
Y632007D01*
X756935D01*
Y631538D01*
X757170D01*
Y631070D01*
X757404D01*
Y630835D01*
X757638D01*
Y630367D01*
X757872D01*
Y629898D01*
X758107D01*
Y629430D01*
X758341D01*
Y629195D01*
X758575D01*
Y628727D01*
X758810D01*
Y628258D01*
X759044D01*
Y628024D01*
X759278D01*
Y627555D01*
X759513D01*
Y627087D01*
X759747D01*
Y626618D01*
X759981D01*
Y626149D01*
X760215D01*
Y625915D01*
X760450D01*
Y625447D01*
X760684D01*
Y624978D01*
X760918D01*
Y624744D01*
X761153D01*
Y624275D01*
X761387D01*
Y623806D01*
X761621D01*
Y623338D01*
X761855D01*
Y623104D01*
X762090D01*
Y622635D01*
X762324D01*
Y622166D01*
X762558D01*
Y621932D01*
X762793D01*
Y621464D01*
X763027D01*
Y620995D01*
X763261D01*
Y620526D01*
X763496D01*
Y620058D01*
X763730D01*
Y619823D01*
X763964D01*
Y619355D01*
X764198D01*
Y618886D01*
X764433D01*
Y618652D01*
X764667D01*
Y618183D01*
X764901D01*
Y617715D01*
X765136D01*
Y617481D01*
X765370D01*
Y617012D01*
X765604D01*
Y616543D01*
X765838D01*
Y616075D01*
X766073D01*
Y615840D01*
X766307D01*
Y615372D01*
X766541D01*
Y614903D01*
X766776D01*
Y614435D01*
X767010D01*
Y613966D01*
X767244D01*
Y613732D01*
X767478D01*
Y613263D01*
X767713D01*
Y612795D01*
X767947D01*
Y612560D01*
X768181D01*
Y612092D01*
X768416D01*
Y611623D01*
X768650D01*
Y611389D01*
X768884D01*
Y610686D01*
X769119D01*
Y610452D01*
X769353D01*
Y609983D01*
X769587D01*
Y609515D01*
X769821D01*
Y609280D01*
X770056D01*
Y608812D01*
X770290D01*
Y608343D01*
X770524D01*
Y608109D01*
X770759D01*
Y607640D01*
X770993D01*
Y607172D01*
X771227D01*
Y606703D01*
X771461D01*
Y606469D01*
X771696D01*
Y606000D01*
X771930D01*
Y605532D01*
X772164D01*
Y605063D01*
X772399D01*
Y604829D01*
X772633D01*
Y604360D01*
X772867D01*
Y603892D01*
X773102D01*
Y603423D01*
X773336D01*
Y603189D01*
X773570D01*
Y602720D01*
X773804D01*
Y602252D01*
X774039D01*
Y602017D01*
X774273D01*
Y601314D01*
X774507D01*
Y600846D01*
X774742D01*
Y599909D01*
X774976D01*
Y598503D01*
X774742D01*
Y597331D01*
X774507D01*
Y596863D01*
X774273D01*
Y596394D01*
X774039D01*
Y595926D01*
X773804D01*
Y595691D01*
X773570D01*
Y595457D01*
X773336D01*
Y595223D01*
X773102D01*
Y594988D01*
X772867D01*
Y594754D01*
X772633D01*
Y594520D01*
X772164D01*
Y594286D01*
X771696D01*
Y594051D01*
X771227D01*
Y593817D01*
X770290D01*
Y593583D01*
X705625D01*
Y593817D01*
X704688D01*
Y594051D01*
X704219D01*
Y594286D01*
X703751D01*
Y594520D01*
X703282D01*
Y594754D01*
X703048D01*
Y594988D01*
X702814D01*
Y595223D01*
X702579D01*
Y595457D01*
X702345D01*
Y595691D01*
X702111D01*
Y595926D01*
X701877D01*
Y596394D01*
X701642D01*
Y596863D01*
X701408D01*
Y597566D01*
X701174D01*
Y598503D01*
X700939D01*
Y599909D01*
X701174D01*
Y600846D01*
X701408D01*
Y601314D01*
X701642D01*
Y601783D01*
X701877D01*
Y602252D01*
X702111D01*
Y602720D01*
X702345D01*
Y603189D01*
X702579D01*
Y603423D01*
X702814D01*
Y603892D01*
X703048D01*
Y604360D01*
X703282D01*
Y604594D01*
X703516D01*
Y605063D01*
X703751D01*
Y605532D01*
X703985D01*
Y606000D01*
X704219D01*
Y606235D01*
X704454D01*
Y606703D01*
X704688D01*
Y607172D01*
X704922D01*
Y607640D01*
X705157D01*
Y607874D01*
X705391D01*
Y608343D01*
X705625D01*
Y608812D01*
X705859D01*
Y609280D01*
X706094D01*
Y609515D01*
X706328D01*
Y609983D01*
X706562D01*
Y610452D01*
X706797D01*
Y610686D01*
X707031D01*
Y611155D01*
X707265D01*
Y611623D01*
X707499D01*
Y612092D01*
X707734D01*
Y612326D01*
X707968D01*
Y612795D01*
X708202D01*
Y613263D01*
X708437D01*
Y613732D01*
X708671D01*
Y613966D01*
X708905D01*
Y614435D01*
X709140D01*
Y614903D01*
X709374D01*
Y615138D01*
X709608D01*
Y615606D01*
X709842D01*
Y616075D01*
X710077D01*
Y616543D01*
X710311D01*
Y616778D01*
X710545D01*
Y617246D01*
X710780D01*
Y617715D01*
X711014D01*
Y618183D01*
X711248D01*
Y618652D01*
X711482D01*
Y618886D01*
X711717D01*
Y619355D01*
X711951D01*
Y619589D01*
X712185D01*
Y620058D01*
X712420D01*
Y620526D01*
X712654D01*
Y620995D01*
X712888D01*
Y621229D01*
X713122D01*
Y621698D01*
X713357D01*
Y622166D01*
X713591D01*
Y622635D01*
X713825D01*
Y623104D01*
X714060D01*
Y623338D01*
X714294D01*
Y623806D01*
X714528D01*
Y624275D01*
X714763D01*
Y624509D01*
X714997D01*
Y624978D01*
X715231D01*
Y625447D01*
X715465D01*
Y625915D01*
X715700D01*
Y626149D01*
X715934D01*
Y626618D01*
X716168D01*
Y627087D01*
X716403D01*
Y627321D01*
X716637D01*
Y627789D01*
X716871D01*
Y628258D01*
X717105D01*
Y628727D01*
X717340D01*
Y628961D01*
X717574D01*
Y629430D01*
X717808D01*
Y629898D01*
X718043D01*
Y630367D01*
X718277D01*
Y630601D01*
X718511D01*
Y631070D01*
X718746D01*
Y631538D01*
X718980D01*
Y632007D01*
X719214D01*
Y632241D01*
X719448D01*
Y632710D01*
X719683D01*
Y633178D01*
X719917D01*
Y633413D01*
X720151D01*
Y633881D01*
X720386D01*
Y634350D01*
X720620D01*
Y634818D01*
X720854D01*
Y635052D01*
X721088D01*
Y635521D01*
X721323D01*
Y635990D01*
X721557D01*
Y636458D01*
X721791D01*
Y636693D01*
X722026D01*
Y637161D01*
X722260D01*
Y637630D01*
X722494D01*
Y637864D01*
X722729D01*
Y638333D01*
X722963D01*
Y638801D01*
X723197D01*
Y639270D01*
X723431D01*
Y639738D01*
X723666D01*
Y639973D01*
X723900D01*
Y640441D01*
X724134D01*
Y640910D01*
X724369D01*
Y641144D01*
X724603D01*
Y641613D01*
X724837D01*
Y642081D01*
X725071D01*
Y642550D01*
X725306D01*
Y642784D01*
X725540D01*
Y643253D01*
X725774D01*
Y643721D01*
X726009D01*
Y643956D01*
X726243D01*
Y644424D01*
X726477D01*
Y644893D01*
X726712D01*
Y645361D01*
X726946D01*
Y645830D01*
X727180D01*
Y646064D01*
X727414D01*
Y646533D01*
X727649D01*
Y647001D01*
X727883D01*
Y647236D01*
X728117D01*
Y647704D01*
X728352D01*
Y648173D01*
X728586D01*
Y648642D01*
X728820D01*
Y648876D01*
X729054D01*
Y649344D01*
X729289D01*
Y649813D01*
X729523D01*
Y650282D01*
X729757D01*
Y650516D01*
X729992D01*
Y650984D01*
X730226D01*
Y651453D01*
X730460D01*
Y651922D01*
X730695D01*
Y652156D01*
X730929D01*
Y652625D01*
X731163D01*
Y653093D01*
X731397D01*
Y653327D01*
X731632D01*
Y653796D01*
X731866D01*
Y654265D01*
X732100D01*
Y654499D01*
X732335D01*
Y654967D01*
X732569D01*
Y655436D01*
X732803D01*
Y655905D01*
X733037D01*
Y656373D01*
X733272D01*
Y656608D01*
X733506D01*
Y657076D01*
X733740D01*
Y657310D01*
X733975D01*
Y657545D01*
X734209D01*
Y657779D01*
X734443D01*
Y658013D01*
X734912D01*
Y658248D01*
X735146D01*
Y658482D01*
X735615D01*
Y658716D01*
X736318D01*
Y658950D01*
X737255D01*
Y659185D01*
X738661D01*
Y658950D01*
D02*
G37*
%LPC*%
G36*
Y654733D02*
X737489D01*
Y654499D01*
X737020D01*
Y654030D01*
X736786D01*
Y653796D01*
X736552D01*
Y653327D01*
X736318D01*
Y652859D01*
X736083D01*
Y652390D01*
X735849D01*
Y652156D01*
X735615D01*
Y651687D01*
X735380D01*
Y651219D01*
X735146D01*
Y650750D01*
X734912D01*
Y650516D01*
X734678D01*
Y650047D01*
X734443D01*
Y649579D01*
X734209D01*
Y649344D01*
X733975D01*
Y648876D01*
X733740D01*
Y648407D01*
X733506D01*
Y647939D01*
X733272D01*
Y647470D01*
X733037D01*
Y647236D01*
X732803D01*
Y646767D01*
X732569D01*
Y646299D01*
X732335D01*
Y646064D01*
X732100D01*
Y645596D01*
X731866D01*
Y645127D01*
X731632D01*
Y644659D01*
X731397D01*
Y644424D01*
X731163D01*
Y643956D01*
X730929D01*
Y643487D01*
X730695D01*
Y643018D01*
X730460D01*
Y642784D01*
X730226D01*
Y642316D01*
X729992D01*
Y641847D01*
X729757D01*
Y641613D01*
X729523D01*
Y641144D01*
X729289D01*
Y640676D01*
X729054D01*
Y640207D01*
X728820D01*
Y639973D01*
X728586D01*
Y639504D01*
X728352D01*
Y639035D01*
X728117D01*
Y638567D01*
X727883D01*
Y638333D01*
X727649D01*
Y637864D01*
X727414D01*
Y637396D01*
X727180D01*
Y636927D01*
X726946D01*
Y636693D01*
X726712D01*
Y636224D01*
X726477D01*
Y635755D01*
X726243D01*
Y635287D01*
X726009D01*
Y635052D01*
X725774D01*
Y634584D01*
X725540D01*
Y634115D01*
X725306D01*
Y633881D01*
X725071D01*
Y633413D01*
X724837D01*
Y632944D01*
X724603D01*
Y632710D01*
X724369D01*
Y632241D01*
X724134D01*
Y631772D01*
X723900D01*
Y631304D01*
X723666D01*
Y630835D01*
X723431D01*
Y630601D01*
X723197D01*
Y630132D01*
X722963D01*
Y629664D01*
X722729D01*
Y629195D01*
X722494D01*
Y628961D01*
X722260D01*
Y628492D01*
X722026D01*
Y628024D01*
X721791D01*
Y627789D01*
X721557D01*
Y627321D01*
X721323D01*
Y626852D01*
X721088D01*
Y626384D01*
X720854D01*
Y626149D01*
X720620D01*
Y625681D01*
X720386D01*
Y625212D01*
X720151D01*
Y624744D01*
X719917D01*
Y624509D01*
X719683D01*
Y624041D01*
X719448D01*
Y623572D01*
X719214D01*
Y623338D01*
X718980D01*
Y622869D01*
X718746D01*
Y622401D01*
X718511D01*
Y621932D01*
X718277D01*
Y621698D01*
X718043D01*
Y621229D01*
X717808D01*
Y620761D01*
X717574D01*
Y620292D01*
X717340D01*
Y620058D01*
X717105D01*
Y619589D01*
X716871D01*
Y619121D01*
X716637D01*
Y618652D01*
X716403D01*
Y618418D01*
X716168D01*
Y617949D01*
X715934D01*
Y617481D01*
X715700D01*
Y617246D01*
X715465D01*
Y616778D01*
X715231D01*
Y616309D01*
X714997D01*
Y615840D01*
X714763D01*
Y615606D01*
X714528D01*
Y615138D01*
X714294D01*
Y614669D01*
X714060D01*
Y614200D01*
X713825D01*
Y613966D01*
X713591D01*
Y613498D01*
X713357D01*
Y613029D01*
X713122D01*
Y612795D01*
X712888D01*
Y612326D01*
X712654D01*
Y611857D01*
X712420D01*
Y611389D01*
X712185D01*
Y610920D01*
X711951D01*
Y610686D01*
X711717D01*
Y610218D01*
X711482D01*
Y609749D01*
X711248D01*
Y609280D01*
X711014D01*
Y609046D01*
X710780D01*
Y608577D01*
X710545D01*
Y608109D01*
X710311D01*
Y607874D01*
X710077D01*
Y607406D01*
X709842D01*
Y606937D01*
X709608D01*
Y606703D01*
X709374D01*
Y606235D01*
X709140D01*
Y605766D01*
X708905D01*
Y605297D01*
X708671D01*
Y604829D01*
X708437D01*
Y604594D01*
X708202D01*
Y604126D01*
X707968D01*
Y603657D01*
X707734D01*
Y603423D01*
X707499D01*
Y602954D01*
X707265D01*
Y602486D01*
X707031D01*
Y602017D01*
X706797D01*
Y601783D01*
X706562D01*
Y601314D01*
X706328D01*
Y600846D01*
X706094D01*
Y600611D01*
X705859D01*
Y600143D01*
X705625D01*
Y599674D01*
X705391D01*
Y598503D01*
X705625D01*
Y598269D01*
X705859D01*
Y598034D01*
X770056D01*
Y598269D01*
X770290D01*
Y598503D01*
X770524D01*
Y599674D01*
X770290D01*
Y600143D01*
X770056D01*
Y600611D01*
X769821D01*
Y600846D01*
X769587D01*
Y601314D01*
X769353D01*
Y601783D01*
X769119D01*
Y602252D01*
X768884D01*
Y602486D01*
X768650D01*
Y602954D01*
X768416D01*
Y603423D01*
X768181D01*
Y603657D01*
X767947D01*
Y604126D01*
X767713D01*
Y604594D01*
X767478D01*
Y605063D01*
X767244D01*
Y605532D01*
X767010D01*
Y605766D01*
X766776D01*
Y606235D01*
X766541D01*
Y606703D01*
X766307D01*
Y606937D01*
X766073D01*
Y607406D01*
X765838D01*
Y607874D01*
X765604D01*
Y608343D01*
X765370D01*
Y608577D01*
X765136D01*
Y609046D01*
X764901D01*
Y609515D01*
X764667D01*
Y609983D01*
X764433D01*
Y610218D01*
X764198D01*
Y610686D01*
X763964D01*
Y611155D01*
X763730D01*
Y611623D01*
X763496D01*
Y611857D01*
X763261D01*
Y612326D01*
X763027D01*
Y612795D01*
X762793D01*
Y613263D01*
X762558D01*
Y613498D01*
X762324D01*
Y613966D01*
X762090D01*
Y614435D01*
X761855D01*
Y614669D01*
X761621D01*
Y615138D01*
X761387D01*
Y615606D01*
X761153D01*
Y616075D01*
X760918D01*
Y616309D01*
X760684D01*
Y616778D01*
X760450D01*
Y617246D01*
X760215D01*
Y617481D01*
X759981D01*
Y617949D01*
X759747D01*
Y618418D01*
X759513D01*
Y618886D01*
X759278D01*
Y619121D01*
X759044D01*
Y619589D01*
X758810D01*
Y620058D01*
X758575D01*
Y620292D01*
X758341D01*
Y620761D01*
X758107D01*
Y621229D01*
X757872D01*
Y621698D01*
X757638D01*
Y622166D01*
X757404D01*
Y622401D01*
X757170D01*
Y622869D01*
X756935D01*
Y623338D01*
X756701D01*
Y623572D01*
X756467D01*
Y624041D01*
X756233D01*
Y624509D01*
X755998D01*
Y624978D01*
X755764D01*
Y625212D01*
X755530D01*
Y625681D01*
X755295D01*
Y626149D01*
X755061D01*
Y626618D01*
X754827D01*
Y626852D01*
X754592D01*
Y627321D01*
X754358D01*
Y627789D01*
X754124D01*
Y628024D01*
X753889D01*
Y628492D01*
X753655D01*
Y628961D01*
X753421D01*
Y629430D01*
X753187D01*
Y629898D01*
X752952D01*
Y630132D01*
X752718D01*
Y630601D01*
X752484D01*
Y631070D01*
X752250D01*
Y631538D01*
X752015D01*
Y631772D01*
X751781D01*
Y632241D01*
X751547D01*
Y632710D01*
X751312D01*
Y632944D01*
X751078D01*
Y633413D01*
X750844D01*
Y633881D01*
X750609D01*
Y634115D01*
X750375D01*
Y634584D01*
X750141D01*
Y635052D01*
X749907D01*
Y635521D01*
X749672D01*
Y635755D01*
X749438D01*
Y636224D01*
X749204D01*
Y636693D01*
X748969D01*
Y637161D01*
X748735D01*
Y637396D01*
X748501D01*
Y637864D01*
X748267D01*
Y638333D01*
X748032D01*
Y638801D01*
X747798D01*
Y639035D01*
X747564D01*
Y639504D01*
X747329D01*
Y639973D01*
X747095D01*
Y640207D01*
X746861D01*
Y640676D01*
X746626D01*
Y641144D01*
X746392D01*
Y641613D01*
X746158D01*
Y642081D01*
X745924D01*
Y642316D01*
X745689D01*
Y642784D01*
X745455D01*
Y643018D01*
X745221D01*
Y643487D01*
X744986D01*
Y643956D01*
X744752D01*
Y644424D01*
X744518D01*
Y644893D01*
X744284D01*
Y645127D01*
X744049D01*
Y645596D01*
X743815D01*
Y646064D01*
X743581D01*
Y646299D01*
X743346D01*
Y646767D01*
X743112D01*
Y647236D01*
X742878D01*
Y647704D01*
X742644D01*
Y647939D01*
X742409D01*
Y648407D01*
X742175D01*
Y648876D01*
X741941D01*
Y649344D01*
X741706D01*
Y649579D01*
X741472D01*
Y650047D01*
X741238D01*
Y650516D01*
X741003D01*
Y650984D01*
X740769D01*
Y651219D01*
X740535D01*
Y651687D01*
X740301D01*
Y652156D01*
X740066D01*
Y652625D01*
X739832D01*
Y652859D01*
X739598D01*
Y653327D01*
X739363D01*
Y653796D01*
X739129D01*
Y654030D01*
X738895D01*
Y654499D01*
X738661D01*
Y654733D01*
D02*
G37*
%LPD*%
G36*
X737958Y644190D02*
X738192D01*
Y643487D01*
X738426D01*
Y642784D01*
X738661D01*
Y642081D01*
X738895D01*
Y641613D01*
X739129D01*
Y641144D01*
X739363D01*
Y640441D01*
X739598D01*
Y639973D01*
X739832D01*
Y639504D01*
X740066D01*
Y638801D01*
X740301D01*
Y637864D01*
X740535D01*
Y635521D01*
X740769D01*
Y635755D01*
X741003D01*
Y635990D01*
X741238D01*
Y636224D01*
X741472D01*
Y636693D01*
X741706D01*
Y636927D01*
X741941D01*
Y637396D01*
X742175D01*
Y637864D01*
X742409D01*
Y638801D01*
X742644D01*
Y639270D01*
X742878D01*
Y639035D01*
X743112D01*
Y638333D01*
X743346D01*
Y636927D01*
X743581D01*
Y633413D01*
X744284D01*
Y633647D01*
X744752D01*
Y633881D01*
X744986D01*
Y634115D01*
X745221D01*
Y634350D01*
X745455D01*
Y634818D01*
X745689D01*
Y635052D01*
X745924D01*
Y635521D01*
X746158D01*
Y632007D01*
X745924D01*
Y631070D01*
X745689D01*
Y630601D01*
X745455D01*
Y629430D01*
X746392D01*
Y629664D01*
X746626D01*
Y629898D01*
X746861D01*
Y630132D01*
X747329D01*
Y628961D01*
X747095D01*
Y628024D01*
X746861D01*
Y627321D01*
X746626D01*
Y626384D01*
X746392D01*
Y625915D01*
X746158D01*
Y625447D01*
X745924D01*
Y625212D01*
X745689D01*
Y624744D01*
X745455D01*
Y624509D01*
X745221D01*
Y624275D01*
X744986D01*
Y624041D01*
X744752D01*
Y623806D01*
X744284D01*
Y623572D01*
X744049D01*
Y623338D01*
X743581D01*
Y623104D01*
X742878D01*
Y622869D01*
X742409D01*
Y622635D01*
X741706D01*
Y622401D01*
X740535D01*
Y622635D01*
X740769D01*
Y622869D01*
X741003D01*
Y623104D01*
X741238D01*
Y623338D01*
X741472D01*
Y623572D01*
X741941D01*
Y623806D01*
X742175D01*
Y624041D01*
X742409D01*
Y624275D01*
X742644D01*
Y624744D01*
X742878D01*
Y624978D01*
X743112D01*
Y625447D01*
X743346D01*
Y625681D01*
X743581D01*
Y626149D01*
X743815D01*
Y626384D01*
X743346D01*
Y626149D01*
X742409D01*
Y625915D01*
X741706D01*
Y626384D01*
X741941D01*
Y626852D01*
X742175D01*
Y627555D01*
X742409D01*
Y628727D01*
X742644D01*
Y629664D01*
X742175D01*
Y629430D01*
X741941D01*
Y629195D01*
X741472D01*
Y628961D01*
X741238D01*
Y628727D01*
X741003D01*
Y628492D01*
X740769D01*
Y628258D01*
X740535D01*
Y628024D01*
X740301D01*
Y628492D01*
X740066D01*
Y630367D01*
X739832D01*
Y631538D01*
X739598D01*
Y632007D01*
X739363D01*
Y632475D01*
X739129D01*
Y632944D01*
X738895D01*
Y633178D01*
X738661D01*
Y633413D01*
X738426D01*
Y633647D01*
X738192D01*
Y633881D01*
X737958D01*
Y632944D01*
X737723D01*
Y631304D01*
X737489D01*
Y630367D01*
X737255D01*
Y629195D01*
X737020D01*
Y628024D01*
X736552D01*
Y628258D01*
X736318D01*
Y628492D01*
X736083D01*
Y628727D01*
X735849D01*
Y628961D01*
X735615D01*
Y629195D01*
X735380D01*
Y629430D01*
X735146D01*
Y629664D01*
X734678D01*
Y629898D01*
X734443D01*
Y628258D01*
X734678D01*
Y627555D01*
X734912D01*
Y627321D01*
X735146D01*
Y626852D01*
X735380D01*
Y626618D01*
X735615D01*
Y625915D01*
X734912D01*
Y626149D01*
X734209D01*
Y626384D01*
X733740D01*
Y626618D01*
X733272D01*
Y625681D01*
X733506D01*
Y625212D01*
X733740D01*
Y624978D01*
X733975D01*
Y624509D01*
X734209D01*
Y624275D01*
X734443D01*
Y624041D01*
X734678D01*
Y623806D01*
X734912D01*
Y623572D01*
X735146D01*
Y623104D01*
X735380D01*
Y622869D01*
X734678D01*
Y623104D01*
X733506D01*
Y623338D01*
X732803D01*
Y623572D01*
X732335D01*
Y623806D01*
X731866D01*
Y624041D01*
X731632D01*
Y624275D01*
X731397D01*
Y624509D01*
X731163D01*
Y624744D01*
X730929D01*
Y624978D01*
X730695D01*
Y625212D01*
X730460D01*
Y625681D01*
X730226D01*
Y626149D01*
X729992D01*
Y626852D01*
X729757D01*
Y627555D01*
X729523D01*
Y628258D01*
X729289D01*
Y629195D01*
X729054D01*
Y629898D01*
X728820D01*
Y630601D01*
X728586D01*
Y631538D01*
X728352D01*
Y631772D01*
X728820D01*
Y631538D01*
X729054D01*
Y631304D01*
X729289D01*
Y631070D01*
X729523D01*
Y630835D01*
X729992D01*
Y630601D01*
X730226D01*
Y630367D01*
X730695D01*
Y630132D01*
X731163D01*
Y629898D01*
X731397D01*
Y630132D01*
X731632D01*
Y631070D01*
X731397D01*
Y632007D01*
X731163D01*
Y633647D01*
X730929D01*
Y636693D01*
X731163D01*
Y636458D01*
X731397D01*
Y636224D01*
X731632D01*
Y635990D01*
Y635755D01*
X731866D01*
Y635521D01*
X732100D01*
Y635287D01*
X732335D01*
Y635052D01*
X732569D01*
Y634818D01*
X732803D01*
Y634584D01*
X733272D01*
Y635287D01*
X733506D01*
Y639738D01*
X733740D01*
Y640441D01*
X733975D01*
Y639504D01*
X734209D01*
Y638801D01*
X734443D01*
Y638567D01*
X734678D01*
Y638098D01*
X734912D01*
Y637864D01*
X735146D01*
Y637630D01*
X735380D01*
Y637396D01*
X735615D01*
Y637161D01*
X735849D01*
Y636927D01*
X736552D01*
Y637396D01*
X736786D01*
Y638567D01*
X737020D01*
Y642081D01*
X737255D01*
Y643487D01*
X737489D01*
Y644659D01*
X737723D01*
Y644893D01*
X737958D01*
Y644190D01*
D02*
G37*
G36*
X753421Y620761D02*
X754124D01*
Y620526D01*
X754358D01*
Y620292D01*
X754592D01*
Y620058D01*
X754827D01*
Y619823D01*
X755061D01*
Y619355D01*
X755295D01*
Y618886D01*
X755530D01*
Y618418D01*
X755764D01*
Y617481D01*
X755998D01*
Y616778D01*
X756233D01*
Y615372D01*
X756467D01*
Y613498D01*
X756701D01*
Y609046D01*
X756467D01*
Y607172D01*
X756233D01*
Y605766D01*
X755998D01*
Y604829D01*
X755764D01*
Y604126D01*
X755530D01*
Y603657D01*
X755295D01*
Y603189D01*
X755061D01*
Y602720D01*
X754827D01*
Y602486D01*
X754592D01*
Y602017D01*
X754124D01*
Y601783D01*
X753655D01*
Y601549D01*
X722260D01*
Y601783D01*
X721791D01*
Y602017D01*
X721557D01*
Y602252D01*
X721323D01*
Y602486D01*
X721088D01*
Y602720D01*
X720854D01*
Y603189D01*
X720620D01*
Y603657D01*
X720386D01*
Y604126D01*
X720151D01*
Y605063D01*
X719917D01*
Y605766D01*
X719683D01*
Y607172D01*
X719448D01*
Y609280D01*
X719214D01*
Y613263D01*
X719448D01*
Y615138D01*
X719683D01*
Y616778D01*
X719917D01*
Y617481D01*
X720151D01*
Y618183D01*
X720386D01*
Y618886D01*
X720620D01*
Y619355D01*
X720854D01*
Y619589D01*
X721088D01*
Y620058D01*
X721323D01*
Y620292D01*
X721557D01*
Y620526D01*
X722026D01*
Y620761D01*
X722494D01*
Y620995D01*
X737723D01*
Y620761D01*
X738192D01*
Y620292D01*
X738426D01*
Y619823D01*
X738661D01*
Y619355D01*
X738895D01*
Y618886D01*
X738192D01*
Y618652D01*
X737255D01*
Y618418D01*
X737020D01*
Y618183D01*
X736786D01*
Y617949D01*
X736552D01*
Y617715D01*
X736318D01*
Y617481D01*
X736083D01*
Y617246D01*
X735849D01*
Y616778D01*
X735615D01*
Y616543D01*
X735380D01*
Y616309D01*
X735146D01*
Y616075D01*
X734912D01*
Y615606D01*
X735380D01*
Y615372D01*
X735615D01*
Y615138D01*
X736083D01*
Y614903D01*
X736318D01*
Y614669D01*
X736552D01*
Y614435D01*
X737020D01*
Y614200D01*
X737255D01*
Y613966D01*
X737489D01*
Y613498D01*
X737723D01*
Y613966D01*
X737489D01*
Y614200D01*
X737255D01*
Y614435D01*
X737020D01*
Y614669D01*
X736786D01*
Y614903D01*
X736552D01*
Y615138D01*
X736083D01*
Y615372D01*
X735849D01*
Y615606D01*
X735615D01*
Y616309D01*
X735849D01*
Y616543D01*
X736083D01*
Y616778D01*
X736318D01*
Y617012D01*
X736552D01*
Y617246D01*
X736786D01*
Y617481D01*
X737020D01*
Y617715D01*
X737255D01*
Y617949D01*
X738192D01*
Y618183D01*
X739832D01*
Y617949D01*
X740066D01*
Y617715D01*
X740301D01*
Y617949D01*
X740769D01*
Y618183D01*
X741003D01*
Y618418D01*
X741472D01*
Y618652D01*
X741706D01*
Y617949D01*
X741941D01*
Y616778D01*
X742175D01*
Y615840D01*
X742409D01*
Y614669D01*
X742644D01*
Y613498D01*
X742878D01*
Y613263D01*
X743112D01*
Y613029D01*
X744518D01*
Y612326D01*
X744284D01*
Y611623D01*
X744049D01*
Y611155D01*
X743815D01*
Y610452D01*
X743581D01*
Y609983D01*
X743112D01*
Y609749D01*
D01*
D01*
X743815D01*
Y610218D01*
X744049D01*
Y610686D01*
X744284D01*
Y611389D01*
X744518D01*
Y611857D01*
X744752D01*
Y612560D01*
X744986D01*
Y612795D01*
X746626D01*
Y613029D01*
X745455D01*
Y613263D01*
X744284D01*
Y613498D01*
X743112D01*
Y614903D01*
X742878D01*
Y616309D01*
X742644D01*
Y617715D01*
X742409D01*
Y619355D01*
X742175D01*
Y619823D01*
X741941D01*
Y619589D01*
X741472D01*
Y619355D01*
X741003D01*
Y619121D01*
X740769D01*
Y618886D01*
X740066D01*
Y619589D01*
X739832D01*
Y619823D01*
X739598D01*
Y620292D01*
X739363D01*
Y620995D01*
X753421D01*
Y620761D01*
D02*
G37*
%LPC*%
G36*
X724837Y618183D02*
X724603D01*
Y617949D01*
X724837D01*
Y618183D01*
D02*
G37*
G36*
X721791D02*
X721557D01*
Y617949D01*
X721791D01*
Y618183D01*
D02*
G37*
G36*
X721323Y617715D02*
X721088D01*
Y617481D01*
X721323D01*
Y617715D01*
D02*
G37*
G36*
X728820D02*
X728586D01*
Y617481D01*
Y617246D01*
X728820D01*
Y617715D01*
D02*
G37*
G36*
X725071Y617481D02*
X724837D01*
Y617246D01*
Y617012D01*
X725071D01*
Y617481D01*
D02*
G37*
G36*
X752484Y617246D02*
X752250D01*
Y617012D01*
Y616778D01*
Y616543D01*
X752484D01*
Y617246D01*
D02*
G37*
G36*
X729054Y617012D02*
X728820D01*
Y616309D01*
X729054D01*
Y616543D01*
Y617012D01*
D02*
G37*
G36*
X752718Y616309D02*
X752484D01*
Y615840D01*
Y615606D01*
Y615138D01*
X752718D01*
Y616309D01*
D02*
G37*
G36*
X729289Y616075D02*
X729054D01*
Y614669D01*
X729289D01*
Y615840D01*
Y616075D01*
D02*
G37*
G36*
X725306Y616543D02*
X725071D01*
Y615372D01*
X725306D01*
Y613498D01*
X725540D01*
Y615138D01*
Y615372D01*
Y615606D01*
X725306D01*
Y616543D01*
D02*
G37*
G36*
X737723Y613263D02*
X737489D01*
Y613029D01*
Y612795D01*
X738192D01*
Y612560D01*
X738661D01*
Y612326D01*
X739363D01*
Y612560D01*
X738895D01*
Y612795D01*
X738192D01*
Y613029D01*
X737723D01*
Y613263D01*
D02*
G37*
G36*
X746861Y612560D02*
X746626D01*
Y612326D01*
X746861Y612092D01*
X747095D01*
Y611857D01*
X747329D01*
Y612092D01*
X747095D01*
Y612326D01*
X746861D01*
Y612560D01*
D02*
G37*
G36*
X721088Y613263D02*
X720854D01*
Y613029D01*
X721088D01*
Y612795D01*
Y612092D01*
X721323D01*
Y610218D01*
X721557D01*
Y612092D01*
X721323D01*
Y613029D01*
X721088D01*
Y613263D01*
D02*
G37*
G36*
X743112Y609749D02*
X742409D01*
Y609515D01*
X743112D01*
Y609749D01*
D01*
D01*
D02*
G37*
G36*
X722963Y612795D02*
X722729D01*
Y609515D01*
X722963D01*
Y610920D01*
Y611155D01*
Y612795D01*
D02*
G37*
G36*
X721323Y610218D02*
X721088D01*
Y609515D01*
X721323D01*
Y610218D01*
D02*
G37*
G36*
X742409Y609515D02*
X741706D01*
Y609280D01*
X742409D01*
Y609515D01*
D02*
G37*
G36*
X725774Y613263D02*
X725540D01*
Y612092D01*
Y611857D01*
Y609280D01*
X725774D01*
Y613263D01*
D02*
G37*
G36*
X722729Y609280D02*
X722494D01*
Y609046D01*
X722729D01*
Y609280D01*
D02*
G37*
G36*
X741472D02*
X741003D01*
Y608812D01*
X741238D01*
Y609046D01*
X741472D01*
Y609280D01*
D02*
G37*
G36*
X729523Y614435D02*
X729289D01*
Y608109D01*
X729523D01*
Y613263D01*
Y613498D01*
Y614435D01*
D02*
G37*
G36*
X752952Y614903D02*
X752718D01*
Y614669D01*
Y614435D01*
Y607406D01*
X752952D01*
Y609983D01*
X753187D01*
Y612326D01*
X752952D01*
Y614903D01*
D02*
G37*
G36*
X722729Y618183D02*
X722494D01*
Y617949D01*
X722729D01*
Y617715D01*
X722963D01*
Y617246D01*
X723197D01*
Y616778D01*
X723431D01*
Y616075D01*
X723666D01*
Y615138D01*
X723900D01*
Y613498D01*
X724134D01*
Y609046D01*
X723900D01*
Y607406D01*
X724134D01*
Y608577D01*
X724369D01*
Y612326D01*
Y612560D01*
Y613732D01*
X724134D01*
Y615138D01*
X723900D01*
Y616075D01*
X723666D01*
Y616778D01*
X723431D01*
Y617246D01*
X723197D01*
Y617715D01*
X722963D01*
Y617949D01*
X722729D01*
Y618183D01*
D02*
G37*
G36*
X725540Y609280D02*
X725306D01*
Y606937D01*
X725540D01*
Y609280D01*
D02*
G37*
G36*
X723900Y607406D02*
X723666D01*
Y606469D01*
X723900D01*
Y607406D01*
D02*
G37*
G36*
X752718D02*
X752484D01*
Y606000D01*
X752718D01*
Y607406D01*
D02*
G37*
G36*
X725306Y606937D02*
X725071D01*
Y606000D01*
X725306D01*
Y606937D01*
D02*
G37*
G36*
X723666Y606469D02*
X723431D01*
Y605766D01*
X723666D01*
Y606469D01*
D02*
G37*
G36*
X729289Y607874D02*
X729054D01*
Y606469D01*
Y606235D01*
X728820D01*
Y605297D01*
X729054D01*
Y606000D01*
X729289Y606235D01*
Y607874D01*
D02*
G37*
G36*
X723431Y605766D02*
X723197D01*
Y605297D01*
X723431D01*
Y605766D01*
D02*
G37*
G36*
X752484Y606000D02*
X752250D01*
Y605063D01*
X752484D01*
Y606000D01*
D02*
G37*
G36*
X721088Y605297D02*
X720854D01*
Y605063D01*
X721088D01*
Y605297D01*
D02*
G37*
G36*
X728820Y605063D02*
X728586D01*
Y604829D01*
X728820D01*
Y605063D01*
D02*
G37*
G36*
X725071Y605297D02*
X724837D01*
Y604829D01*
X725071D01*
Y605063D01*
Y605297D01*
D02*
G37*
G36*
X723197Y605063D02*
X722963D01*
Y604829D01*
X723197D01*
Y605063D01*
D02*
G37*
G36*
X722963Y604829D02*
X722729D01*
Y604594D01*
X722963D01*
Y604829D01*
D02*
G37*
G36*
X722729Y604594D02*
X722494D01*
Y604360D01*
X722729D01*
Y604594D01*
D02*
G37*
G36*
X721557D02*
X721323D01*
Y604360D01*
X721557D01*
Y604594D01*
D02*
G37*
G36*
X724837D02*
X724603D01*
Y604360D01*
Y604126D01*
X724837D01*
Y604594D01*
D02*
G37*
G36*
X722494Y604360D02*
X721791D01*
Y604126D01*
X722494D01*
Y604360D01*
D02*
G37*
%LPD*%
D10*
X914070Y516095D02*
G03*
X914070Y516095I-3810J0D01*
G01*
X791461Y783590D02*
G03*
X791461Y783590I-3810J0D01*
G01*
X965962Y717815D02*
G03*
X965962Y717815I-3810J0D01*
G01*
X645922D02*
G03*
X645922Y717815I-3810J0D01*
G01*
D11*
X597160Y642380D02*
G03*
X599160Y644380I0J2000D01*
G01*
X599160Y661180D02*
G03*
X597160Y663180I-2000J0D01*
G01*
X564160Y644380D02*
G03*
X566160Y642380I2000J0D01*
G01*
Y663180D02*
G03*
X564160Y661180I0J-2000D01*
G01*
X606050Y611900D02*
G03*
X608050Y613900I0J2000D01*
G01*
Y630700D02*
G03*
X606050Y632700I-2000J0D01*
G01*
X573050Y613900D02*
G03*
X575050Y611900I2000J0D01*
G01*
Y632700D02*
G03*
X573050Y630700I0J-2000D01*
G01*
X733800Y739380D02*
G03*
X731800Y737380I0J-2000D01*
G01*
Y720581D02*
G03*
X733800Y718580I2000J0D01*
G01*
X766800Y737380D02*
G03*
X764800Y739380I-2000J0D01*
G01*
Y718580D02*
G03*
X766800Y720581I0J2000D01*
G01*
X799034Y605054D02*
G03*
X796205Y605054I-1415J-1415D01*
G01*
X784326Y593175D02*
G03*
X784326Y590346I1414J-1414D01*
G01*
X820954Y580305D02*
G03*
X820954Y583134I-1415J1415D01*
G01*
X806246Y568426D02*
G03*
X809075Y568426I1415J1415D01*
G01*
X769240Y541870D02*
G03*
X771240Y539870I2000J0D01*
G01*
X783240D02*
G03*
X785240Y541870I0J2000D01*
G01*
X771240Y572870D02*
G03*
X769240Y570870I0J-2000D01*
G01*
X785240Y570870D02*
G03*
X783240Y572870I-2000J0D01*
G01*
X559540Y476630D02*
G03*
X557540Y474630I0J-2000D01*
G01*
Y462630D02*
G03*
X559540Y460630I2000J0D01*
G01*
X590540Y474630D02*
G03*
X588540Y476630I-2000J0D01*
G01*
X588540Y460630D02*
G03*
X590540Y462630I0J2000D01*
G01*
X556000Y528560D02*
G03*
X554000Y526559I0J-2000D01*
G01*
X554000Y509760D02*
G03*
X556000Y507760I2000J0D01*
G01*
X589000Y526559D02*
G03*
X587000Y528560I-2000J0D01*
G01*
Y507760D02*
G03*
X589000Y509761I0J2000D01*
G01*
X647320Y494770D02*
G03*
X649320Y492770I2000J0D01*
G01*
X661320D02*
G03*
X663320Y494770I0J2000D01*
G01*
X649320Y525770D02*
G03*
X647320Y523770I0J-2000D01*
G01*
X663320Y523770D02*
G03*
X661320Y525770I-2000J0D01*
G01*
X669050Y493770D02*
G03*
X671050Y491770I2000J0D01*
G01*
X687850D02*
G03*
X689850Y493770I0J2000D01*
G01*
X671050Y526770D02*
G03*
X669050Y524770I0J-2000D01*
G01*
X689850D02*
G03*
X687850Y526770I-2000J0D01*
G01*
X588270Y482360D02*
G03*
X590270Y484361I0J2000D01*
G01*
Y501160D02*
G03*
X588270Y503160I-2000J0D01*
G01*
X555270Y484360D02*
G03*
X557270Y482360I2000J0D01*
G01*
Y503160D02*
G03*
X555270Y501160I0J-2000D01*
G01*
X641730Y522500D02*
G03*
X639730Y524500I-2000J0D01*
G01*
X627730D02*
G03*
X625730Y522500I0J-2000D01*
G01*
X639730Y491500D02*
G03*
X641730Y493500I0J2000D01*
G01*
X625730Y493500D02*
G03*
X627730Y491500I2000J0D01*
G01*
X529060Y560450D02*
G03*
X527060Y558450I0J-2000D01*
G01*
Y546450D02*
G03*
X529060Y544450I2000J0D01*
G01*
X560060Y558450D02*
G03*
X558060Y560450I-2000J0D01*
G01*
X558060Y544450D02*
G03*
X560060Y546450I0J2000D01*
G01*
X511550Y440930D02*
G03*
X509550Y438929I0J-2000D01*
G01*
X509550Y422130D02*
G03*
X511550Y420130I2000J0D01*
G01*
X544550Y438929D02*
G03*
X542550Y440930I-2000J0D01*
G01*
Y420130D02*
G03*
X544550Y422131I0J2000D01*
G01*
X511550Y470140D02*
G03*
X509550Y468139I0J-2000D01*
G01*
X509550Y451340D02*
G03*
X511550Y449340I2000J0D01*
G01*
X544550Y468139D02*
G03*
X542550Y470140I-2000J0D01*
G01*
Y449340D02*
G03*
X544550Y451340I0J2000D01*
G01*
X438410Y451880D02*
G03*
X440410Y453881I0J2000D01*
G01*
X440410Y470680D02*
G03*
X438410Y472680I-2000J0D01*
G01*
X405410Y453881D02*
G03*
X407410Y451880I2000J0D01*
G01*
Y472680D02*
G03*
X405410Y470680I0J-2000D01*
G01*
X438410Y421400D02*
G03*
X440410Y423400I0J2000D01*
G01*
X440410Y440200D02*
G03*
X438410Y442200I-2000J0D01*
G01*
X405410Y423400D02*
G03*
X407410Y421400I2000J0D01*
G01*
Y442200D02*
G03*
X405410Y440200I0J-2000D01*
G01*
X933550Y615710D02*
G03*
X935550Y617710I0J2000D01*
G01*
X935550Y634510D02*
G03*
X933550Y636510I-2000J0D01*
G01*
X900550Y617710D02*
G03*
X902550Y615710I2000J0D01*
G01*
Y636510D02*
G03*
X900550Y634510I0J-2000D01*
G01*
X632612Y420040D02*
G03*
X634162Y465709I-9367J23179D01*
G01*
X612978D02*
G03*
X614883Y419913I10932J-22483D01*
G01*
X704210Y701929D02*
Y710080D01*
X697611D02*
X704210D01*
X697611D02*
X704210D01*
X697611D02*
X704210D01*
X675010D02*
X681609D01*
X675010Y701929D02*
Y710080D01*
X564160Y644780D02*
Y660780D01*
X599160Y660780D02*
X599160Y644780D01*
X566160Y663180D02*
X576660D01*
X566160Y642380D02*
X576660D01*
X586660Y663180D02*
X597160D01*
X586660Y642380D02*
X597160D01*
X599160Y644581D02*
Y644780D01*
Y644380D02*
Y644780D01*
X599160Y660780D02*
Y661180D01*
X564160Y644380D02*
Y644780D01*
Y660780D02*
Y661180D01*
X549581Y601714D02*
X565581D01*
X565530Y620219D02*
Y632720D01*
X549530Y620219D02*
Y632720D01*
X565581Y601714D02*
Y614213D01*
X549581Y601714D02*
Y614213D01*
X549530Y632720D02*
X565530D01*
X420624Y583692D02*
X453644D01*
X420624Y482600D02*
Y583692D01*
Y482600D02*
X453644D01*
X488696D02*
X521716D01*
Y583692D01*
X488696D02*
X521716D01*
X608050Y613900D02*
Y614300D01*
Y630300D02*
Y630700D01*
X573050Y613900D02*
Y614300D01*
X573050Y630300D02*
Y630700D01*
Y630300D02*
Y630499D01*
X575050Y632700D02*
X585550D01*
X575050Y611900D02*
X585550D01*
X595550Y632700D02*
X606050D01*
X595550Y611900D02*
X606050D01*
X573050Y630300D02*
X573050Y614300D01*
X608050Y614300D02*
Y630300D01*
X731800Y736980D02*
Y737380D01*
Y720581D02*
Y720980D01*
X766800Y736980D02*
Y737380D01*
X766800Y720581D02*
Y720980D01*
Y720781D02*
Y720980D01*
X754300Y718580D02*
X764800D01*
X754300Y739380D02*
X764800D01*
X733800Y718580D02*
X744300D01*
X733800Y739380D02*
X744300D01*
X766800Y736980D02*
X766800Y720980D01*
X731800D02*
Y736980D01*
X809358Y568708D02*
X820672Y580022D01*
X784609Y593457D02*
X795922Y604772D01*
X798822Y575850D02*
X806246Y568426D01*
X813530Y590558D02*
X820954Y583134D01*
X784326Y590346D02*
X791750Y582922D01*
X799034Y605054D02*
X806458Y597630D01*
X795922Y604772D02*
X796063Y604912D01*
X795922Y604772D02*
X796205Y605054D01*
X784326Y593175D02*
X784609Y593457D01*
X820672Y580022D02*
X820954Y580305D01*
X809075Y568426D02*
X809358Y568708D01*
X769240Y541870D02*
Y542370D01*
X785240Y541870D02*
Y542370D01*
X769240Y570370D02*
Y570870D01*
X785240Y570370D02*
Y570870D01*
X771240Y572870D02*
X783240D01*
X769240Y542370D02*
Y552369D01*
X785240Y542370D02*
Y552369D01*
X769240Y560370D02*
Y570370D01*
X785240Y560370D02*
Y570370D01*
X771240Y539870D02*
X783240D01*
X590540Y462630D02*
Y474630D01*
X560040Y476630D02*
X570040D01*
X560040Y460630D02*
X570040D01*
X578041Y476630D02*
X588040D01*
X578041Y460630D02*
X588040D01*
X557540Y462630D02*
Y474630D01*
X559540Y476630D02*
X560040D01*
X559540Y460630D02*
X560040D01*
X588040Y476630D02*
X588540D01*
X588040Y460630D02*
X588540D01*
X589000Y510160D02*
Y526160D01*
X554000D02*
X554000Y510160D01*
X576500Y507760D02*
X587000D01*
X576500Y528560D02*
X587000D01*
X556000Y507760D02*
X566500D01*
X556000Y528560D02*
X566500D01*
X554000Y526160D02*
Y526359D01*
Y526160D02*
Y526559D01*
X554000Y509760D02*
Y510160D01*
X589000Y526160D02*
Y526559D01*
Y509761D02*
Y510160D01*
X700609Y565416D02*
X716609D01*
X700660Y534410D02*
Y546911D01*
X716660Y534410D02*
Y546911D01*
X700609Y552917D02*
Y565416D01*
X716609Y552917D02*
Y565416D01*
X700660Y534410D02*
X716660D01*
X647320Y494770D02*
Y495270D01*
X663320Y494770D02*
Y495270D01*
X647320Y523270D02*
Y523770D01*
X663320Y523270D02*
Y523770D01*
X649320Y525770D02*
X661320D01*
X647320Y495270D02*
Y505269D01*
X663320Y495270D02*
Y505269D01*
X647320Y513270D02*
Y523270D01*
X663320Y513270D02*
Y523270D01*
X649320Y492770D02*
X661320D01*
X733731Y677914D02*
X749731D01*
X749680Y696419D02*
Y708920D01*
X733680Y696419D02*
Y708920D01*
X749731Y677914D02*
Y690413D01*
X733731Y677914D02*
Y690413D01*
X733680Y708920D02*
X749680D01*
X737300Y579989D02*
X761300D01*
X737300Y529990D02*
Y544990D01*
X761300Y529990D02*
Y544990D01*
X737300Y564990D02*
Y579989D01*
X761300Y564990D02*
Y579989D01*
X737300Y529990D02*
X761300D01*
X671050Y491770D02*
X671450D01*
X687450D02*
X687850D01*
X671050Y526770D02*
X671450D01*
X687450Y526770D02*
X687850D01*
X687450D02*
X687649D01*
X689850Y514270D02*
Y524770D01*
X669050Y514270D02*
Y524770D01*
X689850Y493770D02*
Y504270D01*
X669050Y493770D02*
Y504270D01*
X671450Y526770D02*
X687450Y526770D01*
X671450Y491770D02*
X687450D01*
X590270Y484361D02*
Y484760D01*
Y500760D02*
Y501160D01*
X555270Y484360D02*
Y484760D01*
X555270Y500760D02*
Y501160D01*
Y500760D02*
Y500959D01*
X557270Y503160D02*
X567770D01*
X557270Y482360D02*
X567770D01*
X577770Y503160D02*
X588270D01*
X577770Y482360D02*
X588270D01*
X555270Y500760D02*
X555270Y484760D01*
X590270Y484760D02*
Y500760D01*
X527941Y503924D02*
X543941D01*
X543890Y522429D02*
Y534930D01*
X527890Y522429D02*
Y534930D01*
X543941Y503924D02*
Y516423D01*
X527941Y503924D02*
Y516423D01*
X527890Y534930D02*
X543890D01*
X864230Y589130D02*
Y597281D01*
X857631Y589130D02*
X864230D01*
X835030D02*
X841629D01*
X835030D02*
X841629D01*
X835030D02*
X841629D01*
X835030D02*
Y597281D01*
X627730Y491500D02*
X639730D01*
X641730Y512000D02*
Y522000D01*
X625730Y512000D02*
Y522000D01*
X641730Y494000D02*
Y503999D01*
X625730Y494000D02*
Y503999D01*
X627730Y524500D02*
X639730D01*
X641730Y522000D02*
Y522500D01*
X625730Y522000D02*
Y522500D01*
X641730Y493500D02*
Y494000D01*
X625730Y493500D02*
Y494000D01*
X560060Y546450D02*
Y558450D01*
X529560Y560450D02*
X539560D01*
X529560Y544450D02*
X539560D01*
X547561Y560450D02*
X557560D01*
X547561Y544450D02*
X557560D01*
X527060Y546450D02*
Y558450D01*
X529060Y560450D02*
X529560D01*
X529060Y544450D02*
X529560D01*
X557560Y560450D02*
X558060D01*
X557560Y544450D02*
X558060D01*
X832860Y482220D02*
Y498220D01*
X851367Y482271D02*
X863866D01*
X851367Y498271D02*
X863866D01*
X832860Y482220D02*
X845361D01*
X832860Y498220D02*
X845361D01*
X863866Y482271D02*
Y498271D01*
X544550Y422530D02*
Y438530D01*
X509550D02*
X509550Y422530D01*
X532050Y420130D02*
X542550D01*
X532050Y440930D02*
X542550D01*
X511550Y420130D02*
X522050D01*
X511550Y440930D02*
X522050D01*
X509550Y438530D02*
Y438729D01*
Y438530D02*
Y438929D01*
X509550Y422130D02*
Y422530D01*
X544550Y438530D02*
Y438929D01*
Y422131D02*
Y422530D01*
Y451740D02*
Y467740D01*
X509550D02*
X509550Y451740D01*
X532050Y449340D02*
X542550D01*
X532050Y470140D02*
X542550D01*
X511550Y449340D02*
X522050D01*
X511550Y470140D02*
X522050D01*
X509550Y467740D02*
Y467939D01*
Y467740D02*
Y468139D01*
X509550Y451340D02*
Y451740D01*
X544550Y467740D02*
Y468139D01*
Y451340D02*
Y451740D01*
X405410Y454280D02*
Y470280D01*
X440410Y470280D02*
X440410Y454280D01*
X407410Y472680D02*
X417910D01*
X407410Y451880D02*
X417910D01*
X427910Y472680D02*
X438410D01*
X427910Y451880D02*
X438410D01*
X440410Y454081D02*
Y454280D01*
Y453881D02*
Y454280D01*
X440410Y470280D02*
Y470680D01*
X405410Y453881D02*
Y454280D01*
Y470280D02*
Y470680D01*
Y423800D02*
Y439800D01*
X440410Y439800D02*
X440410Y423800D01*
X407410Y442200D02*
X417910D01*
X407410Y421400D02*
X417910D01*
X427910Y442200D02*
X438410D01*
X427910Y421400D02*
X438410D01*
X440410Y423601D02*
Y423800D01*
Y423400D02*
Y423800D01*
X440410Y439800D02*
Y440200D01*
X405410Y423400D02*
Y423800D01*
Y439800D02*
Y440200D01*
X900550Y618110D02*
Y634110D01*
X935550Y634110D02*
X935550Y618110D01*
X902550Y636510D02*
X913050D01*
X902550Y615710D02*
X913050D01*
X923050Y636510D02*
X933550D01*
X923050Y615710D02*
X933550D01*
X935550Y617911D02*
Y618110D01*
Y617710D02*
Y618110D01*
X935550Y634110D02*
Y634510D01*
X900550Y617710D02*
Y618110D01*
Y634110D02*
Y634510D01*
X611510Y661520D02*
X618109D01*
X611510D02*
X618109D01*
X611510D02*
X618109D01*
X611510D02*
Y669671D01*
X640710Y661520D02*
Y669671D01*
X634111Y661520D02*
X640710D01*
X895200Y664591D02*
Y671190D01*
Y664591D02*
Y671190D01*
Y664591D02*
Y671190D01*
X903351D01*
X895200Y641990D02*
X903351D01*
X895200D02*
Y648589D01*
X629920Y415290D02*
X651510D01*
Y457835D01*
X639445Y469900D02*
X651510Y457835D01*
X629920Y469900D02*
X639445D01*
X595630Y415290D02*
X617220D01*
X595630D02*
Y458470D01*
X607060Y469900D01*
X617220D01*
X880113Y539759D02*
X892808D01*
X895348Y542298D01*
Y547377D01*
X892808Y549916D01*
X880113D01*
X882652Y565151D02*
X880113Y562612D01*
Y557533D01*
X882652Y554994D01*
X885191D01*
X887730Y557533D01*
Y562612D01*
X890269Y565151D01*
X892808D01*
X895348Y562612D01*
Y557533D01*
X892808Y554994D01*
X880113Y570229D02*
X895348D01*
Y577847D01*
X892808Y580386D01*
X890269D01*
X887730Y577847D01*
Y570229D01*
Y577847D01*
X885191Y580386D01*
X882652D01*
X880113Y577847D01*
Y570229D01*
X895348Y585464D02*
X885191D01*
Y588003D01*
X887730Y590543D01*
X895348D01*
X887730D01*
X885191Y593082D01*
X887730Y595621D01*
X895348D01*
X938527Y476243D02*
X923292D01*
X928370D01*
X938527Y466087D01*
X930909Y473704D01*
X923292Y466087D01*
Y453391D02*
Y458469D01*
X925831Y461008D01*
X930909D01*
X933448Y458469D01*
Y453391D01*
X930909Y450852D01*
X928370D01*
Y461008D01*
X933448Y445773D02*
X925831D01*
X923292Y443234D01*
Y435617D01*
X920752D01*
X918213Y438156D01*
Y440695D01*
X923292Y435617D02*
X933448D01*
X684409Y821035D02*
Y808339D01*
X686948Y805800D01*
X692027D01*
X694566Y808339D01*
Y821035D01*
X709801Y818496D02*
X707262Y821035D01*
X702183D01*
X699644Y818496D01*
Y815956D01*
X702183Y813417D01*
X707262D01*
X709801Y810878D01*
Y808339D01*
X707262Y805800D01*
X702183D01*
X699644Y808339D01*
X714879Y821035D02*
Y805800D01*
X722497D01*
X725036Y808339D01*
Y810878D01*
X722497Y813417D01*
X714879D01*
X722497D01*
X725036Y815956D01*
Y818496D01*
X722497Y821035D01*
X714879D01*
X740271Y818496D02*
X737732Y821035D01*
X732653D01*
X730114Y818496D01*
Y808339D01*
X732653Y805800D01*
X737732D01*
X740271Y808339D01*
X859799Y768347D02*
Y755652D01*
X862338Y753112D01*
X867417D01*
X869956Y755652D01*
Y768347D01*
X885191Y765808D02*
X882652Y768347D01*
X877573D01*
X875034Y765808D01*
Y763269D01*
X877573Y760730D01*
X882652D01*
X885191Y758191D01*
Y755652D01*
X882652Y753112D01*
X877573D01*
X875034Y755652D01*
X890269Y768347D02*
Y753112D01*
X897887D01*
X900426Y755652D01*
Y758191D01*
X897887Y760730D01*
X890269D01*
X897887D01*
X900426Y763269D01*
Y765808D01*
X897887Y768347D01*
X890269D01*
X915661Y753112D02*
X905504D01*
X915661Y763269D01*
Y765808D01*
X913122Y768347D01*
X908043D01*
X905504Y765808D01*
X532138Y770888D02*
Y758192D01*
X534677Y755652D01*
X539756D01*
X542295Y758192D01*
Y770888D01*
X557530Y768348D02*
X554991Y770888D01*
X549912D01*
X547373Y768348D01*
Y765809D01*
X549912Y763270D01*
X554991D01*
X557530Y760731D01*
Y758192D01*
X554991Y755652D01*
X549912D01*
X547373Y758192D01*
X562608Y770888D02*
Y755652D01*
X570226D01*
X572765Y758192D01*
Y760731D01*
X570226Y763270D01*
X562608D01*
X570226D01*
X572765Y765809D01*
Y768348D01*
X570226Y770888D01*
X562608D01*
X577843Y755652D02*
X582922D01*
X580383D01*
Y770888D01*
X577843Y768348D01*
D12*
X650880Y607489D02*
G03*
X650855Y607489I-13J1500D01*
G01*
D13*
X954532Y505217D02*
G03*
X954532Y505217I-2032J0D01*
G01*
X904490Y604995D02*
X926464D01*
X948056Y522445D02*
X963926D01*
X904490D02*
Y530173D01*
Y522445D02*
X926464D01*
X904490Y597267D02*
Y604995D01*
X948056D02*
X963926D01*
Y522445D02*
Y604995D01*
X654809Y857359D02*
X769871D01*
X654809Y849874D02*
Y857359D01*
X664951Y789795D02*
X674049D01*
X769871Y807842D02*
Y820305D01*
X750631Y789795D02*
X759729D01*
X769871Y849874D02*
Y857359D01*
X654809Y807842D02*
Y820305D01*
X917318Y487437D02*
X941682D01*
X961758Y428280D02*
Y482079D01*
X917318Y422921D02*
X941682D01*
X897242Y428280D02*
Y482079D01*
X944372Y771205D02*
Y857885D01*
X896485Y719455D02*
X903655D01*
X851485D02*
X858655D01*
X921485D02*
X944372D01*
Y736426D01*
X810768Y719455D02*
X833655D01*
X810768Y771205D02*
Y857885D01*
X944372D01*
X810768Y719455D02*
Y736426D01*
X624332Y771205D02*
Y857885D01*
X576445Y719455D02*
X583615D01*
X531445D02*
X538615D01*
X601445D02*
X624332D01*
Y736426D01*
X490728Y719455D02*
X513615D01*
X490728Y771205D02*
Y857885D01*
X624332D01*
X490728Y719455D02*
Y736426D01*
X630174Y621280D02*
Y611758D01*
X632078Y609854D01*
X635887D01*
X637791Y611758D01*
Y621280D01*
X641600Y609854D02*
X645409D01*
X643505D01*
Y621280D01*
X641600Y619376D01*
X611121Y445386D02*
X609217Y447290D01*
X605408D01*
X603504Y445386D01*
Y437768D01*
X605408Y435864D01*
X609217D01*
X611121Y437768D01*
X614930Y435864D02*
Y447290D01*
X620644D01*
X622548Y445386D01*
Y441577D01*
X620644Y439673D01*
X614930D01*
X626357Y435864D02*
X630165D01*
X628261D01*
Y447290D01*
X626357Y445386D01*
X643496Y435864D02*
X635879D01*
X643496Y443481D01*
Y445386D01*
X641592Y447290D01*
X637783D01*
X635879Y445386D01*
X463670Y538857D02*
Y527431D01*
X471288D01*
X475097D02*
X478905D01*
X477001D01*
Y538857D01*
X475097Y536953D01*
D14*
X686610Y694581D02*
X692610D01*
X589891Y599480D02*
Y603480D01*
X593891Y603480D01*
X589891Y540480D02*
Y544480D01*
Y540480D02*
X593891Y540480D01*
X652891Y540480D02*
Y544480D01*
X648891Y540480D02*
X652891D01*
X648891Y603480D02*
X652891D01*
Y599480D02*
Y603480D01*
X846630Y604629D02*
X852630D01*
X623111Y677019D02*
X629109D01*
X910699Y653590D02*
Y659589D01*
D15*
X688878Y701873D02*
Y705205D01*
X688045Y706038D01*
X686379D01*
X685546Y705205D01*
Y701873D01*
X686379Y701040D01*
X688045D01*
X687212Y702706D02*
X688878Y701040D01*
X688045D02*
X688878Y701873D01*
X693877Y701040D02*
X690544D01*
X693877Y704372D01*
Y705205D01*
X693044Y706038D01*
X691377D01*
X690544Y705205D01*
X848882Y594923D02*
Y598255D01*
X848049Y599088D01*
X846383D01*
X845550Y598255D01*
Y594923D01*
X846383Y594090D01*
X848049D01*
X847216Y595756D02*
X848882Y594090D01*
X848049D02*
X848882Y594923D01*
X853047Y594090D02*
Y599088D01*
X850548Y596589D01*
X853881D01*
X632982Y486495D02*
X632149Y487328D01*
X630483D01*
X629650Y486495D01*
Y483163D01*
X630483Y482330D01*
X632149D01*
X632982Y483163D01*
X637981Y482330D02*
X634648D01*
X637981Y485662D01*
Y486495D01*
X637147Y487328D01*
X635481D01*
X634648Y486495D01*
X655842D02*
X655009Y487328D01*
X653343D01*
X652510Y486495D01*
Y483163D01*
X653343Y482330D01*
X655009D01*
X655842Y483163D01*
X657508Y482330D02*
X659174D01*
X658341D01*
Y487328D01*
X657508Y486495D01*
X776492Y533485D02*
X775659Y534318D01*
X773993D01*
X773160Y533485D01*
Y530153D01*
X773993Y529320D01*
X775659D01*
X776492Y530153D01*
X780658Y529320D02*
Y534318D01*
X778158Y531819D01*
X781491D01*
X549825Y467882D02*
X548992Y467049D01*
Y465383D01*
X549825Y464550D01*
X553157D01*
X553990Y465383D01*
Y467049D01*
X553157Y467882D01*
X549825Y469548D02*
X548992Y470381D01*
Y472048D01*
X549825Y472881D01*
X550658D01*
X551491Y472048D01*
Y471214D01*
Y472048D01*
X552324Y472881D01*
X553157D01*
X553990Y472048D01*
Y470381D01*
X553157Y469548D01*
X563795Y555512D02*
X562962Y554679D01*
Y553013D01*
X563795Y552180D01*
X567127D01*
X567960Y553013D01*
Y554679D01*
X567127Y555512D01*
X562962Y557178D02*
Y560511D01*
X563795D01*
X567127Y557178D01*
X567960D01*
X844296Y505714D02*
Y510712D01*
X846795D01*
X847628Y509879D01*
Y508213D01*
X846795Y507380D01*
X844296D01*
X845962D02*
X847628Y505714D01*
X852627Y510712D02*
X850960Y509879D01*
X849294Y508213D01*
Y506547D01*
X850127Y505714D01*
X851794D01*
X852627Y506547D01*
Y507380D01*
X851794Y508213D01*
X849294D01*
X528050Y496300D02*
Y501298D01*
X530549D01*
X531382Y500465D01*
Y498799D01*
X530549Y497966D01*
X528050D01*
X529716D02*
X531382Y496300D01*
X533048D02*
X534715D01*
X533881D01*
Y501298D01*
X533048Y500465D01*
X537214D02*
X538047Y501298D01*
X539713D01*
X540546Y500465D01*
Y497133D01*
X539713Y496300D01*
X538047D01*
X537214Y497133D01*
Y500465D01*
X550910Y636000D02*
Y640998D01*
X553409D01*
X554242Y640165D01*
Y638499D01*
X553409Y637666D01*
X550910D01*
X552576D02*
X554242Y636000D01*
X555908D02*
X557575D01*
X556741D01*
Y640998D01*
X555908Y640165D01*
X563406Y636000D02*
X560074D01*
X563406Y639332D01*
Y640165D01*
X562573Y640998D01*
X560907D01*
X560074Y640165D01*
X704580Y525510D02*
Y530508D01*
X707079D01*
X707912Y529675D01*
Y528009D01*
X707079Y527176D01*
X704580D01*
X706246D02*
X707912Y525510D01*
X709578Y526343D02*
X710411Y525510D01*
X712077D01*
X712911Y526343D01*
Y529675D01*
X712077Y530508D01*
X710411D01*
X709578Y529675D01*
Y528842D01*
X710411Y528009D01*
X712911D01*
X737600Y669020D02*
Y674018D01*
X740099D01*
X740932Y673185D01*
Y671519D01*
X740099Y670686D01*
X737600D01*
X739266D02*
X740932Y669020D01*
X742598Y673185D02*
X743431Y674018D01*
X745098D01*
X745931Y673185D01*
Y672352D01*
X745098Y671519D01*
X745931Y670686D01*
Y669853D01*
X745098Y669020D01*
X743431D01*
X742598Y669853D01*
Y670686D01*
X743431Y671519D01*
X742598Y672352D01*
Y673185D01*
X743431Y671519D02*
X745098D01*
X788588Y577564D02*
X788588Y578742D01*
X787410Y579920D01*
X786232Y579920D01*
X783876Y577564D01*
Y576386D01*
X785054Y575208D01*
X786232D01*
X786821Y573441D02*
X790355Y576975D01*
X792122Y575208D01*
Y574030D01*
X790944Y572851D01*
X789766D01*
X787999Y574619D01*
X793300Y572851D02*
X794479D01*
X795657Y571673D01*
Y570495D01*
X795068Y569906D01*
X793890D01*
Y568728D01*
X793300Y568139D01*
X792122D01*
X790944Y569317D01*
Y570495D01*
X791533Y571084D01*
X792711D01*
Y572262D01*
X793300Y572851D01*
X792711Y571084D02*
X793890Y569906D01*
X547285Y512332D02*
X546452Y511499D01*
Y509833D01*
X547285Y509000D01*
X550617D01*
X551450Y509833D01*
Y511499D01*
X550617Y512332D01*
X551450Y513998D02*
X546452D01*
Y516497D01*
X547285Y517331D01*
X548951D01*
X549784Y516497D01*
Y513998D01*
X551450Y518997D02*
Y520663D01*
Y519830D01*
X546452D01*
X547285Y518997D01*
X551450Y523162D02*
Y524828D01*
Y523995D01*
X546452D01*
X547285Y523162D01*
Y490742D02*
X546452Y489909D01*
Y488243D01*
X547285Y487410D01*
X550617D01*
X551450Y488243D01*
Y489909D01*
X550617Y490742D01*
X546452Y495741D02*
X547285Y494075D01*
X548951Y492408D01*
X550617D01*
X551450Y493241D01*
Y494907D01*
X550617Y495741D01*
X549784D01*
X548951Y494907D01*
Y492408D01*
X579173Y603264D02*
X578340Y602431D01*
Y600765D01*
X579173Y599932D01*
X582505D01*
X583338Y600765D01*
Y602431D01*
X582505Y603264D01*
X578340Y608263D02*
Y604930D01*
X580839D01*
X580006Y606596D01*
Y607430D01*
X580839Y608263D01*
X582505D01*
X583338Y607430D01*
Y605763D01*
X582505Y604930D01*
X501565Y425972D02*
X500732Y425139D01*
Y423473D01*
X501565Y422640D01*
X504897D01*
X505730Y423473D01*
Y425139D01*
X504897Y425972D01*
X505730Y427638D02*
X500732D01*
Y430137D01*
X501565Y430971D01*
X503231D01*
X504064Y430137D01*
Y427638D01*
X505730Y432637D02*
Y434303D01*
Y433470D01*
X500732D01*
X501565Y432637D01*
X505730Y439301D02*
X500732D01*
X503231Y436802D01*
Y440134D01*
X501565Y456452D02*
X500732Y455619D01*
Y453953D01*
X501565Y453120D01*
X504897D01*
X505730Y453953D01*
Y455619D01*
X504897Y456452D01*
X505730Y458118D02*
X500732D01*
Y460617D01*
X501565Y461451D01*
X503231D01*
X504064Y460617D01*
Y458118D01*
X501565Y463117D02*
X500732Y463950D01*
Y465616D01*
X501565Y466449D01*
X502398D01*
X503231Y465616D01*
Y464783D01*
Y465616D01*
X504064Y466449D01*
X504897D01*
X505730Y465616D01*
Y463950D01*
X504897Y463117D01*
X394885Y458992D02*
X394052Y458159D01*
Y456493D01*
X394885Y455660D01*
X398217D01*
X399050Y456493D01*
Y458159D01*
X398217Y458992D01*
X399050Y460658D02*
X394052D01*
Y463158D01*
X394885Y463991D01*
X396551D01*
X397384Y463158D01*
Y460658D01*
X399050Y468989D02*
Y465657D01*
X395718Y468989D01*
X394885D01*
X394052Y468156D01*
Y466490D01*
X394885Y465657D01*
Y431052D02*
X394052Y430219D01*
Y428553D01*
X394885Y427720D01*
X398217D01*
X399050Y428553D01*
Y430219D01*
X398217Y431052D01*
X399050Y432718D02*
X394052D01*
Y435218D01*
X394885Y436051D01*
X396551D01*
X397384Y435218D01*
Y432718D01*
X399050Y437717D02*
Y439383D01*
Y438550D01*
X394052D01*
X394885Y437717D01*
X891455Y622822D02*
X890622Y621989D01*
Y620323D01*
X891455Y619490D01*
X894787D01*
X895620Y620323D01*
Y621989D01*
X894787Y622822D01*
X895620Y624488D02*
X890622D01*
Y626987D01*
X891455Y627821D01*
X893121D01*
X893954Y626987D01*
Y624488D01*
X894787Y629487D02*
X895620Y630320D01*
Y631986D01*
X894787Y632819D01*
X891455D01*
X890622Y631986D01*
Y630320D01*
X891455Y629487D01*
X892288D01*
X893121Y630320D01*
Y632819D01*
X578388Y674725D02*
X577555Y675558D01*
X575889D01*
X575056Y674725D01*
Y671393D01*
X575889Y670560D01*
X577555D01*
X578388Y671393D01*
X580054Y670560D02*
Y675558D01*
X582553D01*
X583387Y674725D01*
Y673059D01*
X582553Y672226D01*
X580054D01*
X585053Y675558D02*
X588385D01*
Y674725D01*
X585053Y671393D01*
Y670560D01*
X674892Y486495D02*
X674059Y487328D01*
X672393D01*
X671560Y486495D01*
Y483163D01*
X672393Y482330D01*
X674059D01*
X674892Y483163D01*
X676558Y482330D02*
X678224D01*
X677391D01*
Y487328D01*
X676558Y486495D01*
X680724D02*
X681557Y487328D01*
X683223D01*
X684056Y486495D01*
Y485662D01*
X683223Y484829D01*
X682390D01*
X683223D01*
X684056Y483996D01*
Y483163D01*
X683223Y482330D01*
X681557D01*
X680724Y483163D01*
X743472Y748115D02*
X742639Y748948D01*
X740973D01*
X740140Y748115D01*
Y744783D01*
X740973Y743950D01*
X742639D01*
X743472Y744783D01*
X745138Y743950D02*
Y748948D01*
X747637D01*
X748471Y748115D01*
Y746449D01*
X747637Y745616D01*
X745138D01*
X750137Y743950D02*
X751803D01*
X750970D01*
Y748948D01*
X750137Y748115D01*
X754302D02*
X755135Y748948D01*
X756801D01*
X757634Y748115D01*
Y744783D01*
X756801Y743950D01*
X755135D01*
X754302Y744783D01*
Y748115D01*
X625378Y666313D02*
Y669645D01*
X624545Y670478D01*
X622879D01*
X622046Y669645D01*
Y666313D01*
X622879Y665480D01*
X624545D01*
X623712Y667146D02*
X625378Y665480D01*
X624545D02*
X625378Y666313D01*
X627044Y669645D02*
X627877Y670478D01*
X629543D01*
X630377Y669645D01*
Y668812D01*
X629543Y667979D01*
X628711D01*
X629543D01*
X630377Y667146D01*
Y666313D01*
X629543Y665480D01*
X627877D01*
X627044Y666313D01*
X901730Y654883D02*
Y658215D01*
X900897Y659048D01*
X899231D01*
X898398Y658215D01*
Y654883D01*
X899231Y654050D01*
X900897D01*
X900064Y655716D02*
X901730Y654050D01*
X900897D02*
X901730Y654883D01*
X903396Y654050D02*
X905062D01*
X904229D01*
Y659048D01*
X903396Y658215D01*
X746490Y520430D02*
Y525428D01*
X748989D01*
X749822Y524595D01*
Y522929D01*
X748989Y522096D01*
X746490D01*
X748156D02*
X749822Y520430D01*
X751488D02*
X753155D01*
X752321D01*
Y525428D01*
X751488Y524595D01*
D16*
X524773Y611877D02*
X519695D01*
Y614416D01*
X520541Y615262D01*
X522234D01*
X523080Y614416D01*
Y611877D01*
Y613570D02*
X524773Y615262D01*
Y616955D02*
X519695D01*
X524773Y620341D01*
X519695D01*
Y622034D02*
Y625419D01*
Y623726D01*
X524773D01*
X520541Y630498D02*
X519695Y629651D01*
Y627958D01*
X520541Y627112D01*
X523927D01*
X524773Y627958D01*
Y629651D01*
X523927Y630498D01*
D17*
X793242Y427319D02*
Y417322D01*
X798240D01*
X799906Y418988D01*
Y420654D01*
X798240Y422320D01*
X793242D01*
X798240D01*
X799906Y423987D01*
Y425653D01*
X798240Y427319D01*
X793242D01*
X803239Y422320D02*
X809903D01*
X474472Y448909D02*
Y438912D01*
X479470D01*
X481137Y440578D01*
Y442244D01*
X479470Y443910D01*
X474472D01*
X479470D01*
X481137Y445577D01*
Y447243D01*
X479470Y448909D01*
X474472D01*
X484469Y443910D02*
X491133D01*
X487801Y447243D02*
Y440578D01*
M02*
