G04*
G04 #@! TF.GenerationSoftware,Altium Limited,Altium Designer,24.3.1 (35)*
G04*
G04 Layer_Color=8421504*
%FSLAX44Y44*%
%MOMM*%
G71*
G04*
G04 #@! TF.SameCoordinates,7C1B9C0E-2346-4955-A66A-820B0877C6A1*
G04*
G04*
G04 #@! TF.FilePolarity,Positive*
G04*
G01*
G75*
%ADD18R,1.9558X1.5494*%
%ADD19R,1.3970X0.4572*%
%ADD20R,1.0000X1.5500*%
%ADD21R,1.1000X1.0000*%
%ADD22R,3.2004X2.4994*%
%ADD23O,0.2800X0.8000*%
%ADD24O,0.8000X0.2800*%
%ADD25R,4.5000X4.5000*%
G04:AMPARAMS|DCode=26|XSize=1mm|YSize=1.55mm|CornerRadius=0mm|HoleSize=0mm|Usage=FLASHONLY|Rotation=315.000|XOffset=0mm|YOffset=0mm|HoleType=Round|Shape=Rectangle|*
%AMROTATEDRECTD26*
4,1,4,-0.9016,-0.1945,0.1945,0.9016,0.9016,0.1945,-0.1945,-0.9016,-0.9016,-0.1945,0.0*
%
%ADD26ROTATEDRECTD26*%

%ADD27R,1.0000X1.1000*%
%ADD28R,0.6096X1.0922*%
%ADD29R,0.3048X1.0922*%
%ADD30R,1.1176X2.8702*%
%ADD31R,1.9000X1.2000*%
%ADD32R,1.5500X1.0000*%
%ADD33R,0.7000X1.2500*%
%ADD34R,1.2500X0.7000*%
%ADD35R,0.8000X2.5000*%
D18*
X937260Y573720D02*
D03*
Y553720D02*
D03*
D19*
X910260Y576720D02*
D03*
Y570220D02*
D03*
Y563720D02*
D03*
Y557220D02*
D03*
Y550720D02*
D03*
D20*
X591660Y652780D02*
D03*
X571660D02*
D03*
X600550Y622300D02*
D03*
X580550D02*
D03*
X739300Y728980D02*
D03*
X759300D02*
D03*
X561500Y518160D02*
D03*
X581500D02*
D03*
X582770Y492760D02*
D03*
X562770D02*
D03*
X517050Y430530D02*
D03*
X537050D02*
D03*
X517050Y459740D02*
D03*
X537050D02*
D03*
X432910Y462280D02*
D03*
X412910D02*
D03*
X432910Y431800D02*
D03*
X412910D02*
D03*
X928050Y626110D02*
D03*
X908050D02*
D03*
D21*
X557530Y625219D02*
D03*
Y609220D02*
D03*
X777240Y547370D02*
D03*
Y565370D02*
D03*
X708660Y541911D02*
D03*
Y557910D02*
D03*
X655320Y500270D02*
D03*
Y518270D02*
D03*
X741680Y701419D02*
D03*
Y685420D02*
D03*
X535890Y527429D02*
D03*
Y511430D02*
D03*
X633730Y517000D02*
D03*
Y499000D02*
D03*
D22*
X471170Y576072D02*
D03*
Y490220D02*
D03*
D23*
X643890Y601980D02*
D03*
X638891D02*
D03*
X633890D02*
D03*
X628891D02*
D03*
X623890D02*
D03*
X618891D02*
D03*
X613890D02*
D03*
X608891D02*
D03*
X603890D02*
D03*
X598891D02*
D03*
Y541980D02*
D03*
X603890D02*
D03*
X608891D02*
D03*
X613890D02*
D03*
X618891D02*
D03*
X623890D02*
D03*
X628891D02*
D03*
X633890D02*
D03*
X638891D02*
D03*
X643890D02*
D03*
D24*
X591391Y594479D02*
D03*
Y589481D02*
D03*
Y584479D02*
D03*
Y579481D02*
D03*
Y574479D02*
D03*
Y569481D02*
D03*
Y564479D02*
D03*
Y559481D02*
D03*
Y554479D02*
D03*
Y549481D02*
D03*
X651391D02*
D03*
Y554479D02*
D03*
Y559481D02*
D03*
Y564479D02*
D03*
Y569481D02*
D03*
Y574479D02*
D03*
Y579481D02*
D03*
Y584479D02*
D03*
Y589481D02*
D03*
Y594479D02*
D03*
D25*
X621391Y571980D02*
D03*
D26*
X795569Y593811D02*
D03*
X809711Y579669D02*
D03*
D27*
X565040Y468630D02*
D03*
X583040D02*
D03*
X534560Y552450D02*
D03*
X552560D02*
D03*
X856360Y490220D02*
D03*
X840361D02*
D03*
D28*
X680340Y783590D02*
D03*
X736340D02*
D03*
X744340D02*
D03*
X688340D02*
D03*
D29*
X694840D02*
D03*
X699840D02*
D03*
X704840D02*
D03*
X714840D02*
D03*
X709840D02*
D03*
X719840D02*
D03*
X724840D02*
D03*
X729840D02*
D03*
D30*
X867570Y717815D02*
D03*
X887570D02*
D03*
X842570D02*
D03*
X912570D02*
D03*
X567530D02*
D03*
X522530D02*
D03*
X592530D02*
D03*
D31*
X749300Y538989D02*
D03*
Y570990D02*
D03*
D32*
X679450Y499270D02*
D03*
Y519270D02*
D03*
D33*
X689610Y716077D02*
D03*
X699110Y691083D02*
D03*
X680110D02*
D03*
X849630Y583133D02*
D03*
X840130Y608127D02*
D03*
X859130D02*
D03*
X626110Y655523D02*
D03*
X616610Y680517D02*
D03*
X635610D02*
D03*
D34*
X889203Y656590D02*
D03*
X914197Y666090D02*
D03*
Y647090D02*
D03*
D35*
X623570Y422910D02*
D03*
Y462280D02*
D03*
M02*
