G04*
G04 #@! TF.GenerationSoftware,Altium Limited,Altium Designer,24.3.1 (35)*
G04*
G04 Layer_Color=8388736*
%FSLAX44Y44*%
%MOMM*%
G71*
G04*
G04 #@! TF.SameCoordinates,1B42CCB5-0E70-4529-B8D2-504AEFABFE78*
G04*
G04*
G04 #@! TF.FilePolarity,Negative*
G04*
G01*
G75*
%ADD20R,1.3970X0.4572*%
%ADD36R,0.9032X1.4532*%
%ADD37R,2.1590X1.7526*%
%ADD38R,1.2032X1.7532*%
%ADD39R,1.3032X1.2032*%
%ADD40R,3.4036X2.7026*%
%ADD41O,0.4832X1.0032*%
%ADD42O,1.0032X0.4832*%
%ADD43O,0.4324X0.9524*%
%ADD44R,4.7032X4.7032*%
G04:AMPARAMS|DCode=45|XSize=1.2032mm|YSize=1.7532mm|CornerRadius=0mm|HoleSize=0mm|Usage=FLASHONLY|Rotation=315.000|XOffset=0mm|YOffset=0mm|HoleType=Round|Shape=Rectangle|*
%AMROTATEDRECTD45*
4,1,4,-1.0453,-0.1945,0.1945,1.0453,1.0453,0.1945,-0.1945,-1.0453,-1.0453,-0.1945,0.0*
%
%ADD45ROTATEDRECTD45*%

%ADD46R,1.2032X1.3032*%
%ADD47R,0.7112X1.1938*%
%ADD48R,0.4064X1.1938*%
%ADD49R,1.3208X3.0734*%
%ADD50R,2.1032X1.4032*%
%ADD51R,1.7532X1.2032*%
%ADD52R,1.4532X0.9032*%
%ADD53R,1.0032X2.7032*%
%ADD54O,1.1176X1.9050*%
%ADD55O,1.9558X1.2700*%
%ADD56C,1.3970*%
%ADD57C,2.7432*%
%ADD58C,2.2352*%
%ADD59O,1.1176X2.3114*%
%ADD60C,1.4986*%
%ADD61R,4.2032X2.2032*%
%ADD62C,0.7112*%
%ADD63C,1.4732*%
D20*
X910260Y576720D02*
D03*
Y570220D02*
D03*
Y563720D02*
D03*
Y557220D02*
D03*
Y550720D02*
D03*
D36*
X680110Y691083D02*
D03*
X699110D02*
D03*
X689610Y716077D02*
D03*
X849630Y583133D02*
D03*
X840130Y608127D02*
D03*
X859130D02*
D03*
X626110Y655523D02*
D03*
X616610Y680517D02*
D03*
X635610D02*
D03*
D37*
X937260Y573720D02*
D03*
Y553720D02*
D03*
D38*
X591660Y652780D02*
D03*
X571660D02*
D03*
X600550Y622300D02*
D03*
X580550D02*
D03*
X739300Y728980D02*
D03*
X759300D02*
D03*
X561500Y518160D02*
D03*
X581500D02*
D03*
X582770Y492760D02*
D03*
X562770D02*
D03*
X517050Y430530D02*
D03*
X537050D02*
D03*
X517050Y459740D02*
D03*
X537050D02*
D03*
X432910Y462280D02*
D03*
X412910D02*
D03*
X432910Y431800D02*
D03*
X412910D02*
D03*
X928050Y626110D02*
D03*
X908050D02*
D03*
D39*
X557530Y625219D02*
D03*
Y609220D02*
D03*
X777240Y547370D02*
D03*
Y565370D02*
D03*
X708660Y541911D02*
D03*
Y557910D02*
D03*
X655320Y500270D02*
D03*
Y518270D02*
D03*
X741680Y701419D02*
D03*
Y685420D02*
D03*
X535890Y527429D02*
D03*
Y511430D02*
D03*
X633730Y517000D02*
D03*
Y499000D02*
D03*
D40*
X471170Y576072D02*
D03*
Y490220D02*
D03*
D41*
X643890Y601980D02*
D03*
X638891D02*
D03*
X633890D02*
D03*
X628891D02*
D03*
X623890D02*
D03*
X618891D02*
D03*
X613890D02*
D03*
X608891D02*
D03*
X603890D02*
D03*
X598891D02*
D03*
Y541980D02*
D03*
X603890D02*
D03*
X608891D02*
D03*
X618891D02*
D03*
X623890D02*
D03*
X628891D02*
D03*
X633890D02*
D03*
X638891D02*
D03*
X643890D02*
D03*
D42*
X591391Y594479D02*
D03*
Y589481D02*
D03*
Y584479D02*
D03*
Y579481D02*
D03*
Y574479D02*
D03*
Y569481D02*
D03*
Y564479D02*
D03*
Y559481D02*
D03*
Y554479D02*
D03*
Y549481D02*
D03*
X651391D02*
D03*
Y554479D02*
D03*
Y559481D02*
D03*
Y564479D02*
D03*
Y569481D02*
D03*
Y574479D02*
D03*
Y579481D02*
D03*
Y584479D02*
D03*
Y589481D02*
D03*
Y594479D02*
D03*
D43*
X613890Y541980D02*
D03*
D44*
X621391Y571980D02*
D03*
D45*
X795569Y593811D02*
D03*
X809711Y579669D02*
D03*
D46*
X565040Y468630D02*
D03*
X583040D02*
D03*
X534560Y552450D02*
D03*
X552560D02*
D03*
X856360Y490220D02*
D03*
X840361D02*
D03*
D47*
X680340Y783590D02*
D03*
X736340D02*
D03*
X744340D02*
D03*
X688340D02*
D03*
D48*
X694840D02*
D03*
X699840D02*
D03*
X704840D02*
D03*
X714840D02*
D03*
X709840D02*
D03*
X719840D02*
D03*
X724840D02*
D03*
X729840D02*
D03*
D49*
X867570Y717815D02*
D03*
X887570D02*
D03*
X842570D02*
D03*
X912570D02*
D03*
X547530D02*
D03*
X567530D02*
D03*
X522530D02*
D03*
X592530D02*
D03*
D50*
X749300Y538989D02*
D03*
Y570990D02*
D03*
D51*
X679450Y499270D02*
D03*
Y519270D02*
D03*
D52*
X889203Y656590D02*
D03*
X914197Y666090D02*
D03*
Y647090D02*
D03*
D53*
X623570Y422910D02*
D03*
Y462280D02*
D03*
D54*
X656140Y795090D02*
D03*
X768540D02*
D03*
D55*
X937260Y598720D02*
D03*
Y528720D02*
D03*
D56*
X910260Y588720D02*
D03*
Y538720D02*
D03*
D57*
X421640Y829310D02*
D03*
D58*
X572276Y421112D02*
D03*
X571500Y421640D02*
D03*
X756920Y424180D02*
D03*
D59*
X768540Y835090D02*
D03*
X656140D02*
D03*
D60*
X952500Y422679D02*
D03*
X906500D02*
D03*
Y487680D02*
D03*
X952500D02*
D03*
D61*
X477520Y421640D02*
D03*
X840740Y422910D02*
D03*
D62*
X621030Y579120D02*
D03*
X614680Y567690D02*
D03*
X632460Y565150D02*
D03*
X610870Y590550D02*
D03*
X444500Y683260D02*
D03*
X697230Y504190D02*
D03*
X777240Y683260D02*
D03*
X768860D02*
D03*
X684530Y585470D02*
D03*
X620849Y614800D02*
D03*
X659130Y617474D02*
D03*
X601980Y576580D02*
D03*
X617220Y623570D02*
D03*
X670814Y624904D02*
D03*
X683260Y563880D02*
D03*
X674370Y555671D02*
D03*
X606684Y610365D02*
D03*
X660400Y626110D02*
D03*
X663722Y590575D02*
D03*
X651510Y637540D02*
D03*
X621030Y554990D02*
D03*
X652780Y627380D02*
D03*
X670560Y617220D02*
D03*
Y607060D02*
D03*
X684565Y572933D02*
D03*
X669290Y585470D02*
D03*
X601980Y556260D02*
D03*
X501130Y603488D02*
D03*
X471682Y635000D02*
D03*
X476762Y643890D02*
D03*
X887730Y699770D02*
D03*
X867410Y702056D02*
D03*
X886460Y579120D02*
D03*
X896620Y580390D02*
D03*
X556260Y695202D02*
D03*
X628650Y527685D02*
D03*
X725170Y773430D02*
D03*
X715010Y765810D02*
D03*
X467360Y689610D02*
D03*
X614015Y531465D02*
D03*
X566420Y547370D02*
D03*
X886806Y569306D02*
D03*
X715010Y773430D02*
D03*
X886460Y541020D02*
D03*
X665345Y530625D02*
D03*
X692150Y538480D02*
D03*
X923290Y648970D02*
D03*
X913130Y671830D02*
D03*
X645058Y680618D02*
D03*
X709930Y795020D02*
D03*
X820420Y488950D02*
D03*
X568960Y697230D02*
D03*
D63*
X534670Y627380D02*
D03*
Y609600D02*
D03*
M02*
